<svg xmlns="http://www.w3.org/2000/svg" xmlns:xlink="http://www.w3.org/1999/xlink" width="174.231" height="125.211" viewBox="0 0 174.231 125.211">
  <defs>
    <clipPath id="clip-path">
      <rect id="Rectangle_140" data-name="Rectangle 140" width="174.231" height="125.211" transform="translate(-4 -3)"/>
    </clipPath>
  </defs>
  <g id="Group_427" data-name="Group 427" transform="translate(4 3)">
    <g id="Group_426" data-name="Group 426" clip-path="url(#clip-path)">
      <path id="Path_150" data-name="Path 150" d="M747.405,572.5c-2.88,0-5.215,3.125-5.215,6.98s2.335,6.98,5.215,6.98,5.215-3.125,5.215-6.98-2.335-6.98-5.215-6.98m1.155,12.16c-2.036,0-3.687-2.209-3.687-4.934s1.651-4.934,3.687-4.934,3.687,2.209,3.687,4.934-1.651,4.934-3.687,4.934" transform="translate(-635.54 -490.236)"/>
      <path id="Path_151" data-name="Path 151" d="M778.913,609.131c0,1.266-.687,2.292-1.534,2.292s-1.534-1.026-1.534-2.292.687-2.292,1.534-2.292,1.534,1.026,1.534,2.292" transform="translate(-664.359 -519.638)"/>
      <path id="Path_152" data-name="Path 152" d="M953.538,470.646c-7.308,0-13.469,7.117-15.4,16.844l3.548-1.223a8.09,8.09,0,0,1,2.589-.425h11.378a3.18,3.18,0,0,1,3.177,3.177v9.07a3.763,3.763,0,0,1-2.762,3.621l-16.2,4.436c2.819,6.674,7.883,11.126,13.663,11.126,8.851,0,16.027-10.438,16.027-23.313s-7.176-23.313-16.027-23.313" transform="translate(-803.333 -403.016)"/>
      <path id="Path_153" data-name="Path 153" d="M835.17,588.452H823.792a6.354,6.354,0,0,0-2.024.331l-20.161,6.947a.582.582,0,0,0-.367.391,8.372,8.372,0,0,1-3.469,4.839.588.588,0,0,0-.286.5v9.1a5.177,5.177,0,0,1-.049.683l37.69-10.325a2.021,2.021,0,0,0,1.487-1.95V589.9a1.444,1.444,0,0,0-1.444-1.444" transform="translate(-682.848 -503.893)"/>
      <path id="Path_154" data-name="Path 154" d="M686.948,781.634a18.736,18.736,0,0,1-5.731-.9v4.093a2.31,2.31,0,0,0,1.626,2.206l.7.217a11.262,11.262,0,0,0,6.53.044l.935-.276a2.31,2.31,0,0,0,1.655-2.215v-4.065a18.715,18.715,0,0,1-5.714.9" transform="translate(-583.328 -668.546)"/>
      <path id="Path_155" data-name="Path 155" d="M631.286,574.89a9.1,9.1,0,0,0-1.984,6A9,9,0,0,0,631.379,587c.011-4.609-.007-9.256-.093-12.109" transform="translate(-538.873 -492.28)"/>
      <path id="Path_156" data-name="Path 156" d="M165.779,43.508l-7.871-14.816a7.219,7.219,0,0,0-6.094-3.827l-25.5-.994L212.832.031a.87.87,0,0,1,.23-.031h29.424a4.332,4.332,0,0,1,4.289,3.727l3.239,22.983a2.888,2.888,0,0,1-1.47,2.934l-63.6,34.908a7.219,7.219,0,0,1-9.892-3.024Z" transform="translate(-108.162 0)"/>
      <path id="Path_157" data-name="Path 157" d="M10.122,182.538H34.181l9.4.366a5.5,5.5,0,0,1,4.632,2.909l1.709,3.217H21.336a7.8,7.8,0,0,0-7.649,9.31L21.215,234.7a.289.289,0,0,1-.533.2L1.4,197.749a10.107,10.107,0,0,1,8.723-15.211" transform="translate(0 -156.308)"/>
      <path id="Path_158" data-name="Path 158" d="M197.191,292.188c6.168-1.893,13.04,2.011,16.825,9-2.577-3.682-6.553-5.6-10.161-4.494-4.811,1.476-7.146,7.772-5.216,14.063s7.395,10.194,12.206,8.717c3.608-1.107,5.824-4.925,5.892-9.419.787,7.91-2.713,15-8.881,16.889-7.341,2.252-15.679-3.7-18.624-13.3s.618-19.2,7.959-21.457" transform="translate(-161.155 -249.794)"/>
      <path id="Path_159" data-name="Path 159" d="M280.765,354.539c1.991-1.149,2.386-4.191.883-6.794a6.056,6.056,0,0,0-3.767-2.97,5.505,5.505,0,0,1,1.307-.6c3.743-1.148,7.994,1.888,9.5,6.782s-.315,9.792-4.058,10.941-7.994-1.888-9.5-6.782a11.873,11.873,0,0,1-.513-2.927c1.54,2.4,4.231,3.454,6.146,2.348" transform="translate(-235.157 -294.512)"/>
      <path id="Path_160" data-name="Path 160" d="M185.613,278.32H218.67a7.219,7.219,0,0,0,7.082-8.621l-2.945-14.875a8.918,8.918,0,0,0,7.36,3.851h0a8.965,8.965,0,0,0,4.3-1.106l61.824-33.936.483,8.036a3.754,3.754,0,0,1-1.744,3.4L225.11,279.177a6.93,6.93,0,0,1-3.7,1.069H189.052s-2.915.589-5.884-2.353a7.207,7.207,0,0,0,2.445.427" transform="translate(-156.847 -191.497)"/>
      <path id="Path_161" data-name="Path 161" d="M134.243,271.451l4.672,23.6a10.824,10.824,0,0,0,10.618,8.722h17.889a10.824,10.824,0,0,0,10.618-12.926l-3.6-18.2-3.577-6.947-3.179-5.984a10.794,10.794,0,0,0-4.93-1.188H144.86a10.824,10.824,0,0,0-10.618,12.926m15.8-10.193c8.4-2.578,17.945,4.238,21.315,15.223s-.708,21.981-9.109,24.558S144.3,296.8,140.929,285.816s.708-21.981,9.109-24.558" transform="translate(-114.773 -221.376)"/>
      <path id="Path_162" data-name="Path 162" d="M616.567,378.279,605.139,398.59v6.777a5.139,5.139,0,0,0-2.984-.988c-3.535,0-6.4,3.836-6.4,8.567s2.866,8.567,6.4,8.567a5.139,5.139,0,0,0,2.984-.988v10.061a3.465,3.465,0,0,1-2.328,3.273l-1.365.474a17.037,17.037,0,0,1-10.934.085l-1.737-.574a3.464,3.464,0,0,1-2.379-3.324c.055-5.566.16-18.819-.027-24.374-.136-4.034-5.832-2.86-11.532-1.541Z" transform="translate(-492.234 -323.922)"/>
    </g>
  </g>
</svg>
