<svg xmlns="http://www.w3.org/2000/svg" width="20.428" height="16.343" viewBox="0 0 20.428 16.343">
  <path id="Icon_awesome-car-alt" data-name="Icon awesome-car-alt" d="M18.669,10.813l-.478-1.2L17.342,7.5a4.743,4.743,0,0,0-4.426-3H7.512a4.744,4.744,0,0,0-4.426,3L2.238,9.617l-.478,1.2A2.718,2.718,0,0,0,0,13.352V15.4A2.7,2.7,0,0,0,.681,17.18v2.3a1.362,1.362,0,0,0,1.362,1.362H3.4a1.362,1.362,0,0,0,1.362-1.362V18.119h10.9v1.362a1.362,1.362,0,0,0,1.362,1.362h1.362a1.362,1.362,0,0,0,1.362-1.362v-2.3a2.7,2.7,0,0,0,.681-1.785V13.352A2.718,2.718,0,0,0,18.669,10.813ZM5.615,8.508a2.043,2.043,0,0,1,1.9-1.284h5.405a2.043,2.043,0,0,1,1.9,1.284l.848,2.121H4.767l.848-2.121ZM3.4,15.387a1.285,1.285,0,0,1-1.362-1.358A1.285,1.285,0,0,1,3.4,12.671a2.62,2.62,0,0,1,2.043,2.036C5.448,15.522,4.222,15.387,3.4,15.387Zm13.619,0c-.817,0-2.043.136-2.043-.679a2.62,2.62,0,0,1,2.043-2.036,1.285,1.285,0,0,1,1.362,1.358A1.285,1.285,0,0,1,17.024,15.387Z" transform="translate(0 -4.5)" fill="#fff"/>
</svg>
