<svg xmlns="http://www.w3.org/2000/svg" width="47" height="47" viewBox="0 0 47 47">
  <g id="Group_344" data-name="Group 344" transform="translate(0.348 0.348)">
    <circle id="Ellipse_3" data-name="Ellipse 3" cx="23.5" cy="23.5" r="23.5" transform="translate(-0.348 -0.348)" fill="#fff"/>
    <g id="Group_21" data-name="Group 21" transform="translate(9.33 10.885)">
      <g id="Group_13" data-name="Group 13" transform="translate(0 0)">
        <path id="Path_70" data-name="Path 70" d="M34.869,20.556c0-6.043-6.115-11.006-13.6-11.006s-13.6,4.963-13.6,11.006c0,5.467,4.82,10,11.366,10.863.432.071,1.078.287,1.223.647a3.515,3.515,0,0,1,.071,1.223s-.144.935-.216,1.151c-.071.36-.287,1.367,1.151.72,1.439-.575,7.841-4.6,10.646-7.913h0A9.2,9.2,0,0,0,34.869,20.556ZM16.453,23.793a.31.31,0,0,1-.288.288H12.352a.264.264,0,0,1-.216-.072h0a.266.266,0,0,1-.071-.216h0v-5.9a.31.31,0,0,1,.287-.288H13.36a.31.31,0,0,1,.287.288v4.676h2.59a.31.31,0,0,1,.288.287v.936Zm2.3,0a.31.31,0,0,1-.288.288h-.935a.31.31,0,0,1-.288-.288v-5.9a.31.31,0,0,1,.288-.288h.935a.31.31,0,0,1,.288.288Zm6.619,0a.31.31,0,0,1-.288.288H24.079l-.072-.072L21.2,20.34v3.526a.309.309,0,0,1-.287.287h-.936a.309.309,0,0,1-.287-.287v-5.9a.309.309,0,0,1,.287-.288h.936l2.734,3.669V17.822a.309.309,0,0,1,.287-.287h.936a.31.31,0,0,1,.288.287v5.971Zm5.251-4.963a.31.31,0,0,1-.288.287h-2.59v1.007h2.59a.31.31,0,0,1,.288.288v.936a.31.31,0,0,1-.288.287h-2.59v1.007h2.59a.31.31,0,0,1,.288.288v.936a.31.31,0,0,1-.288.287H26.524a.266.266,0,0,1-.216-.071h0a.264.264,0,0,1-.072-.216h0v-5.9h0a.263.263,0,0,1,.072-.216h0a.264.264,0,0,1,.216-.072h3.813a.31.31,0,0,1,.288.288Z" transform="translate(-7.677 -9.55)"/>
      </g>
    </g>
  </g>
</svg>
