<svg xmlns="http://www.w3.org/2000/svg" width="54.438" height="32.307" viewBox="0 0 54.438 32.307">
  <g id="LIVE" transform="translate(-1573.398 -45)">
    <path id="Path_98709" data-name="Path 98709" d="M47.509,8.635V28.35a4.441,4.441,0,0,1-4.634,4.206H4.634A4.442,4.442,0,0,1,0,28.35V4.455A4.441,4.441,0,0,1,4.634.249H42.876a4.441,4.441,0,0,1,4.634,4.206ZM54.438,23.42a2.436,2.436,0,0,1-3.654,2.109L47.6,23.115V9.69l3.18-2.414a2.436,2.436,0,0,1,3.654,2.109Z" transform="translate(1573.398 44.751)" fill="#c60000"/>
    <path id="Path_98710" data-name="Path 98710" d="M14.242,14.336v8.824h4.2v2.884H11.553V14.336Zm5.524,11.708V14.336H22.46V26.044ZM28.3,22.762l1.933-8.426h2.728l-3.23,11.708H26.819L23.534,14.336h2.81Zm8.227-1.677v2.308h4.639v2.651H33.835V14.336h7.2v2.5h-4.51V18.7h4.182v2.388Z" transform="translate(1570.292 40.964)" fill="#fff"/>
  </g>
</svg>
