<?xml version="1.0" encoding="utf-8"?>
<!-- Generator: Adobe Illustrator 15.0.0, SVG Export Plug-In . SVG Version: 6.00 Build 0)  -->
<!DOCTYPE svg PUBLIC "-//W3C//DTD SVG 1.1//EN" "http://www.w3.org/Graphics/SVG/1.1/DTD/svg11.dtd">
<svg version="1.1" id="圖層_1" xmlns="http://www.w3.org/2000/svg" xmlns:xlink="http://www.w3.org/1999/xlink" x="0px" y="0px"
	 width="180px" height="96px" viewBox="-56.678 -30.184 180 96" enable-background="new -56.678 -30.184 180 96"
	 xml:space="preserve">
<g transform="translate(-314.006 -59.162)">
	<g transform="translate(314.006 59.162)">
		<g transform="translate(0 0)">
			<path fill="#FFFFFF" d="M53.949-24.494c-0.358-2.032,0.997-3.97,3.027-4.329s3.969,0.997,4.33,3.027
				c0.358,2.032-0.997,3.97-3.03,4.329c-0.213,0.038-0.432,0.056-0.647,0.056C55.765-21.259,54.128-22.634,53.949-24.494z"/>
			<path fill="#FFFFFF" d="M64.171-24.494c-0.361-2.033,0.994-3.972,3.027-4.333c2.03-0.36,3.971,0.995,4.332,3.027
				c0.359,2.032-0.996,3.972-3.027,4.333c-0.216,0.039-0.437,0.058-0.655,0.058C65.986-21.259,64.347-22.634,64.171-24.494z"/>
			<path fill="#FFFFFF" d="M74.39-24.494c-0.362-2.033,0.993-3.972,3.026-4.333c2.033-0.36,3.972,0.995,4.333,3.027
				c0.361,2.032-0.994,3.972-3.027,4.333c-0.216,0.039-0.432,0.058-0.652,0.058C76.207-21.259,74.568-22.634,74.39-24.494z"/>
			<path fill="#FFFFFF" d="M84.614-24.494c-0.361-2.033,0.994-3.972,3.024-4.333c2.033-0.36,3.974,0.995,4.335,3.027
				c0.359,2.032-0.996,3.972-3.027,4.333c-0.216,0.039-0.437,0.058-0.655,0.058C86.428-21.259,84.789-22.634,84.614-24.494z"/>
			<path fill="#FFFFFF" d="M60.695-15.32c-0.359-2.032,0.996-3.969,3.027-4.329c2.03-0.359,3.968,0.996,4.327,3.028
				c0.361,2.031-0.994,3.968-3.027,4.327c-0.213,0.038-0.432,0.057-0.647,0.057C62.509-12.086,60.872-13.459,60.695-15.32z"/>
			<path fill="#FFFFFF" d="M70.915-15.32c-0.361-2.032,0.994-3.972,3.027-4.333c2.031-0.361,3.971,0.994,4.333,3.026
				c0.358,2.033-0.997,3.972-3.027,4.333c-0.216,0.038-0.438,0.057-0.655,0.057C72.731-12.086,71.091-13.459,70.915-15.32z"/>
			<path fill="#FFFFFF" d="M81.142-15.32c-0.361-2.032,0.994-3.972,3.027-4.333c2.033-0.361,3.971,0.994,4.332,3.026
				c0.361,2.033-0.994,3.972-3.027,4.333c-0.213,0.038-0.432,0.057-0.649,0.057C82.959-12.086,81.32-13.459,81.142-15.32z"/>
			<path fill="#FFFFFF" d="M91.356-15.32c-0.359-2.032,0.996-3.972,3.026-4.333c2.033-0.361,3.974,0.994,4.333,3.026
				c0.361,2.033-0.994,3.972-3.024,4.333c-0.216,0.038-0.438,0.057-0.655,0.057C93.173-12.086,91.533-13.459,91.356-15.32z"/>
			<path fill="#FFFFFF" d="M67.442-6.147c-0.359-2.032,0.994-3.972,3.027-4.332c2.033-0.36,3.974,0.994,4.332,3.027
				c0.361,2.032-0.994,3.972-3.027,4.333c-0.216,0.038-0.434,0.058-0.652,0.058C69.256-2.912,67.619-4.286,67.442-6.147z"/>
			<path fill="#FFFFFF" d="M77.662-6.147c-0.361-2.032,0.994-3.972,3.027-4.332c2.031-0.36,3.972,0.994,4.333,3.027
				c0.358,2.032-0.997,3.972-3.027,4.333c-0.216,0.038-0.435,0.058-0.652,0.058C79.478-2.911,77.838-4.285,77.662-6.147z"/>
			<path fill="#FFFFFF" d="M87.881-6.147c-0.361-2.032,0.994-3.972,3.027-4.332c2.033-0.36,3.971,0.994,4.333,3.027
				c0.361,2.032-0.994,3.972-3.027,4.333C92-3.083,91.782-3.063,91.564-3.063C89.701-2.911,88.06-4.285,87.881-6.147z"/>
			<path fill="#FFFFFF" d="M98.1-6.147c-0.358-2.032,0.997-3.972,3.027-4.332c2.033-0.36,3.974,0.994,4.333,3.027
				c0.361,2.032-0.994,3.972-3.025,4.333c-0.216,0.038-0.434,0.058-0.652,0.058C99.917-2.912,98.279-4.286,98.1-6.147z"/>
			<path fill="#FFFFFF" d="M84.407,3.026c-0.361-2.032,0.994-3.972,3.027-4.333c2.03-0.36,3.971,0.996,4.332,3.027
				c0.359,2.032-0.996,3.972-3.027,4.333c-0.216,0.039-0.437,0.058-0.655,0.058C86.222,6.26,84.585,4.887,84.407,3.026z"/>
			<path fill="#FFFFFF" d="M94.628,3.026c-0.361-2.032,0.994-3.972,3.027-4.333c2.033-0.36,3.972,0.996,4.333,3.027
				c0.361,2.032-0.994,3.972-3.027,4.333c-0.216,0.039-0.435,0.058-0.655,0.058C96.444,6.262,94.804,4.887,94.628,3.026z"/>
			<path fill="#FFFFFF" d="M104.847,3.026c-0.358-2.032,0.997-3.972,3.027-4.333c2.033-0.36,3.974,0.996,4.333,3.027
				c0.361,2.032-0.994,3.972-3.025,4.333c-0.216,0.039-0.437,0.058-0.655,0.058C106.664,6.262,105.026,4.887,104.847,3.026z"/>
			<path fill="#FFFFFF" d="M80.934,12.198c-0.359-2.032,0.996-3.97,3.026-4.329c2.031-0.359,3.969,0.997,4.328,3.027
				c0.361,2.032-0.994,3.97-3.027,4.329c-0.214,0.038-0.432,0.057-0.647,0.057C82.748,15.432,81.112,14.058,80.934,12.198z"/>
			<path fill="#FFFFFF" d="M91.152,12.198c-0.361-2.033,0.994-3.972,3.025-4.333c2.033-0.36,3.974,0.995,4.335,3.027
				c0.358,2.033-0.997,3.972-3.027,4.333c-0.216,0.039-0.437,0.058-0.655,0.058C92.967,15.432,91.327,14.058,91.152,12.198z"/>
			<path fill="#FFFFFF" d="M101.373,12.198c-0.361-2.033,0.994-3.972,3.027-4.333c2.033-0.36,3.971,0.995,4.332,3.027
				c0.361,2.033-0.994,3.972-3.027,4.333c-0.216,0.039-0.434,0.058-0.652,0.058C103.191,15.434,101.549,14.059,101.373,12.198z"/>
			<path fill="#FFFFFF" d="M111.592,12.198c-0.359-2.033,0.996-3.972,3.027-4.333c2.033-0.36,3.974,0.995,4.332,3.027
				c0.361,2.033-0.994,3.972-3.024,4.333c-0.216,0.039-0.437,0.058-0.655,0.058C113.409,15.431,111.77,14.058,111.592,12.198z"/>
			<path fill="#FFFFFF" d="M53.949,48.887c-0.358,2.031,0.997,3.969,3.027,4.328c2.03,0.358,3.969-0.997,4.33-3.027
				c0.358-2.031-0.997-3.969-3.03-4.328c-0.213-0.037-0.432-0.058-0.647-0.058C55.765,45.651,54.128,47.027,53.949,48.887z"/>
			<path fill="#FFFFFF" d="M64.171,48.887c-0.361,2.031,0.994,3.974,3.027,4.333c2.03,0.358,3.971-0.994,4.332-3.027
				c0.359-2.03-0.996-3.974-3.027-4.333c-0.216-0.037-0.437-0.058-0.655-0.058C65.986,45.651,64.347,47.027,64.171,48.887z"/>
			<path fill="#FFFFFF" d="M74.39,48.887c-0.362,2.031,0.993,3.974,3.026,4.333c2.033,0.358,3.972-0.994,4.333-3.027
				c0.361-2.03-0.994-3.974-3.027-4.333c-0.216-0.037-0.432-0.058-0.652-0.058C76.207,45.651,74.568,47.027,74.39,48.887z"/>
			<path fill="#FFFFFF" d="M84.614,48.887c-0.361,2.031,0.994,3.974,3.024,4.333c2.033,0.358,3.974-0.994,4.335-3.027
				c0.359-2.03-0.996-3.974-3.027-4.333c-0.216-0.037-0.437-0.058-0.655-0.058C86.428,45.651,84.789,47.027,84.614,48.887z"/>
			<path fill="#FFFFFF" d="M60.695,39.718c-0.359,2.028,0.996,3.966,3.027,4.327c2.03,0.356,3.968-0.999,4.327-3.027
				c0.361-2.033-0.994-3.971-3.027-4.33c-0.213-0.037-0.432-0.058-0.647-0.058C62.509,36.479,60.872,37.855,60.695,39.718z"/>
			<path fill="#FFFFFF" d="M70.915,39.718c-0.361,2.03,0.994,3.971,3.027,4.332c2.031,0.359,3.971-0.996,4.333-3.027
				c0.358-2.033-0.997-3.973-3.027-4.332c-0.216-0.04-0.438-0.061-0.655-0.061C72.731,36.479,71.091,37.855,70.915,39.718z"/>
			<path fill="#FFFFFF" d="M81.142,39.718c-0.361,2.03,0.994,3.971,3.027,4.332c2.033,0.359,3.971-0.996,4.332-3.027
				c0.361-2.033-0.994-3.973-3.027-4.332c-0.213-0.04-0.432-0.061-0.649-0.061C82.959,36.479,81.32,37.855,81.142,39.718z"/>
			<path fill="#FFFFFF" d="M91.356,39.718c-0.359,2.03,0.996,3.971,3.026,4.332c2.033,0.359,3.974-0.996,4.333-3.027
				c0.361-2.033-0.994-3.973-3.024-4.332c-0.216-0.04-0.438-0.061-0.655-0.061C93.173,36.479,91.533,37.855,91.356,39.718z"/>
			<path fill="#FFFFFF" d="M77.662,30.541c-0.361,2.033,0.994,3.973,3.027,4.332c2.031,0.361,3.972-0.994,4.333-3.024
				c0.358-2.033-0.997-3.974-3.027-4.335c-0.216-0.035-0.435-0.056-0.652-0.056C79.478,27.308,77.838,28.681,77.662,30.541z"/>
			<path fill="#FFFFFF" d="M87.881,30.541c-0.361,2.035,0.994,3.976,3.027,4.337c2.033,0.364,3.977-0.991,4.338-3.024
				s-0.994-3.977-3.027-4.338c-0.216-0.037-0.435-0.058-0.655-0.058C89.701,27.308,88.06,28.678,87.881,30.541z"/>
			<path fill="#FFFFFF" d="M98.1,30.541c-0.358,2.033,0.997,3.973,3.027,4.332c2.033,0.361,3.974-0.994,4.333-3.024
				c0.361-2.033-0.994-3.974-3.025-4.335c-0.216-0.035-0.434-0.056-0.652-0.056C99.917,27.308,98.279,28.681,98.1,30.541z"/>
			<path fill="#FFFFFF" d="M84.407,21.369c-0.361,2.033,0.994,3.971,3.027,4.332c2.03,0.361,3.971-0.994,4.332-3.027
				c0.359-2.033-0.996-3.971-3.027-4.332c-0.216-0.038-0.437-0.058-0.655-0.058C86.222,18.136,84.585,19.509,84.407,21.369z"/>
			<path fill="#FFFFFF" d="M94.628,21.369c-0.361,2.033,0.994,3.971,3.027,4.332s3.972-0.994,4.333-3.027s-0.994-3.971-3.027-4.332
				c-0.216-0.038-0.435-0.058-0.655-0.058C96.444,18.134,94.804,19.506,94.628,21.369z"/>
			<path fill="#FFFFFF" d="M104.847,21.369c-0.358,2.033,0.997,3.971,3.027,4.332c2.033,0.361,3.974-0.994,4.333-3.027
				c0.361-2.033-0.994-3.971-3.025-4.332c-0.216-0.038-0.437-0.058-0.655-0.058C106.664,18.134,105.026,19.506,104.847,21.369z"/>
			<path fill="#FFFFFF" d="M81.097,0.803H64.208c-0.459,0.021-0.918,0.068-1.373,0.138c-5.264,0.798-9.405,4.916-10.23,10.176
				c-0.099,0.822-0.081,1.654,0.05,2.471c0.439,3.78,3.606,6.653,7.412,6.721c0.387,0.04,0.773,0.055,1.16,0.05h6.285
				c0,0,0,0,0.015,0c0.211-0.01,0.425-0.005,0.636,0.016c1.528,0.027,2.801,1.182,2.979,2.7c0.053,0.329,0.058,0.663,0.02,0.994
				c-0.479,2.305-2.447,3.996-4.797,4.132c-0.158,0-0.318,0.025-0.484,0.035H49.539l-1.308,4.191c0,0.011,0,0.018,0,0.025
				l-0.259,0.849l-0.118,0.379l0,0l-0.05,0.168c-0.025,0.056-0.003,0.121,0.05,0.146c0.018,0.011,0.038,0.013,0.059,0.011h18.652
				c0.459-0.021,0.919-0.068,1.373-0.141c5.266-0.794,9.408-4.915,10.231-10.177c0.095-0.82,0.08-1.651-0.048-2.47
				c-0.442-3.779-3.609-6.651-7.415-6.719c-0.435-0.044-0.868-0.059-1.303-0.046l0,0h-6.143c0,0,0,0-0.015,0
				c-0.211,0.011-0.422,0.006-0.633-0.017c-1.531-0.025-2.804-1.18-2.982-2.701c-0.053-0.329-0.058-0.663-0.02-0.992
				c0.349-2.228,2.227-3.897,4.478-3.984c0.158,0,0.319-0.023,0.485-0.037h14.837l1.696-5.431l0,0l0.028-0.098l0.058-0.179l0,0
				l0.018-0.062c0.022-0.055-0.003-0.119-0.058-0.142C81.137,0.803,81.116,0.801,81.097,0.803z"/>
			<path fill="#FFFFFF" d="M-25.912,6.599h-0.63c-0.098,0.007-0.196-0.021-0.273-0.079c-0.061-0.073-0.07-0.174-0.028-0.257l0,0
				l1.948-3.524c0.173-0.34,0.399-0.651,0.67-0.92c0.726-0.736,1.682-1.201,2.711-1.317l0,0c1.23-0.135,2.47-0.194,3.708-0.177l0,0
				H1.278l2.005-6.529l0.143-0.468c0.025-0.055,0-0.121-0.055-0.146C3.353-6.824,3.336-6.826,3.318-6.825h-37.125h-0.015
				c-2.563-0.038-5.125,0.085-7.673,0.367v0.021c-2.116,0.234-4.089,1.185-5.593,2.693c-0.557,0.557-1.024,1.2-1.383,1.901l-3.725,7
				l-0.022,0.051c-0.208,0.396-0.156,0.88,0.13,1.224c0.367,0.283,0.823,0.42,1.285,0.385h16.248l-6.685,21.78l-0.018,0.075
				c-0.366,1.391,0.068,2.872,1.127,3.843c0.969,0.977,2.292,1.521,3.667,1.512h12.45L-15.6,6.602L-25.912,6.599z"/>
			<path fill="#FFFFFF" d="M44.808,17.536c-0.318-0.241-0.657-0.456-1.014-0.64c-0.188-0.102-0.382-0.194-0.583-0.285
				c2.402-1.359,4.135-3.654,4.787-6.335c0.184-0.891,0.221-1.806,0.115-2.71c-0.756-3.878-4.137-6.688-8.088-6.721
				c-0.421-0.044-1.303-0.054-1.303-0.054H22.049c-2.159,0-2.405-0.093-3.597,1.2c-0.258,0.282-0.454,0.515-0.454,0.515
				L-6.679,28.658c-0.088,0.08-0.199,0.136-0.316,0.16c-0.196,0-0.356-0.152-0.364-0.346l6.682-21.886h-7.126l-7.91,25.862l0,0
				l-0.429,1.405c-0.025,0.056-0.002,0.121,0.053,0.146c0.018,0.007,0.035,0.01,0.055,0.01h13.838L22.106,6.682h15.422
				c0,0,0.71,0,0.914,0.025c1.53,0.03,2.804,1.185,2.979,2.705c0.053,0.328,0.06,0.662,0.02,0.992
				c-0.256,2.165-3.213,4.015-5.467,4.133c-0.158,0-0.321,0.024-0.487,0.036h-4.159l-1.8,5.768h7.023c0,0,0,0,0.013,0
				c0.211-0.011,0.422-0.006,0.633,0.015c1.501,0.038,2.73,1.205,2.844,2.703c0.053,0.329,0.061,0.663,0.02,0.994
				c-0.479,2.305-2.444,3.999-4.794,4.129c-0.16,0-0.316,0.025-0.484,0.038H24.659l5.62-18.296h-7.729l-7.294,23.766l0,0
				l-0.042,0.146c-0.025,0.055,0,0.12,0.058,0.143c0.013,0.008,0.03,0.011,0.045,0.011h20.286c0.063,0,1.398,0,1.647-0.022
				c5.486-0.063,10.083-4.165,10.771-9.606c0.038-0.778-0.04-1.559-0.229-2.312C47.381,20.229,46.319,18.625,44.808,17.536z"/>
		</g>
	</g>
	<g transform="translate(317.66 84.63)">
		<path fill="#FFFFFF" d="M-35.099,29.596l-2.39,0.638c0.618,1.656,1.14,3.344,1.557,5.061l2.447-0.946
			C-33.939,32.737-34.478,31.15-35.099,29.596z"/>
		<path fill="#FFFFFF" d="M-35.099,29.596l-2.39,0.638c0.618,1.656,1.14,3.344,1.557,5.061l2.447-0.946
			C-33.939,32.737-34.478,31.15-35.099,29.596z"/>
		<path fill="#FFFFFF" d="M-44.105,29.764c-0.472,2.257-1.317,4.415-2.502,6.394l2.417,1.528c1.25-2.312,2.156-4.792,2.696-7.362
			L-44.105,29.764z"/>
		<path fill="#FFFFFF" d="M-44.105,29.764c-0.472,2.257-1.317,4.415-2.502,6.394l2.417,1.528c1.25-2.312,2.156-4.792,2.696-7.362
			L-44.105,29.764z"/>
		<path fill="#FFFFFF" d="M-29.041,16.926c2.663-0.133,5.299-0.61,7.839-1.421l-1.42-2.61c-2.952,1.1-6.077,1.664-9.228,1.667
			v12.063c0.081,3.368-0.798,6.694-2.527,9.588l2.083,2.194c2.202-3.532,3.331-7.626,3.251-11.785v-2.641h3.002v14.48h2.864v-14.48
			h2.558v-2.754h-8.424L-29.041,16.926z"/>
		<path fill="#FFFFFF" d="M-29.041,16.926c2.663-0.133,5.299-0.61,7.839-1.421l-1.42-2.61c-2.952,1.1-6.077,1.664-9.228,1.667
			v12.063c0.081,3.368-0.798,6.694-2.527,9.588l2.083,2.194c2.202-3.532,3.331-7.626,3.251-11.785v-2.641h3.002v14.48h2.864v-14.48
			h2.558v-2.754h-8.424L-29.041,16.926z"/>
		<path fill="#FFFFFF" d="M-33.376,26.037h-4.559v-2.249h5.03v-2.641h-2.688c0.361-0.809,0.695-1.669,1.029-2.615l-2.585-0.916
			c-0.298,1.192-0.66,2.372-1.082,3.529h-2.447c-0.332-1.2-0.73-2.378-1.195-3.529l-2.558,0.971
			c0.459,0.818,0.851,1.672,1.167,2.559h-2.829v2.638h5.281v2.254h-4.839v2.639h4.839v6.589c0,0.527-0.336,0.803-0.946,0.803
			c-0.387-0.015-0.771-0.08-1.14-0.193l0.623,2.661h1.443c1.917,0,2.892-0.861,2.892-2.585v-7.282h4.559L-33.376,26.037z"/>
		<path fill="#FFFFFF" d="M-33.376,26.037h-4.559v-2.249h5.03v-2.641h-2.688c0.361-0.809,0.695-1.669,1.029-2.615l-2.585-0.916
			c-0.298,1.192-0.66,2.372-1.082,3.529h-2.447c-0.332-1.2-0.73-2.378-1.195-3.529l-2.558,0.971
			c0.459,0.818,0.851,1.672,1.167,2.559h-2.829v2.638h5.281v2.254h-4.839v2.639h4.839v6.589c0,0.527-0.336,0.803-0.946,0.803
			c-0.387-0.015-0.771-0.08-1.14-0.193l0.623,2.661h1.443c1.917,0,2.892-0.861,2.892-2.585v-7.282h4.559L-33.376,26.037z"/>
		<path fill="#FFFFFF" d="M-33.07,14.84h-5.058c-0.336-0.892-0.64-1.697-0.976-2.42l-3.002,0.502
			c0.407,0.612,0.771,1.253,1.087,1.918h-4.807v2.668h12.756V14.84z"/>
		<path fill="#FFFFFF" d="M-33.07,14.84h-5.058c-0.336-0.892-0.64-1.697-0.976-2.42l-3.002,0.502
			c0.407,0.612,0.771,1.253,1.087,1.918h-4.807v2.668h12.756V14.84z"/>
		<path fill="#FFFFFF" d="M3.116,32.237c-0.723,0.058-1.446,0.141-2.224,0.195v-6.754h2.447v-2.445h-15.021v2.445h2v7.392
			c-0.695,0-1.418,0.03-2.141,0.086l0.334,2.53c3.477-0.169,6.727-0.364,9.769-0.613v2.586h2.613v-2.807l2.224-0.226L3.116,32.237z
			 M-1.722,32.626c-1.669,0.111-3.449,0.196-5.336,0.307v-1.197h5.336V32.626z M-1.722,29.734h-5.334V28.65h5.336L-1.722,29.734z
			 M-1.722,26.705h-5.334v-1.029h5.336L-1.722,26.705z"/>
		<path fill="#FFFFFF" d="M3.116,32.237c-0.723,0.058-1.446,0.141-2.224,0.195v-6.754h2.447v-2.445h-15.021v2.445h2v7.392
			c-0.695,0-1.418,0.03-2.141,0.086l0.334,2.53c3.477-0.169,6.727-0.364,9.769-0.613v2.586h2.613v-2.807l2.224-0.226L3.116,32.237z
			 M-1.722,32.626c-1.669,0.111-3.449,0.196-5.336,0.307v-1.197h5.336V32.626z M-1.722,29.734h-5.334V28.65h5.336L-1.722,29.734z
			 M-1.722,26.705h-5.334v-1.029h5.336L-1.722,26.705z"/>
		<path fill="#FFFFFF" d="M-3.142,22.121h8.118v12.674c0,0.67-0.334,1.029-0.946,1.029c-0.693,0-1.443-0.058-2.279-0.138
			l0.667,2.555c0.861,0.058,1.752,0.11,2.641,0.11c1.86,0,2.807-0.889,2.807-2.665V13.559H-3.142V22.121z M-0.25,15.728h5.226v1.057
			H-0.25V15.728z M-0.25,18.73h5.226v1.285H-0.25V18.73z"/>
		<path fill="#FFFFFF" d="M-3.142,22.121h8.118v12.674c0,0.67-0.334,1.029-0.946,1.029c-0.693,0-1.443-0.058-2.279-0.138
			l0.667,2.555c0.861,0.058,1.752,0.11,2.641,0.11c1.86,0,2.807-0.889,2.807-2.665V13.559H-3.142V22.121z M-0.25,15.728h5.226v1.057
			H-0.25V15.728z M-0.25,18.73h5.226v1.285H-0.25V18.73z"/>
		<path fill="#FFFFFF" d="M-5.02,13.559h-11.117v24.848h2.892V22.092h8.226V13.559z M-7.912,19.985h-5.334v-1.253h5.337
			L-7.912,19.985z M-7.912,16.787h-5.334v-1.111h5.337L-7.912,16.787z"/>
		<path fill="#FFFFFF" d="M-5.02,13.559h-11.117v24.848h2.892V22.092h8.226V13.559z M-7.912,19.985h-5.334v-1.253h5.337
			L-7.912,19.985z M-7.912,16.787h-5.334v-1.111h5.337L-7.912,16.787z"/>
		<path fill="#FFFFFF" d="M16.118,22.872c-0.703,1.358-1.541,2.644-2.5,3.833c-0.336,0.341-0.745,0.598-1.195,0.753l0.693,2.39
			c2.094-0.254,4.159-0.7,6.17-1.335l0.224,1.194l2.141-0.527c-0.344-1.915-0.801-3.81-1.363-5.67l-2.056,0.668
			c0.223,0.723,0.419,1.501,0.612,2.334c-0.918,0.224-1.835,0.417-2.753,0.582c2.038-2.849,3.843-5.855,5.396-8.996l-2.502-0.946
			c-0.555,1.17-1.082,2.254-1.584,3.281l-2.056,0.333c1.38-2.284,2.545-4.693,3.474-7.196l-2.646-1.062
			c-0.701,2.503-1.592,4.945-2.668,7.31c-0.281,0.449-0.688,0.809-1.167,1.029l0.693,2.53
			C14.087,23.206,15.116,23.038,16.118,22.872z"/>
		<path fill="#FFFFFF" d="M16.118,22.872c-0.703,1.358-1.541,2.644-2.5,3.833c-0.336,0.341-0.745,0.598-1.195,0.753l0.693,2.39
			c2.094-0.254,4.159-0.7,6.17-1.335l0.224,1.194l2.141-0.527c-0.344-1.915-0.801-3.81-1.363-5.67l-2.056,0.668
			c0.223,0.723,0.419,1.501,0.612,2.334c-0.918,0.224-1.835,0.417-2.753,0.582c2.038-2.849,3.843-5.855,5.396-8.996l-2.502-0.946
			c-0.555,1.17-1.082,2.254-1.584,3.281l-2.056,0.333c1.38-2.284,2.545-4.693,3.474-7.196l-2.646-1.062
			c-0.701,2.503-1.592,4.945-2.668,7.31c-0.281,0.449-0.688,0.809-1.167,1.029l0.693,2.53
			C14.087,23.206,15.116,23.038,16.118,22.872z"/>
		<path fill="#FFFFFF" d="M33.403,33.462v-2.168h-4.626v-3.056h5.116v-2.447h-2.914c-0.221-0.918-0.417-1.749-0.638-2.472
			l-2.42,0.389c0.294,0.678,0.545,1.375,0.75,2.083H25.33v2.447h1.167v5.227L33.403,33.462z"/>
		<path fill="#FFFFFF" d="M33.403,33.462v-2.168h-4.626v-3.056h5.116v-2.447h-2.914c-0.221-0.918-0.417-1.749-0.638-2.472
			l-2.42,0.389c0.294,0.678,0.545,1.375,0.75,2.083H25.33v2.447h1.167v5.227L33.403,33.462z"/>
		<path fill="#FFFFFF" d="M22.009,34.376c-0.394-1.471-0.876-2.922-1.443-4.335l-1.837,0.64c0.529,1.612,0.966,3.256,1.308,4.92
			l1.973-0.918v3.528h2.641V16.177h9.92v18.396c0,0.638-0.256,0.972-0.721,0.972l-3.391-0.081l0.723,2.556h3.499
			c1.697,0,2.558-0.943,2.558-2.826V13.607H22.007L22.009,34.376z"/>
		<path fill="#FFFFFF" d="M22.009,34.376c-0.394-1.471-0.876-2.922-1.443-4.335l-1.837,0.64c0.529,1.612,0.966,3.256,1.308,4.92
			l1.973-0.918v3.528h2.641V16.177h9.92v18.396c0,0.638-0.256,0.972-0.721,0.972l-3.391-0.081l0.723,2.556h3.499
			c1.697,0,2.558-0.943,2.558-2.826V13.607H22.007L22.009,34.376z"/>
		<path fill="#FFFFFF" d="M15.919,31.263c0.307,1.666,0.558,3.584,0.75,5.753l2.314-0.527c-0.306-2.056-0.665-3.948-1.054-5.67
			L15.919,31.263z"/>
		<path fill="#FFFFFF" d="M15.919,31.263c0.307,1.666,0.558,3.584,0.75,5.753l2.314-0.527c-0.306-2.056-0.665-3.948-1.054-5.67
			L15.919,31.263z"/>
		<path fill="#FFFFFF" d="M12.169,37.35l2.314,0.723c0.512-2.236,0.808-4.516,0.889-6.81l-2.252-0.307
			C13.048,33.118,12.729,35.264,12.169,37.35z"/>
		<path fill="#FFFFFF" d="M12.169,37.35l2.314,0.723c0.512-2.236,0.808-4.516,0.889-6.81l-2.252-0.307
			C13.048,33.118,12.729,35.264,12.169,37.35z"/>
		<path fill="#FFFFFF" d="M25.185,23.065h8.866v-2.439H32.16c0.457-1.09,0.791-2.229,0.999-3.392L30.825,16.9
			c-0.163,1.266-0.441,2.51-0.831,3.726h-2.171l1.335-0.613c-0.376-1.029-0.823-2.033-1.335-3.002l-1.998,0.693
			c0.502,0.938,0.931,1.917,1.285,2.922h-1.925V23.065z"/>
		<path fill="#FFFFFF" d="M25.185,23.065h8.866v-2.439H32.16c0.457-1.09,0.791-2.229,0.999-3.392L30.825,16.9
			c-0.163,1.266-0.441,2.51-0.831,3.726h-2.171l1.335-0.613c-0.376-1.029-0.823-2.033-1.335-3.002l-1.998,0.693
			c0.502,0.938,0.931,1.917,1.285,2.922h-1.925V23.065z"/>
	</g>
</g>
</svg>
