<svg xmlns="http://www.w3.org/2000/svg" width="112" height="63" viewBox="0 0 112 63">
  <g id="Group_432" data-name="Group 432" transform="translate(-2956 102)">
    <g id="新聞網-logo-中文-白" transform="translate(2960.592 -98.556)">
      <g id="Group_47" data-name="Group 47" transform="translate(0 0)">
        <g id="Group_46" data-name="Group 46">
          <g id="Group_45" data-name="Group 45" transform="translate(64.119)">
            <path id="Path_74" data-name="Path 74" d="M513.6,14.363a2.248,2.248,0,0,1,4.43,0,2.248,2.248,0,0,1-4.43,0Z" transform="translate(-513.6 -12.5)"/>
            <path id="Path_75" data-name="Path 75" d="M560.9,14.363a2.248,2.248,0,0,1,4.43,0,2.248,2.248,0,0,1-4.43,0Z" transform="translate(-554.737 -12.5)"/>
            <path id="Path_76" data-name="Path 76" d="M608.2,14.363a2.248,2.248,0,0,1,4.43,0,2.248,2.248,0,0,1-4.43,0Z" transform="translate(-595.873 -12.5)"/>
            <path id="Path_77" data-name="Path 77" d="M655.5,14.363a2.248,2.248,0,0,1,4.431,0,2.061,2.061,0,0,1-2.216,1.863A2.088,2.088,0,0,1,655.5,14.363Z" transform="translate(-637.009 -12.5)"/>
            <path id="Path_78" data-name="Path 78" d="M544.8,56.763a2.248,2.248,0,1,1,2.215,1.863A2.061,2.061,0,0,1,544.8,56.763Z" transform="translate(-540.734 -49.375)"/>
            <path id="Path_79" data-name="Path 79" d="M592.1,56.763a2.248,2.248,0,1,1,2.215,1.863A2.061,2.061,0,0,1,592.1,56.763Z" transform="translate(-581.871 -49.375)"/>
            <path id="Path_80" data-name="Path 80" d="M639.4,56.763a2.248,2.248,0,1,1,2.215,1.863A2.061,2.061,0,0,1,639.4,56.763Z" transform="translate(-623.007 -49.375)"/>
            <path id="Path_81" data-name="Path 81" d="M686.8,56.763a2.248,2.248,0,1,1,2.215,1.863A2.061,2.061,0,0,1,686.8,56.763Z" transform="translate(-664.23 -49.375)"/>
            <path id="Path_82" data-name="Path 82" d="M576,99.263a2.248,2.248,0,1,1,2.215,1.863A2.061,2.061,0,0,1,576,99.263Z" transform="translate(-567.869 -86.337)"/>
            <path id="Path_83" data-name="Path 83" d="M623.4,99.263a2.248,2.248,0,1,1,2.215,1.863A2.061,2.061,0,0,1,623.4,99.263Z" transform="translate(-609.092 -86.337)"/>
            <path id="Path_84" data-name="Path 84" d="M670.7,99.263a2.248,2.248,0,1,1,2.215,1.863A2.061,2.061,0,0,1,670.7,99.263Z" transform="translate(-650.228 -86.337)"/>
            <path id="Path_85" data-name="Path 85" d="M718,99.263a2.248,2.248,0,1,1,2.215,1.863A2.061,2.061,0,0,1,718,99.263Z" transform="translate(-691.365 -86.337)"/>
            <path id="Path_86" data-name="Path 86" d="M654.6,141.763a2.248,2.248,0,1,1,2.215,1.863A2.061,2.061,0,0,1,654.6,141.763Z" transform="translate(-636.226 -123.299)"/>
            <path id="Path_87" data-name="Path 87" d="M701.9,141.763a2.248,2.248,0,1,1,2.215,1.863A2.061,2.061,0,0,1,701.9,141.763Z" transform="translate(-677.363 -123.299)"/>
            <path id="Path_88" data-name="Path 88" d="M749.2,141.763a2.248,2.248,0,1,1,2.215,1.863A2.061,2.061,0,0,1,749.2,141.763Z" transform="translate(-718.5 -123.299)"/>
            <path id="Path_89" data-name="Path 89" d="M638.5,184.163a2.248,2.248,0,1,1,2.215,1.863A2.061,2.061,0,0,1,638.5,184.163Z" transform="translate(-622.224 -160.174)"/>
            <path id="Path_90" data-name="Path 90" d="M685.8,184.163a2.248,2.248,0,1,1,2.215,1.863A2.061,2.061,0,0,1,685.8,184.163Z" transform="translate(-663.361 -160.174)"/>
            <path id="Path_91" data-name="Path 91" d="M733.1,184.163a2.249,2.249,0,1,1,2.215,1.863A2.061,2.061,0,0,1,733.1,184.163Z" transform="translate(-704.497 -160.174)"/>
            <path id="Path_92" data-name="Path 92" d="M780.4,184.163a2.249,2.249,0,1,1,2.215,1.863A2.061,2.061,0,0,1,780.4,184.163Z" transform="translate(-745.634 -160.174)"/>
            <path id="Path_93" data-name="Path 93" d="M513.6,354.063a2.248,2.248,0,1,0,2.215-1.863A2.061,2.061,0,0,0,513.6,354.063Z" transform="translate(-513.6 -307.934)"/>
            <path id="Path_94" data-name="Path 94" d="M560.9,354.063a2.248,2.248,0,1,0,2.215-1.863A2.061,2.061,0,0,0,560.9,354.063Z" transform="translate(-554.737 -307.934)"/>
            <path id="Path_95" data-name="Path 95" d="M608.2,354.063a2.248,2.248,0,1,0,2.215-1.863A2.061,2.061,0,0,0,608.2,354.063Z" transform="translate(-595.873 -307.934)"/>
            <path id="Path_96" data-name="Path 96" d="M655.5,354.063a2.248,2.248,0,1,0,2.215-1.863A2.061,2.061,0,0,0,655.5,354.063Z" transform="translate(-637.009 -307.934)"/>
            <path id="Path_97" data-name="Path 97" d="M544.8,311.563a2.248,2.248,0,1,0,2.215-1.863A2.061,2.061,0,0,0,544.8,311.563Z" transform="translate(-540.734 -270.972)"/>
            <path id="Path_98" data-name="Path 98" d="M592.1,311.563a2.248,2.248,0,1,0,2.215-1.863A2.061,2.061,0,0,0,592.1,311.563Z" transform="translate(-581.871 -270.972)"/>
            <path id="Path_99" data-name="Path 99" d="M639.4,311.563a2.248,2.248,0,1,0,2.215-1.863A2.061,2.061,0,0,0,639.4,311.563Z" transform="translate(-623.007 -270.972)"/>
            <path id="Path_100" data-name="Path 100" d="M686.8,311.563a2.248,2.248,0,1,0,2.215-1.863A2.061,2.061,0,0,0,686.8,311.563Z" transform="translate(-664.23 -270.972)"/>
            <path id="Path_101" data-name="Path 101" d="M623.4,269.063a2.248,2.248,0,1,0,2.215-1.863A2.061,2.061,0,0,0,623.4,269.063Z" transform="translate(-609.092 -234.01)"/>
            <path id="Path_102" data-name="Path 102" d="M670.7,269.063a2.248,2.248,0,1,0,2.215-1.863A2.061,2.061,0,0,0,670.7,269.063Z" transform="translate(-650.228 -234.01)"/>
            <path id="Path_103" data-name="Path 103" d="M718,269.063a2.248,2.248,0,1,0,2.215-1.863A2.061,2.061,0,0,0,718,269.063Z" transform="translate(-691.365 -234.01)"/>
            <path id="Path_104" data-name="Path 104" d="M654.6,226.663a2.248,2.248,0,1,0,2.215-1.863A2.061,2.061,0,0,0,654.6,226.663Z" transform="translate(-636.226 -197.135)"/>
            <path id="Path_105" data-name="Path 105" d="M701.9,226.663a2.248,2.248,0,1,0,2.215-1.863A2.061,2.061,0,0,0,701.9,226.663Z" transform="translate(-677.363 -197.135)"/>
            <path id="Path_106" data-name="Path 106" d="M749.2,226.663a2.248,2.248,0,1,0,2.215-1.863A2.061,2.061,0,0,0,749.2,226.663Z" transform="translate(-718.5 -197.135)"/>
          </g>
          <path id="Path_107" data-name="Path 107" d="M505.071,143.9h-10.19c-.208,0-.625.052-.834.078a7.369,7.369,0,0,0-6.177,6.138,5.124,5.124,0,0,0,.026,1.486,4.584,4.584,0,0,0,4.47,4.053,4.137,4.137,0,0,0,.7.026h3.792a.013.013,0,0,0,.013.013,1.805,1.805,0,0,1,.378.013,1.853,1.853,0,0,1,1.8,1.629,2.291,2.291,0,0,1,.013.6,3.131,3.131,0,0,1-2.893,2.489,2.142,2.142,0,0,0-.287.026h-9.851l-.795,2.528a.013.013,0,0,1-.013.013l-.156.508-.065.235h0l-.026.1a.066.066,0,0,0,.065.091H496.3c.208,0,.625-.052.834-.078a7.369,7.369,0,0,0,6.177-6.138,6.24,6.24,0,0,0-.026-1.486,4.583,4.583,0,0,0-4.469-4.053,5.229,5.229,0,0,0-.782-.026h-3.7a.013.013,0,0,0-.013-.013,1.8,1.8,0,0,1-.378-.013,1.853,1.853,0,0,1-1.8-1.629,2.3,2.3,0,0,1-.013-.6,2.833,2.833,0,0,1,2.7-2.4,2.123,2.123,0,0,0,.287-.026h8.952L505.1,144.2h0l.013-.052.039-.1h0l.013-.039A.093.093,0,0,0,505.071,143.9Z" transform="translate(-424.586 -126.777)"/>
          <path id="Path_108" data-name="Path 108" d="M37.491,116.659h-.378a.262.262,0,0,1-.169-.052.134.134,0,0,1-.013-.156h0l1.173-2.124a2.349,2.349,0,0,1,.4-.56,2.7,2.7,0,0,1,1.629-.782h0a18.189,18.189,0,0,1,2.241-.1H53.9l1.212-3.935.091-.287a.066.066,0,0,0-.065-.091H32.722a36.31,36.31,0,0,0-4.626.222v.013a5.651,5.651,0,0,0-3.375,1.629,4.373,4.373,0,0,0-.834,1.147l-2.254,4.209-.013.026a.688.688,0,0,0,.078.743,1.117,1.117,0,0,0,.782.235h9.8l-4.027,13.135-.013.052a2.348,2.348,0,0,0,.678,2.319,3.105,3.105,0,0,0,2.215.912h7.519l5.069-16.549Z" transform="translate(-21.548 -96.045)"/>
          <path id="Path_109" data-name="Path 109" d="M225.764,153.981a4.894,4.894,0,0,0-.612-.391c-.117-.065-.235-.117-.352-.169a6.059,6.059,0,0,0,2.893-3.818,4.934,4.934,0,0,0,.065-1.629,5.02,5.02,0,0,0-4.874-4.053c-.248-.026-.782-.026-.782-.026h-10.06c-1.3,0-1.446-.052-2.176.73-.156.169-.274.313-.274.313L194.7,160.7a.388.388,0,0,1-.2.091.217.217,0,0,1-.222-.208l4.027-13.2h-4.3l-4.769,15.6V163l-.261.847a.066.066,0,0,0,.065.091H197.4l14.66-16.484h9.3s.43,0,.547.013a1.853,1.853,0,0,1,1.8,1.629,2.293,2.293,0,0,1,.013.6c-.143,1.3-1.942,2.424-3.3,2.489a2.543,2.543,0,0,0-.3.026h-2.5l-1.082,3.479h4.235a.013.013,0,0,0,.013.013,1.8,1.8,0,0,1,.378.013,1.776,1.776,0,0,1,1.72,1.629,2.3,2.3,0,0,1,.013.6A3.131,3.131,0,0,1,220,160.431a2.123,2.123,0,0,0-.287.026h-6.111l3.388-11.037h-4.665l-4.4,14.334h0l-.026.091a.066.066,0,0,0,.065.091H220.2c.039,0,.847,0,.99-.013,3.44-.169,6.346-2.762,6.5-5.8a4.494,4.494,0,0,0-.143-1.394A4.576,4.576,0,0,0,225.764,153.981Z" transform="translate(-167.157 -126.773)"/>
        </g>
      </g>
      <g id="Group_48" data-name="Group 48" transform="translate(5.662 39.484)">
        <path id="Path_110" data-name="Path 110" d="M108.646,395.1l-1.446.391a26.652,26.652,0,0,1,.938,3.049l1.472-.573C109.376,397.094,109.037,396.129,108.646,395.1Z" transform="translate(-101.701 -384.727)"/>
        <path id="Path_111" data-name="Path 111" d="M108.646,395.1l-1.446.391a26.652,26.652,0,0,1,.938,3.049l1.472-.573C109.376,397.094,109.037,396.129,108.646,395.1Z" transform="translate(-101.701 -384.727)"/>
        <path id="Path_112" data-name="Path 112" d="M66.512,395.8A12.394,12.394,0,0,1,65,399.657l1.459.925a16.782,16.782,0,0,0,1.629-4.443Z" transform="translate(-65 -385.336)"/>
        <path id="Path_113" data-name="Path 113" d="M66.512,395.8A12.394,12.394,0,0,1,65,399.657l1.459.925a16.782,16.782,0,0,0,1.629-4.443Z" transform="translate(-65 -385.336)"/>
        <path id="Path_114" data-name="Path 114" d="M124.819,320.137a18.727,18.727,0,0,0,4.73-.86l-.86-1.577a15.79,15.79,0,0,1-5.564,1v7.271a10.791,10.791,0,0,1-1.525,5.786l1.264,1.329a13.034,13.034,0,0,0,1.968-7.115v-1.59h1.811v8.731h1.733v-8.731h1.538V322.73h-5.082v-2.593Z" transform="translate(-114.225 -317.413)"/>
        <path id="Path_115" data-name="Path 115" d="M124.819,320.137a18.727,18.727,0,0,0,4.73-.86l-.86-1.577a15.79,15.79,0,0,1-5.564,1v7.271a10.791,10.791,0,0,1-1.525,5.786l1.264,1.329a13.034,13.034,0,0,0,1.968-7.115v-1.59h1.811v8.731h1.733v-8.731h1.538V322.73h-5.082v-2.593Z" transform="translate(-114.225 -317.413)"/>
        <path id="Path_116" data-name="Path 116" d="M74.975,344.769h-2.75v-1.355h3.036v-1.59H73.633c.222-.482.417-1,.625-1.577l-1.564-.547a20.227,20.227,0,0,1-.652,2.124H70.571a20.063,20.063,0,0,0-.717-2.124l-1.551.573a9.213,9.213,0,0,1,.7,1.538H67.3v1.59h3.18v1.355H67.574v1.59h2.919v3.974c0,.313-.2.482-.573.482a3.056,3.056,0,0,1-.691-.117l.391,1.616h.873c1.16,0,1.746-.521,1.746-1.564v-4.391h2.749v-1.577Z" transform="translate(-67 -336.547)"/>
        <path id="Path_117" data-name="Path 117" d="M74.975,344.769h-2.75v-1.355h3.036v-1.59H73.633c.222-.482.417-1,.625-1.577l-1.564-.547a20.227,20.227,0,0,1-.652,2.124H70.571a20.063,20.063,0,0,0-.717-2.124l-1.551.573a9.213,9.213,0,0,1,.7,1.538H67.3v1.59h3.18v1.355H67.574v1.59h2.919v3.974c0,.313-.2.482-.573.482a3.056,3.056,0,0,1-.691-.117l.391,1.616h.873c1.16,0,1.746-.521,1.746-1.564v-4.391h2.749v-1.577Z" transform="translate(-67 -336.547)"/>
        <path id="Path_118" data-name="Path 118" d="M76.288,316.96H73.239c-.2-.534-.391-1.03-.586-1.46l-1.811.3a8.929,8.929,0,0,1,.652,1.16H68.6v1.616h7.7V316.96Z" transform="translate(-68.131 -315.5)"/>
        <path id="Path_119" data-name="Path 119" d="M76.288,316.96H73.239c-.2-.534-.391-1.03-.586-1.46l-1.811.3a8.929,8.929,0,0,1,.652,1.16H68.6v1.616h7.7V316.96Z" transform="translate(-68.131 -315.5)"/>
        <path id="Path_120" data-name="Path 120" d="M235.1,371.034c-.43.039-.873.078-1.342.117v-4.079h1.472V365.6h-9.056v1.472h1.212v4.457c-.417,0-.86.013-1.29.052l.2,1.525c2.1-.1,4.053-.222,5.89-.365V374.3h1.577V372.61l1.342-.13Zm-2.919.235c-1,.065-2.085.117-3.219.182v-.717h3.219Zm0-1.746h-3.219v-.652h3.219Zm0-1.824h-3.219v-.625h3.219Z" transform="translate(-205.107 -359.072)"/>
        <path id="Path_121" data-name="Path 121" d="M235.1,371.034c-.43.039-.873.078-1.342.117v-4.079h1.472V365.6h-9.056v1.472h1.212v4.457c-.417,0-.86.013-1.29.052l.2,1.525c2.1-.1,4.053-.222,5.89-.365V374.3h1.577V372.61l1.342-.13Zm-2.919.235c-1,.065-2.085.117-3.219.182v-.717h3.219Zm0-1.746h-3.219v-.652h3.219Zm0-1.824h-3.219v-.625h3.219Z" transform="translate(-205.107 -359.072)"/>
        <path id="Path_122" data-name="Path 122" d="M266.2,325.973h4.9v7.649c0,.4-.2.625-.573.625-.417,0-.873-.039-1.368-.078l.4,1.538c.521.039,1.055.065,1.59.065,1.121,0,1.694-.534,1.694-1.616V320.8H266.2Zm1.746-3.857H271.1v.639h-3.154Zm0,1.811H271.1v.769h-3.154Z" transform="translate(-239.982 -320.109)"/>
        <path id="Path_123" data-name="Path 123" d="M266.2,325.973h4.9v7.649c0,.4-.2.625-.573.625-.417,0-.873-.039-1.368-.078l.4,1.538c.521.039,1.055.065,1.59.065,1.121,0,1.694-.534,1.694-1.616V320.8H266.2Zm1.746-3.857H271.1v.639h-3.154Zm0,1.811H271.1v.769h-3.154Z" transform="translate(-239.982 -320.109)"/>
        <path id="Path_124" data-name="Path 124" d="M212.711,320.8H206v14.985h1.746v-9.838h4.965Zm-1.746,3.87h-3.219v-.756h3.219Zm0-1.916h-3.219v-.665h3.219Z" transform="translate(-187.626 -320.109)"/>
        <path id="Path_125" data-name="Path 125" d="M212.711,320.8H206v14.985h1.746v-9.838h4.965Zm-1.746,3.87h-3.219v-.756h3.219Zm0-1.916h-3.219v-.665h3.219Z" transform="translate(-187.626 -320.109)"/>
        <path id="Path_126" data-name="Path 126" d="M340.267,322.242a13.442,13.442,0,0,1-1.512,2.32,1.934,1.934,0,0,1-.717.456l.417,1.446a20.461,20.461,0,0,0,3.727-.808l.13.717,1.29-.313a30.051,30.051,0,0,0-.821-3.414l-1.238.4c.13.43.247.9.365,1.407-.547.13-1.108.248-1.655.352a39.446,39.446,0,0,0,3.258-5.434L342,318.8c-.339.7-.651,1.355-.951,1.981l-1.238.2a26.068,26.068,0,0,0,2.1-4.339l-1.59-.639a30.042,30.042,0,0,1-1.616,4.4,1.6,1.6,0,0,1-.7.625l.417,1.525C339.042,322.45,339.655,322.346,340.267,322.242Z" transform="translate(-302.426 -315.935)"/>
        <path id="Path_127" data-name="Path 127" d="M340.267,322.242a13.442,13.442,0,0,1-1.512,2.32,1.934,1.934,0,0,1-.717.456l.417,1.446a20.461,20.461,0,0,0,3.727-.808l.13.717,1.29-.313a30.051,30.051,0,0,0-.821-3.414l-1.238.4c.13.43.247.9.365,1.407-.547.13-1.108.248-1.655.352a39.446,39.446,0,0,0,3.258-5.434L342,318.8c-.339.7-.651,1.355-.951,1.981l-1.238.2a26.068,26.068,0,0,0,2.1-4.339l-1.59-.639a30.042,30.042,0,0,1-1.616,4.4,1.6,1.6,0,0,1-.7.625l.417,1.525C339.042,322.45,339.655,322.346,340.267,322.242Z" transform="translate(-302.426 -315.935)"/>
        <path id="Path_128" data-name="Path 128" d="M402.961,372.124v-1.3h-2.789v-1.85h3.088V367.5H401.5c-.13-.547-.247-1.055-.391-1.5l-1.459.234c.169.391.313.808.456,1.251H398.1v1.473h.7v3.166Z" transform="translate(-354.694 -359.419)"/>
        <path id="Path_129" data-name="Path 129" d="M402.961,372.124v-1.3h-2.789v-1.85h3.088V367.5H401.5c-.13-.547-.247-1.055-.391-1.5l-1.459.234c.169.391.313.808.456,1.251H398.1v1.473h.7v3.166Z" transform="translate(-354.694 -359.419)"/>
        <path id="Path_130" data-name="Path 130" d="M369.381,333.71a21.27,21.27,0,0,0-.873-2.619l-1.108.391a26.88,26.88,0,0,1,.782,2.971l1.186-.547v2.124h1.59V322.738h5.981v11.1c0,.391-.156.586-.43.586l-2.046-.052.43,1.538H377c1.016,0,1.538-.574,1.538-1.707v-13h-9.187v12.51Z" transform="translate(-327.995 -320.457)"/>
        <path id="Path_131" data-name="Path 131" d="M369.381,333.71a21.27,21.27,0,0,0-.873-2.619l-1.108.391a26.88,26.88,0,0,1,.782,2.971l1.186-.547v2.124h1.59V322.738h5.981v11.1c0,.391-.156.586-.43.586l-2.046-.052.43,1.538H377c1.016,0,1.538-.574,1.538-1.707v-13h-9.187v12.51Z" transform="translate(-327.995 -320.457)"/>
        <path id="Path_132" data-name="Path 132" d="M354.5,401.061c.182,1,.339,2.163.456,3.466l1.394-.313c-.183-1.238-.4-2.385-.639-3.414Z" transform="translate(-316.776 -389.685)"/>
        <path id="Path_133" data-name="Path 133" d="M354.5,401.061c.182,1,.339,2.163.456,3.466l1.394-.313c-.183-1.238-.4-2.385-.639-3.414Z" transform="translate(-316.776 -389.685)"/>
        <path id="Path_134" data-name="Path 134" d="M337.1,405.257l1.394.43a21.51,21.51,0,0,0,.534-4.1l-1.355-.182A18.373,18.373,0,0,1,337.1,405.257Z" transform="translate(-301.643 -390.206)"/>
        <path id="Path_135" data-name="Path 135" d="M337.1,405.257l1.394.43a21.51,21.51,0,0,0,.534-4.1l-1.355-.182A18.373,18.373,0,0,1,337.1,405.257Z" transform="translate(-301.643 -390.206)"/>
        <path id="Path_136" data-name="Path 136" d="M397.213,340.014h5.343v-1.473h-1.134a9.1,9.1,0,0,0,.6-2.046l-1.407-.2a13.015,13.015,0,0,1-.508,2.241h-1.3l.808-.365a15.262,15.262,0,0,0-.808-1.811l-1.212.417a12.479,12.479,0,0,1,.769,1.759H397.2v1.473Z" transform="translate(-353.911 -333.589)"/>
        <path id="Path_137" data-name="Path 137" d="M397.213,340.014h5.343v-1.473h-1.134a9.1,9.1,0,0,0,.6-2.046l-1.407-.2a13.015,13.015,0,0,1-.508,2.241h-1.3l.808-.365a15.262,15.262,0,0,0-.808-1.811l-1.212.417a12.479,12.479,0,0,1,.769,1.759H397.2v1.473Z" transform="translate(-353.911 -333.589)"/>
      </g>
    </g>
    <rect id="Rectangle_142" data-name="Rectangle 142" width="112" height="63" transform="translate(2956 -102)" opacity="0.003"/>
  </g>
</svg>
