<svg xmlns="http://www.w3.org/2000/svg" width="40.099" height="38.956" viewBox="0 0 40.099 38.956">
  <g id="Group_14852" data-name="Group 14852" transform="translate(-510 -1777.522)">
    <path id="Path_147" data-name="Path 147" d="M29.966,7.169l-.176,0a10.142,10.142,0,0,0-19.4,0q-.131,0-.262,0A10.107,10.107,0,0,0,4.285,25.538a10.134,10.134,0,0,0,15.721,11.35A10.12,10.12,0,0,0,35.741,25.58,10.1,10.1,0,0,0,29.966,7.169" transform="translate(510 1777.522)" fill="#fff"/>
    <path id="Path_146" data-name="Path 146" d="M47.967,27.1a8.346,8.346,0,0,0-1.526.141,8.326,8.326,0,0,0-16.511.015A8.327,8.327,0,0,0,20,35.392a8.277,8.277,0,0,0,4.711,7.48A8.316,8.316,0,0,0,38.1,52.508,8.311,8.311,0,0,0,51.508,42.9a8.291,8.291,0,0,0-3.54-15.8" transform="translate(492 1759.522)" fill="#007a36"/>
    <path id="Path_145" data-name="Path 145" d="M72.479,53.514A6.534,6.534,0,0,0,62.66,47.9a6.53,6.53,0,1,0-12.743.056A6.512,6.512,0,1,0,45.83,59.98,6.516,6.516,0,1,0,56.2,67.353a6.525,6.525,0,1,0,10.376-7.365,6.514,6.514,0,0,0,5.906-6.474" transform="translate(474 1741.522)" fill="#fff"/>
    <path id="Path_107033" data-name="Path 107033" d="M4.3-10.192A3.413,3.413,0,0,0,1.9-9.366,3.26,3.26,0,0,0,.8-7.042H2.3a2.063,2.063,0,0,1,.6-1.386A2.024,2.024,0,0,1,4.312-8.89a1.969,1.969,0,0,1,1.358.406A1.508,1.508,0,0,1,6.1-7.336a1.466,1.466,0,0,1-.476,1.162,2.073,2.073,0,0,1-1.386.406H3.528V-4.62h.728a2.3,2.3,0,0,1,1.5.42A1.539,1.539,0,0,1,6.3-2.9a1.69,1.69,0,0,1-.518,1.246,2.2,2.2,0,0,1-1.554.56A2.022,2.022,0,0,1,2.8-1.6,2.057,2.057,0,0,1,2.142-3.15H.6A3.524,3.524,0,0,0,1.778-.588,3.714,3.714,0,0,0,4.242.2,3.855,3.855,0,0,0,6.86-.7a2.969,2.969,0,0,0,.952-2.268,2.118,2.118,0,0,0-.5-1.456A2.794,2.794,0,0,0,5.964-5.25a2.168,2.168,0,0,0,1.652-2.2,2.494,2.494,0,0,0-.9-2.016A3.755,3.755,0,0,0,4.3-10.192Zm9.672,1.1v2.015H10.9V-9.087ZM10.9-5.915H13.97V-3.9H10.9ZM13.97-2.743V1.339h1.2V-2.743h3.172v.663h1.2v-8.164H9.706V-2.08h1.2v-.663Zm1.2-1.157V-5.915h3.172V-3.9Zm3.172-3.172H15.166V-9.087h3.172Z" transform="translate(520 1803)"/>
  </g>
</svg>
