<svg id="Component_2_86" data-name="Component 2 – 86" xmlns="http://www.w3.org/2000/svg" width="40.099" height="38.956" viewBox="0 0 40.099 38.956">
  <g id="Group_394" data-name="Group 394">
    <g id="Group_395" data-name="Group 395">
      <path id="Path_147" data-name="Path 147" d="M29.966,7.169l-.176,0a10.142,10.142,0,0,0-19.4,0q-.131,0-.262,0A10.107,10.107,0,0,0,4.285,25.538a10.134,10.134,0,0,0,15.721,11.35A10.12,10.12,0,0,0,35.741,25.58,10.1,10.1,0,0,0,29.966,7.169" fill="#fff"/>
      <path id="Path_146" data-name="Path 146" d="M47.967,27.1a8.346,8.346,0,0,0-1.526.141,8.326,8.326,0,0,0-16.511.015A8.327,8.327,0,0,0,20,35.392a8.277,8.277,0,0,0,4.711,7.48A8.316,8.316,0,0,0,38.1,52.508,8.311,8.311,0,0,0,51.508,42.9a8.291,8.291,0,0,0-3.54-15.8" transform="translate(-18 -18)" fill="#007a36"/>
      <path id="Path_145" data-name="Path 145" d="M72.479,53.514A6.534,6.534,0,0,0,62.66,47.9a6.53,6.53,0,1,0-12.743.056A6.512,6.512,0,1,0,45.83,59.98,6.516,6.516,0,1,0,56.2,67.353a6.525,6.525,0,1,0,10.376-7.365,6.514,6.514,0,0,0,5.906-6.474" transform="translate(-36 -36)" fill="#fff"/>
    </g>
  </g>
  <path id="Path_98706" data-name="Path 98706" d="M-.874-5.263c1.634,0,2.47.57,2.47,1.691,0,.969-.7,1.729-2.47,1.729a6.15,6.15,0,0,1-3.021-.8c-.076-.038-.171,0-.171.076V-.684c0,.095.019.209.114.247A6.681,6.681,0,0,0-.8.19c2.6,0,4.75-1.311,4.75-3.705a3,3,0,0,0-2.3-2.964A2.758,2.758,0,0,0,3.382-9.006c0-1.919-1.5-3.211-3.952-3.211a6.794,6.794,0,0,0-3.211.741c-.114.057-.1.1-.1.19v1.748c0,.076.019.114.133.076a5.412,5.412,0,0,1,2.736-.722C.437-10.184,1.14-9.6,1.14-8.7c0,.95-.8,1.406-2.185,1.406H-2c-.095,0-.114.057-.114.171V-5.4c0,.1.038.133.133.133Z" transform="translate(20 27)"/>
</svg>
