<svg id="Component_2_89" data-name="Component 2 – 89" xmlns="http://www.w3.org/2000/svg" width="40.099" height="38.956" viewBox="0 0 40.099 38.956">
  <g id="Group_394" data-name="Group 394">
    <g id="Group_395" data-name="Group 395">
      <path id="Path_147" data-name="Path 147" d="M29.966,7.169l-.176,0a10.142,10.142,0,0,0-19.4,0q-.131,0-.262,0A10.107,10.107,0,0,0,4.285,25.538a10.134,10.134,0,0,0,15.721,11.35A10.12,10.12,0,0,0,35.741,25.58,10.1,10.1,0,0,0,29.966,7.169" fill="#fff"/>
      <path id="Path_146" data-name="Path 146" d="M47.967,27.1a8.346,8.346,0,0,0-1.526.141,8.326,8.326,0,0,0-16.511.015A8.327,8.327,0,0,0,20,35.392a8.277,8.277,0,0,0,4.711,7.48A8.316,8.316,0,0,0,38.1,52.508,8.311,8.311,0,0,0,51.508,42.9a8.291,8.291,0,0,0-3.54-15.8" transform="translate(-18 -18)" fill="#007a36"/>
      <path id="Path_145" data-name="Path 145" d="M72.479,53.514A6.534,6.534,0,0,0,62.66,47.9a6.53,6.53,0,1,0-12.743.056A6.512,6.512,0,1,0,45.83,59.98,6.516,6.516,0,1,0,56.2,67.353a6.525,6.525,0,1,0,10.376-7.365,6.514,6.514,0,0,0,5.906-6.474" transform="translate(-36 -36)" fill="#fff"/>
    </g>
  </g>
  <path id="Path_98708" data-name="Path 98708" d="M-3.8,0c.076,0,.114-.038.114-.133V-11.97c0-.095-.019-.133-.095-.133H-5.092a.5.5,0,0,0-.285.076,9.417,9.417,0,0,1-2.641,1.14c-.1.019-.114.057-.114.152V-9.12c0,.114.038.133.152.114a7.769,7.769,0,0,0,2-.684V-.133c0,.095.038.133.152.133ZM3.211-10.279c1.406,0,2.128,1.33,2.128,4.218,0,2.774-.627,4.275-2.071,4.275S1.121-3.4,1.121-6.1C1.121-9.006,2-10.279,3.211-10.279ZM3.268.19C6.46.19,7.619-2.85,7.619-6.042c0-2.888-.874-6.175-4.37-6.175-2.85,0-4.427,2.641-4.427,6.175C-1.178-2.565.133.19,3.268.19Z" transform="translate(20 27)"/>
</svg>
