<svg xmlns="http://www.w3.org/2000/svg" xmlns:xlink="http://www.w3.org/1999/xlink" width="428" height="100" viewBox="0 0 428 100">
  <defs>
    <clipPath id="clip-path">
      <rect id="Rectangle_10755" data-name="Rectangle 10755" width="428" height="100" fill="none"/>
    </clipPath>
    <linearGradient id="linear-gradient" x1="0.5" y1="0.122" x2="0.5" y2="1.316" gradientUnits="objectBoundingBox">
      <stop offset="0.34" stop-color="#cfcfd1"/>
      <stop offset="0.64" stop-color="#c1c3cb"/>
      <stop offset="1" stop-color="#abb0c1"/>
    </linearGradient>
    <linearGradient id="linear-gradient-2" x1="0.5" y1="0.121" x2="0.5" y2="1.313" xlink:href="#linear-gradient"/>
  </defs>
  <g id="旅遊景點-手機版" style="mix-blend-mode: normal;isolation: isolate">
    <g id="圖層_1" data-name="圖層 1">
      <rect id="Rectangle_10687" data-name="Rectangle 10687" width="428" height="100" fill="#8cd3d1"/>
      <g id="Group_14972" data-name="Group 14972" clip-path="url(#clip-path)">
        <path id="Path_106744" data-name="Path 106744" d="M97.38,104.17H59.19a1.29,1.29,0,0,1-1.29-1.28h0a1.29,1.29,0,0,1,1.29-1.29H97.38a1.29,1.29,0,0,1,1.28,1.29h0A1.29,1.29,0,0,1,97.38,104.17Z" fill="#428921"/>
        <path id="Path_106745" data-name="Path 106745" d="M84.5,80l-5.89,2.64L72.72,80l-9.76,2.36,1.57,3.56.74.47,1.25-.65,6.24-.28h11.7l6.24.28,1.25.65.74-.47,1.57-3.56Z" fill="#d6d7d2"/>
        <path id="Path_106746" data-name="Path 106746" d="M62.78,81.92l3.12.55h5.16l.93-1.32.97,1.38,5.93.04v.79L77.6,84.61H76.31l-.91-.92-.79.97-1.39.01-.77-.86-.64.88-1.26.06-.89-.83-.66.9-1.36.07-.77-.85-.44,1.01-.47.12-.68-.82.07,1.15-.26.11-.61-.72.4.91-.56-.36Z" fill="#949496"/>
        <path id="Path_106747" data-name="Path 106747" d="M94.41,81.96l-3.09.54-4.4-.07-1.69-1.25-.97,1.38h-5.8l-.13.83,1.29,1.25h1.29l.91-.92.59.99H84l.77-.87.52.89,1.38.05.89-.82.66.89,1.36.07.77-.85.44,1.01.47.12.68-.82-.07,1.15.26.11.61-.72-.4.91.54-.35Z" fill="#949496"/>
        <path id="Path_106748" data-name="Path 106748" d="M61.25,82.15a4.54,4.54,0,0,1,1.44,3.4l1.84.37L63,82.45Z" fill="#6e7374"/>
        <path id="Path_106749" data-name="Path 106749" d="M95.8,82.19a4.61,4.61,0,0,0-1.29,3.36l-1.85.37,1.51-3.4Z" fill="#6e7374"/>
        <path id="Path_106750" data-name="Path 106750" d="M61.22,81.63v.56l4.81.83H71.1l.92-1.29.95,1.35,11.09.06,1.08-1.38,1.29,1.38,5-.03,4.37-.92.09-.56L83.26,78.78Z" fill="#fff"/>
        <path id="Path_106751" data-name="Path 106751" d="M80.87,73.39h-4a54.24,54.24,0,0,1-15.69,8.24l5.13.73h4.36L72,80.86l1.59,1.7h9.93l1.59-1.7,1.3,1.54h4.35l5.13-.73a45.81,45.81,0,0,1-15.02-8.28Z" fill="#0096b6"/>
        <path id="Path_106752" data-name="Path 106752" d="M72.81,80a16.29,16.29,0,0,0,5.09-6.6H76.82S76.54,75.84,72.81,80Z" fill="#005b67"/>
        <path id="Path_106753" data-name="Path 106753" d="M79.4,73.38s-.24,1.92,5.72,7.48l-.2.25s-5.82-4.65-6.32-7.72Z" fill="#005b67"/>
        <path id="Path_106754" data-name="Path 106754" d="M72,80.86s4.45-1.4,6.15-7.47h.32A9.72,9.72,0,0,1,72,80.86Z" fill="#005b67"/>
        <path id="Path_106755" data-name="Path 106755" d="M61.22,81.63S70.77,80,76.91,73.39h.41S74,79,61.22,81.63Z" fill="#005b67"/>
        <path id="Path_106756" data-name="Path 106756" d="M95.89,81.63S86.34,80,80.2,73.39h-.41S83.08,79,95.89,81.63Z" fill="#005b67"/>
        <path id="Path_106757" data-name="Path 106757" d="M83.71,73.81l-5.1,2.29L73.5,73.81l-8.44,2.05,1.36,3.08.64.4,1.08-.56,5.4-.24H83.67l5.41.24,1.08.56.64-.4,1.36-3.08Z" fill="#d6d7d2"/>
        <path id="Path_106758" data-name="Path 106758" d="M63.57,75.67a3.93,3.93,0,0,1,1.25,3l1.6.32-1.31-3Z" fill="#6e7374"/>
        <path id="Path_106759" data-name="Path 106759" d="M93.62,75.67a4,4,0,0,0-1.24,3l-1.6.32,1.3-3Z" fill="#6e7374"/>
        <path id="Path_106760" data-name="Path 106760" d="M75.25,78.98h7.5l-.42-.43H75.6Z" fill="#005b67"/>
        <path id="Path_106761" data-name="Path 106761" d="M68.14,78.78l6-.26s-2.72,2.54-11.56,2.83C62.57,81.35,67.24,79.94,68.14,78.78Z" fill="#005b67"/>
        <path id="Path_106762" data-name="Path 106762" d="M65.11,75.93l2.64.46h4.41l.8-1.12.82,1.17,5.07.03v.69l-1.1,1.06h-1.1l-.78-.78-.5.84H74l-.66-.74-.44.76-1.18.04-.76-.7-.56.76-1.16.06-.66-.72-.38.86-.4.1-.58-.7.06.98-.22.1-.52-.62.34.78-.46-.3Z" fill="#949496"/>
        <path id="Path_106763" data-name="Path 106763" d="M92.11,75.96l-2.64.46-3.75-.06-1.46-1.07-.82,1.18H78.48l-.11.71,1.1,1.06h1.1l.78-.78.51.84h1.36l.66-.74.44.76,1.18.04.76-.7.56.76,1.16.06.66-.72.38.86.4.1.58-.7-.06.98.22.1.52-.62-.34.79.46-.31Z" fill="#949496"/>
        <path id="Path_106764" data-name="Path 106764" d="M79.57,66.64l-.87-.08h-.21l-.87.08s0,.38-.57.76l.08.62h2.93l.08-.62C79.56,67,79.57,66.64,79.57,66.64Z" fill="#ffde67"/>
        <path id="Path_106765" data-name="Path 106765" d="M80.31,64.67c-.1.71-.3,1.89-1.73,1.89S77,65.38,76.86,64.67c-.16-1,.56-1.73,1.72-1.73S80.44,63.69,80.31,64.67Z" fill="#ffde67"/>
        <path id="Path_106766" data-name="Path 106766" d="M79.76,63.28a3.31,3.31,0,0,1-1.18,3.27h0c1.43,0,1.62-1.18,1.73-1.89A1.41,1.41,0,0,0,79.76,63.28Z" fill="#fd8e1f"/>
        <path id="Path_106767" data-name="Path 106767" d="M79.59,66.71h0a4.61,4.61,0,0,0-2,0,.212.212,0,1,1-.11-.41,5,5,0,0,1,2.17,0,.21.21,0,0,1,0,.42Z" fill="#ffde67"/>
        <path id="Path_106768" data-name="Path 106768" d="M79.64,66.29a4.309,4.309,0,0,0-.67-.12.27.27,0,0,1-.13.43,4.84,4.84,0,0,1,.71.1h0a.21.21,0,0,0,0-.42Z" fill="#fd8e1f"/>
        <path id="Path_106769" data-name="Path 106769" d="M78.84,66.6a2.22,2.22,0,0,0,.55.8h.75s-.67-.43-.56-.89A2.64,2.64,0,0,1,78.84,66.6Z" fill="#fd8e1f"/>
        <path id="Path_106770" data-name="Path 106770" d="M77.13,67.43h3l-.08.58a7.36,7.36,0,0,0-2.92-.58Z" fill="#fd8e1f"/>
        <path id="Path_106771" data-name="Path 106771" d="M63.58,75.19v.48l4.17.72h4.41l.8-1.12.82,1.17,9.64.06.93-1.21,1.12,1.21,4.36-.03,3.79-.8.08-.48L82.73,72.7Z" fill="#fff"/>
        <path id="Path_106772" data-name="Path 106772" d="M80.08,68H77.2a47.14,47.14,0,0,1-13.63,7.17l4.46.63h3.79L73,74.52,74.33,76H83l1.38-1.47,1.13,1.33h3.78l4.46-.63A47.14,47.14,0,0,1,80.08,68Z" fill="#0096b6"/>
        <path id="Path_106773" data-name="Path 106773" d="M73.65,73.74A14.13,14.13,0,0,0,78.07,68h-.94S76.88,70.15,73.65,73.74Z" fill="#005b67"/>
        <path id="Path_106774" data-name="Path 106774" d="M79.37,68s-.21,1.67,5,6.5l-.2.2s-5-4-5.47-6.7Z" fill="#005b67"/>
        <path id="Path_106775" data-name="Path 106775" d="M73,74.52s3.86-1.22,5.34-6.5h.28A8.49,8.49,0,0,1,73,74.52Z" fill="#005b67"/>
        <path id="Path_106776" data-name="Path 106776" d="M63.57,75.19S71.87,73.74,77.2,68h.36S74.7,72.88,63.57,75.19Z" fill="#005b67"/>
        <path id="Path_106777" data-name="Path 106777" d="M93.7,75.19S85.4,73.74,80.07,68h-.36S82.57,72.88,93.7,75.19Z" fill="#005b67"/>
        <path id="Path_106778" data-name="Path 106778" d="M95.06,102.92H61.91L63.03,85.3H93.94Z" fill="#eaeee5"/>
        <path id="Path_106779" data-name="Path 106779" d="M69.38,88.77H62.57l-.64-.58H60.17l.89,1.73h8.33Z" fill="#fafff4"/>
        <path id="Path_106780" data-name="Path 106780" d="M69.39,89.92H61.4l-.02.22H69.4Z" fill="#949496"/>
        <path id="Path_106781" data-name="Path 106781" d="M61.03,90.14l-1.74,12.78H69.54L69.4,90.14Z" fill="#fafff4"/>
        <path id="Path_106782" data-name="Path 106782" d="M87.68,88.77h6.8l.64-.58h1.77L96,89.92H87.66Z" fill="#fafff4"/>
        <path id="Path_106783" data-name="Path 106783" d="M87.66,89.92h8l.02.22H87.66Z" fill="#949496"/>
        <path id="Path_106784" data-name="Path 106784" d="M96.03,90.14l1.74,12.78H87.52l.14-12.78Z" fill="#fafff4"/>
        <path id="Path_106785" data-name="Path 106785" d="M69.38,88.77l3.84.86v.96h-.8l.59.37,1.12,11.96H69.54Z" fill="#cdcdcf"/>
        <path id="Path_106786" data-name="Path 106786" d="M83.59,102.92H85l-.12-.84s1-.32-.12-.64v-9s.4-3.76-4.56-4.56l2.42,15Z" fill="#cdcdcf"/>
        <path id="Path_106787" data-name="Path 106787" d="M83.59,92.35a5.12,5.12,0,0,0-10.21,0v10.57H83.59Z" fill="#fafff4"/>
        <path id="Path_106788" data-name="Path 106788" d="M82.65,93.41a4.17,4.17,0,0,0-8.34,0v9.51h8.34Z" fill="#0096b6"/>
        <path id="Path_106789" data-name="Path 106789" d="M79.1,89.77a4.13,4.13,0,0,1,2.6.93,4.14,4.14,0,0,0-3.22-1.55,4.23,4.23,0,0,0-4.17,4.26v9.51h.62V94a4.23,4.23,0,0,1,4.17-4.23Z" fill="#005b67"/>
        <rect id="Rectangle_10688" data-name="Rectangle 10688" width="2.8" height="3.88" transform="translate(77.08 83.13)" fill="#fafff4"/>
        <rect id="Rectangle_10689" data-name="Rectangle 10689" width="1.94" height="2.92" transform="translate(77.51 83.61)" fill="#9d6e48"/>
        <path id="Path_106790" data-name="Path 106790" d="M79.45,86.53H77.62l.02-2.8,1.81-.08Z" fill="#d59562"/>
        <path id="Path_106791" data-name="Path 106791" d="M79.88,83.13l-.43.48H77.51v2.92l-.43.48V83.13Z" fill="#cdcdcf"/>
        <rect id="Rectangle_10690" data-name="Rectangle 10690" width="1.52" height="0.4" transform="translate(62.39 100.9)" fill="#cdcdcf"/>
        <rect id="Rectangle_10691" data-name="Rectangle 10691" width="1.52" height="0.4" transform="translate(92.05 101.99)" fill="#cdcdcf"/>
        <rect id="Rectangle_10692" data-name="Rectangle 10692" width="1.52" height="0.4" transform="translate(95.54 100.18)" fill="#cdcdcf"/>
        <rect id="Rectangle_10693" data-name="Rectangle 10693" width="1.52" height="0.4" transform="translate(93.14 101.02)" fill="#cdcdcf"/>
        <rect id="Rectangle_10694" data-name="Rectangle 10694" width="1.52" height="0.4" transform="translate(64.75 100.34)" fill="#cdcdcf"/>
        <rect id="Rectangle_10695" data-name="Rectangle 10695" width="1.52" height="0.4" transform="translate(59.78 101.87)" fill="#cdcdcf"/>
        <rect id="Rectangle_10696" data-name="Rectangle 10696" width="1.52" height="0.4" transform="translate(88.37 101.87)" fill="#cdcdcf"/>
        <rect id="Rectangle_10697" data-name="Rectangle 10697" width="1.52" height="0.4" transform="translate(66.51 101.67)" fill="#cdcdcf"/>
        <rect id="Rectangle_10698" data-name="Rectangle 10698" width="1.52" height="0.4" transform="translate(63.47 101.55)" fill="#aaaaac"/>
        <rect id="Rectangle_10699" data-name="Rectangle 10699" width="1.52" height="0.4" transform="translate(90.17 101.14)" fill="#aaaaac"/>
        <rect id="Rectangle_10700" data-name="Rectangle 10700" width="1.52" height="0.4" transform="translate(94.38 101.91)" fill="#aaaaac"/>
        <rect id="Rectangle_10701" data-name="Rectangle 10701" width="1.52" height="0.4" transform="translate(66.87 100.7)" fill="#aaaaac"/>
        <path id="Path_106792" data-name="Path 106792" d="M222.66,212.41c-1.28,0-3.67-.47-5.23-3.67a17.178,17.178,0,0,1-1-2.57,1.221,1.221,0,0,0,0-.17c-.09-.27-.16-.56-.23-.85a6.129,6.129,0,0,1-1.09-.48,5.92,5.92,0,0,1-2.63-3.24,5.4,5.4,0,0,1-.23-1.56v-3c-.08-.16-.15-.33-.22-.51a5.9,5.9,0,0,1-.37-1.81v-5.8a5.94,5.94,0,0,1,1.34-4,5.141,5.141,0,0,1,.53-.59,5.41,5.41,0,0,1,.74-2.05,5.83,5.83,0,0,1,1.72-1.84v-.4a8.8,8.8,0,0,1,.76-3.68,18.31,18.31,0,0,1-.52-3.14,5.24,5.24,0,0,0-.71-2.66c-.42-.7-.89-1.42-1.35-2.12a25.33,25.33,0,0,1-4-8.21,21,21,0,0,1-.63-4.42l-.08-5.73a17.769,17.769,0,0,1,.51-4.37V143a5.19,5.19,0,0,1,.29-1.78,6.32,6.32,0,0,1,1.58-2.47c.14-.3.29-.63.45-1a5.479,5.479,0,0,1,0-.72v-.84a5.55,5.55,0,0,1-.42-2v-5.71h0v-.38a6.55,6.55,0,0,1,.19-1.33h0a5.45,5.45,0,0,1-2.37-3.52,4.92,4.92,0,0,1-.76-2.62v-5.76a5.72,5.72,0,0,1,3-5.06,4.89,4.89,0,0,1,.82-.34,8.28,8.28,0,0,1,2.63-6.31,7.44,7.44,0,0,1,3.38-1.61l.3-.08a6.65,6.65,0,0,0,1.93-1.31c.45-.39.93-.85,1.43-1.33,1.81-1.74,4.19-4,7.74-4.66a.922.922,0,0,1,0-.16l-.07-4.5a16.64,16.64,0,0,1,2-9.06,14.83,14.83,0,0,1,6.58-5.81,19.559,19.559,0,0,0,2.28-1.35,57.6,57.6,0,0,1,5.85-3.64,47.461,47.461,0,0,0,5.19-3.23l.33-.54a8,8,0,0,1,3.44-3.61,5.56,5.56,0,0,1,2.23-.46,9.54,9.54,0,0,1,3.13.64l1.21-.58a15.311,15.311,0,0,0,3-1.74,5.709,5.709,0,0,0,1.41-1.87,17.62,17.62,0,0,1,2.51-3.46c3.18-3.33,7.91-4.38,12.08-5.3a35.6,35.6,0,0,0,4.55-1.21c.63-.24,1.31-1.3,2.09-2.53a15.61,15.61,0,0,1,5.71-5.94,21.46,21.46,0,0,1,5.79-1.8c.65-.14,1.27-.27,1.76-.4a4.42,4.42,0,0,0,1.41-.84,13.421,13.421,0,0,1,3.29-1.9,5.43,5.43,0,0,1,1.93-.33,13.12,13.12,0,0,1,1.67.14h.17a8.387,8.387,0,0,1,1-.45c.42-.68.85-1.34,1.26-2,1-1.54,2-3.12,2.93-4.73h0a4.48,4.48,0,0,1,3.62-2.23h1.34A7.06,7.06,0,0,1,324.72,23a9,9,0,0,1,2.47.36,4.649,4.649,0,0,1,.82-.54,4.49,4.49,0,0,1,3.69-.19h.1a29.35,29.35,0,0,1,3.68,1.82l1.42.77c.3.15.72.35,1.17.55l.9.41a7,7,0,0,1,2.42-.45,6.717,6.717,0,0,1,1.209.11c1.851-3,6.141-4.2,8.261-4.2a16.259,16.259,0,0,1,10.05,4.5,7.5,7.5,0,0,1,2.4,5.34v.62A6.94,6.94,0,0,1,366,34.79a6.61,6.61,0,0,1,.82,3.15h0v1.1h0v.2h0v1.12c1.28.67,3,1.34,4.31,1.87A39.811,39.811,0,0,1,375,43.91l.17.09a4.51,4.51,0,0,1,2.38,4h0v.45h0V49h0v.9h0v.25h0v.71h0V52h0v.09h0v.2h0v.26h0v1h0v.34a4.64,4.64,0,0,1-.54,2,8,8,0,0,1,.78,2.34,5.28,5.28,0,0,1,.1.9V61.9a.07.07,0,0,1,0,.05v3.32A4.57,4.57,0,0,1,376.88,68a4.5,4.5,0,0,1-3.58,1.49h-.12A13.71,13.71,0,0,1,367.94,68c-.4-.18-.78-.35-1.16-.5h-.1l-.52.3a24.609,24.609,0,0,1-3.34,1.48,12.55,12.55,0,0,0-2.57,1.18h0a4.51,4.51,0,0,1-2.25,1.6,9.6,9.6,0,0,1,1.48,3.88V76a3.638,3.638,0,0,1,0,.57v2.27a.13.13,0,0,1,0,.06v.62a.2.2,0,0,1,0,.07v.42h0v.2h0a.2.2,0,0,1,0,.07v1.17h0v.19h0v.63a4.5,4.5,0,0,1-4.3,4.6h-.78c-.1.1-.21.19-.32.28a4.13,4.13,0,0,1-.33,1.45,4.5,4.5,0,0,1-3.7,2.76h-.26c-.08.19-.18.43-.25.62a12.65,12.65,0,0,1-3.23,5.1,6.68,6.68,0,0,1-4.56,1.88,7.86,7.86,0,0,1-1.35.04h-1.02a6.661,6.661,0,0,0-.87,0,2.349,2.349,0,0,0-.45.35,7.431,7.431,0,0,0-1.07,1.59c-1.05,1.81-2.63,4.53-6.2,5.76a11.347,11.347,0,0,1-1.18.35v2c0,3.2-2.5,4.84-3.71,5.64-.25.16-.5.32-.65.44a9,9,0,0,0-2,2.79c-.26.47-.53.93-.83,1.44-3,5-7.33,7.56-11.15,9.8-1.08.63-2.2,1.29-3.24,2-2.13,1.4-3.31,3.65-4.81,6.49-.62,1.18-1.26,2.4-2,3.66a24.33,24.33,0,0,1-3.3,4.25l-.23.24-.11.12h0v.29h0v.31a4.49,4.49,0,0,1-4,4.47l-.13.24a10.5,10.5,0,0,1-4.05,4.62c-.66.37-1.24.67-1.76.93a8.65,8.65,0,0,0-3.25,2.37,22.739,22.739,0,0,1-4.43,3.73,16.92,16.92,0,0,0-2.53,2,19.82,19.82,0,0,0-2.7,4.5c-.5,1-1,2.06-1.62,3.08v.07a4.49,4.49,0,0,1-5.77,1.83h-.08c-.75-.35-1.4-.67-2-1a9.589,9.589,0,0,0-2.78-1.13,2.64,2.64,0,0,0-1,.29h0a4.49,4.49,0,0,1-4.1-.13h0a7.088,7.088,0,0,0-1-.48,6.355,6.355,0,0,0-1,.24h0l-.86.22a5.13,5.13,0,0,1-1.3.14l-.13.11a14.141,14.141,0,0,0-1.38,1.46c-.35.47-.64.9-1,1.35a15.38,15.38,0,0,1-4.9,4.94c-.79.49-1.55.92-2.29,1.34a31.165,31.165,0,0,0-2.89,1.78h0l-.41.3a1,1,0,0,1-.1.29c-.03.09-.14.43-.23.66l.07,4.85a5.19,5.19,0,0,1-1.45,3.85h-.05a4.71,4.71,0,0,1-.87.69,6,6,0,0,1-.93,2.53v.07l-.07.11a5.05,5.05,0,0,1-2.51,3.85,4.921,4.921,0,0,1-.45.24c-.06.18-.11.36-.16.51-.1.32-.21.66-.34,1a6.17,6.17,0,0,1-5,4c0,4.45-2.93,5.59-3.85,5.83a5,5,0,0,1-1.62.14Zm-1.46-15.7a5.43,5.43,0,0,1,1.46,1.13,5,5,0,0,1,1.42-.51,4.681,4.681,0,0,1,1.07-.12,9,9,0,0,1,1.68-2.76,5.754,5.754,0,0,1,.5-.49h0v-.23a4.5,4.5,0,0,1,1.08-2.86v-.18a.28.28,0,0,1,0-.09v-1.27a4.52,4.52,0,0,1,2.3-4v-1.32a4.61,4.61,0,0,1,.5-2.28h0a3.915,3.915,0,0,1,.21-.58,11.808,11.808,0,0,1,.8-1.94,9.3,9.3,0,0,1,2.93-3h0a40,40,0,0,1,3.73-2.32c.66-.37,1.33-.76,2-1.15a6.65,6.65,0,0,0,2.26-2.4c.34-.49.72-1,1.19-1.67a22.2,22.2,0,0,1,2.12-2.36,5.06,5.06,0,0,1,2.07-2.48,5.36,5.36,0,0,1,2.75-.75,6.5,6.5,0,0,1,1.89.3,12.519,12.519,0,0,1,3.15-.48,9.14,9.14,0,0,1,3.39.68,10.171,10.171,0,0,1,2.71-.37,11.7,11.7,0,0,1,4.78,1.11,23.23,23.23,0,0,1,3.67-5.59,23.591,23.591,0,0,1,3.95-3.23,15.41,15.41,0,0,0,2.79-2.27,17.38,17.38,0,0,1,5.9-4.44c.44-.23.89-.46,1.38-.73a9.588,9.588,0,0,0,.62-1.07,10.41,10.41,0,0,1,3.1-3.99,4.48,4.48,0,0,1,.9-1.86,9.277,9.277,0,0,1,1.08-1.09c.19-.17.35-.31.49-.46l.23-.26a15.179,15.179,0,0,0,2.21-2.78c.62-1,1.2-2.13,1.76-3.19,1.76-3.35,3.76-7.15,7.83-9.82,1.23-.81,2.45-1.52,3.63-2.21,3.44-2,6.15-3.61,8-6.66.25-.41.48-.83.71-1.24A17,17,0,0,1,319.7,108c.31-.25.63-.47.91-.66v-2.02a2.1,2.1,0,0,1,0-.25,4.36,4.36,0,0,1,.48-1.87,11.182,11.182,0,0,1,1.4-2.19,6.38,6.38,0,0,1,4.87-2.69,1.56,1.56,0,0,0,.52-.11c.34-.12.63-.55,1.34-1.77a14.71,14.71,0,0,1,2.78-3.8,9.73,9.73,0,0,1,7.15-2.7h1.61c.14-.28.28-.63.45-1.07a9.41,9.41,0,0,1,3.92-5.14,4.361,4.361,0,0,1,.29-1,4.52,4.52,0,0,1,2-2.22A4.29,4.29,0,0,1,348.5,80a4.459,4.459,0,0,1,1.3-1l.73-.33v-.14a.13.13,0,0,0,0-.06V77.11h0a12.637,12.637,0,0,0-1-1.35c-.34-.42-.72-.89-1.08-1.42a4.49,4.49,0,0,1-.25-4.72c.61-1.13,1.35-2.23,2-3.2.35-.53.68-1,.92-1.42a4.49,4.49,0,0,1,4.24-2.15,20.6,20.6,0,0,1,4.24-2,17.73,17.73,0,0,0,2.14-.92c.43-.24.73-.43,1-.61a6.16,6.16,0,0,1,3.54-1.22h.35l-.27-.37a4.5,4.5,0,0,1,1.84-6.7l.3-.13h0l-.63-.25c-2.89-1.15-6.16-2.45-8.44-4.46a4.52,4.52,0,0,1-1.52-3.28v-.45a.13.13,0,0,1,0-.06V40.85h0V40.8h0a1.087,1.087,0,0,1,0-.18v.17h0v-.17h0v-.17h0v-.17h0a.994.994,0,0,1,0-.17.862.862,0,0,0,0,.17h0V39.9h0v-.31h0V39.4a.852.852,0,0,0,0,.16h0v-.17h0a6.49,6.49,0,0,1-2-1.9,7.68,7.68,0,0,1-1.09-2.64,2.06,2.06,0,0,0-.07-.29,4.3,4.3,0,0,1-.35-1.66v-.47a9.34,9.34,0,0,0-3.42-1.63l-.2.05v1.68h0v.23a4.5,4.5,0,0,1-6.32,4.18,15.692,15.692,0,0,1-2.58-1.53l-.21-.14a4.5,4.5,0,0,1-5,0,17.53,17.53,0,0,0-2.3-1.27c-.54-.24-1.09-.49-1.59-.75l-1.24-.66a4.22,4.22,0,0,1-.91.5A4.48,4.48,0,0,1,327,33l-.4-.19-1-.45a4.48,4.48,0,0,1-4.94,2.33c-.5.81-1,1.6-1.49,2.37-.74,1.16-1.5,2.34-2.22,3.54a4.49,4.49,0,0,1-3.62,2.15,7.81,7.81,0,0,1-2.54.9,5.62,5.62,0,0,1-1,.08,11.541,11.541,0,0,1-1.61-.13l-.55.4a12.7,12.7,0,0,1-4.44,2.29c-.71.19-1.44.34-2.22.5a17.71,17.71,0,0,0-3.37.92,8.49,8.49,0,0,0-2.39,2.87c-1.36,2.13-3.06,4.78-6.44,6.08a40.611,40.611,0,0,1-5.83,1.59c-2.92.65-6.23,1.39-7.53,2.74a9.61,9.61,0,0,0-1.27,1.83,14.23,14.23,0,0,1-3.61,4.37A23.74,23.74,0,0,1,265.81,70a19,19,0,0,0-2.21,1.15,4.48,4.48,0,0,1-3.42.6,9.618,9.618,0,0,1-1.09-.33,7.48,7.48,0,0,1-1.55,1.79,52.127,52.127,0,0,1-6.69,4.27,53.436,53.436,0,0,0-5,3.07,27,27,0,0,1-3.37,2c-1.64.87-2.31,1.22-3.06,2.48a8.49,8.49,0,0,0-.69,4.29L238.8,94a2.712,2.712,0,0,1,0,.29,12.44,12.44,0,0,1-2.17,6.91,4.49,4.49,0,0,1-4.46,1.82,2.911,2.911,0,0,0-.49,0c-.89,0-1.75.74-3.38,2.3-.56.54-1.19,1.14-1.86,1.72a14.92,14.92,0,0,1-4,2.61,6.842,6.842,0,0,1-1.07.41v2.55a4.51,4.51,0,0,1-2.23,4c-.13.12-.28.27-.46.41a5.28,5.28,0,0,1-1.18.71h0v1.2h0l.45.2a4.49,4.49,0,0,1,2.46,3.61v.46h0a4.51,4.51,0,0,1,.43,5.06c-.12.21-.22.38-.3.54s-.07.12-.1.19v4h0a4.63,4.63,0,0,1,.42,1.84v1a4.5,4.5,0,0,1-.63,5.49c-.21.38-.45.92-.64,1.34v.05c-.06.12-.11.23-.16.35a6,6,0,0,1-.8,1.27v1.73a4.639,4.639,0,0,1-.13,1.05,9.92,9.92,0,0,0-.39,2.64h0l.08,5.74a11.91,11.91,0,0,0,.39,2.49,17,17,0,0,0,2.73,5.33c.51.79,1,1.59,1.57,2.47a14,14,0,0,1,1.93,6.39,8.52,8.52,0,0,0,.33,2,4.51,4.51,0,0,1-.15,5.06,1.161,1.161,0,0,0-.11.16,3.939,3.939,0,0,0-.27.44h0v3.6a4.51,4.51,0,0,1-2.6,4.15,4.46,4.46,0,0,1-1.75,2.76h0v3.08a4.55,4.55,0,0,1,.57,1.77c0,.14,0,.28,0,.43v1Zm-.61-4.1Zm0-.2Zm0-.63Zm7.83-1v.09h0Zm0,0v.1h0Zm0,.06Zm0,0Zm0-.05Zm0-.05Zm0-.08h0v-.09c0-.03-.02.02-.02.05Zm0-.08h0a1.151,1.151,0,0,1,0-.19.862.862,0,0,0,0,.16h0Zm0,0Zm0-.08Zm0-.15Zm0-.12Zm0,.07Zm0,0Zm0-.05Zm0-.08Zm0-.05Zm0,0Zm0-.05h0v0Zm0-.08Zm0-.05Zm0,0h0a.862.862,0,0,1,0-.16l-.03-.04Zm0,0Zm0-.07Zm0,0Zm0-.1Zm0-.08Zm0-.05Zm0-.26ZM218.88,146a1.34,1.34,0,0,1,0,.2,1.212,1.212,0,0,0,0-.2Zm0-.13Zm0-.06Zm0-.2Zm0-.19Zm0-.15a.28.28,0,0,0,0,.09.28.28,0,0,1,0-.09Zm0-.05Zm0-.16Zm0,0Zm0-.16Zm0-.05Zm0-.15v0Zm0-.06a.34.34,0,0,0,0,.1.28.28,0,0,1,0-.09h0Zm0-.15ZM320.62,107.4h0a.76.76,0,0,1,0-.15.569.569,0,0,0,0,.14h0Zm0,0h0v-.01h0Zm0-.08a.381.381,0,0,1,0,.1h0Zm0,0h0a.61.61,0,0,1,0-.14q-.016.019-.03.04Zm0,0h0a.76.76,0,0,1,0-.15.61.61,0,0,0,0,.14h0Zm0-.11h0V107h0Zm0-.09Zm0,0h0v-.09h0v-.22a.621.621,0,0,1,0,.13h0v-.03h0Zm0-.31h0a.708.708,0,0,1,0-.14s0,.09,0,.14Zm0-.06h0a.659.659,0,0,1,0-.14.529.529,0,0,0,0,.13h0a.76.76,0,0,1,0-.15.659.659,0,0,0,0,.14h0Zm0-.1h0v-.06h0Zm0-.1Zm0-.06Zm0-.07h0v-.08h0Zm0-.11h0v-.06h0Zm0-.12h0V106h0a.61.61,0,0,0,0-.14s0,.09,0,.13h0Zm0-.09h0v-.04h0Zm0,0h0a.61.61,0,0,1,0-.14v.13h0Zm0-.05h0a.86.86,0,0,1,0-.16.529.529,0,0,0,0,.13h0Zm0,0h0a.57.57,0,0,1,0-.13.528.528,0,0,0,0,.13v-.06h0Zm0-.32Zm0-.18h0v-.16s-.06-.12-.06-.06Zm0,0h0v-.2c0-.07-.06-.12-.06-.05Zm0-.22a1.216,1.216,0,0,0,0,.2,1.269,1.269,0,0,1-.05-.45Zm37.36-62.24Zm0-.11Zm0-.2Zm0-.08h0v-.05h0Zm0-.05Zm0,0h0v-.18c0-.06-.06-.16-.06-.1Zm0,0h0v-.03h0Zm0-.09Zm0,0h0a.76.76,0,0,1,0-.15.611.611,0,0,0-.06-.22Zm0,0h0a.76.76,0,0,1,0-.15.661.661,0,0,0,0,.14h0Zm0,0Zm0-.18Zm0,0Zm0-.17Zm0,0v-.16a.711.711,0,0,1,0,.14h0Zm0-.17h0a.76.76,0,0,1,0-.15.61.61,0,0,0-.07-.37Zm0,0h0a1.087,1.087,0,0,1,0-.18.708.708,0,0,0,0,.15h0Zm0-.12Zm0-.06Zm0,0Zm0,0Zm0-.11Zm0-.18h0v-.21c0-.07-.08-.49-.08-.36Zm0-.07h0v-.02h0Zm0-.16h0a.914.914,0,0,1,0-.17.71.71,0,0,0-.08-.45Zm0,0Zm0,0Zm0,0Zm0-.1Zm0,0Zm0,0Zm0-.05Zm0-.1Zm0,0h0v-.84h0Zm0,0h0a.86.86,0,0,1,0-.16.86.86,0,0,0-.09-.69Zm0-.05h0a.86.86,0,0,1,0-.16.86.86,0,0,0,0,.16Zm0-.14h0a1.087,1.087,0,0,1,0-.18.86.86,0,0,0-.09-.67Zm0,0Zm0,0Zm0-.18Zm0-.13Zm0,0Zm0,0Zm0-.15h0v-.16c0-.05-.1-.87-.1-.81Zm0,0h0a.489.489,0,0,1,0-.12h0a.311.311,0,0,0,0,.1h0Zm0,0h0v-.11h0Zm0-1.44h0v-.11c0-.03-.12-.96-.12-.89Zm0,0h0a.37.37,0,0,1,0-.11.489.489,0,1,0-.12-.97Z" fill="#62b7ad"/>
        <path id="Path_106793" data-name="Path 106793" d="M373.7,64.89h0v-.05h0v-.06h0v-.06h0v-.05h0v-.06h0v-.06h0V64h0v-.05h0V63.8h0v-.06h0v-.05h0v-.05h0v-.06h0v-.05h0v-.05h0v-.06h0v-.05h0V63h0v-.06h0v-.05h0v-.05h0v-.06h0v-.05h0v-.05h0v-.06h0V62.3h0v-.05h0V62h0v-.05h0v-.06h0v-.05h0v-.05h0v-.06h0v-.05h0v-.05h0v-.06h0V61h0v-.1h0v-.06h0V60.8h0v-.05h0v-.06h0v-.05h0v-.05h0v-.06h0v-.06h0v-.05h0v-.05h0V60h0v-.05h0v-.06h0v-.05h0v-.05h0v-.06h0V59.4h0v-.1h0v-.06h0v-.06h0v-.11a3.37,3.37,0,0,0-1.82-2.54,5.89,5.89,0,0,1-1.37-1.17,2.069,2.069,0,0,1-.17-.24l3.05-1.36h-.23l-.17-.09a36,36,0,0,0-3.31-1.43c-2.55-1-5.43-2.16-7.12-3.65V48.3a.09.09,0,0,0,0-.05.06.06,0,0,0,0-.06v-.62h0V40.5h0v-.21a.131.131,0,0,0,0-.05v-.09h0V39.9h0v-.26h0v-.21h0v-.2h0v-.32h0v-.25h0v-.21a.131.131,0,0,0,0-.05h0v-.5a2.21,2.21,0,0,0-.31-1.07,3.1,3.1,0,0,0-1.34-1.12,3.39,3.39,0,0,1-1.15-.87,3.73,3.73,0,0,1-.44-1.2,6.253,6.253,0,0,0-.29-.93V31.53a3.18,3.18,0,0,0-1.1-2.21A12.37,12.37,0,0,0,351,26.16c-1.21,0-4,1-4.55,2.29a1.84,1.84,0,0,0-.13.81V32a.11.11,0,0,0,0,.05v.71a11.77,11.77,0,0,1-1.86-1.12,5.67,5.67,0,0,0-3-1.33,3.17,3.17,0,0,0-2.26,1.14,21.511,21.511,0,0,0-2.91-1.51c-.5-.22-1-.44-1.38-.65s-1-.55-1.55-.84a25.161,25.161,0,0,0-3.12-1.55h-.1V27a3.6,3.6,0,0,1-.57,1,4.581,4.581,0,0,0-.55,1,3.537,3.537,0,0,1-.39-.19,10,10,0,0,0-3.81-1.26c-1.39,0-2.37.9-3.09,2.81a6.26,6.26,0,0,0-3.14-.58h-.05v.05c-1,1.69-2,3.31-3,4.88-.74,1.17-1.51,2.38-2.27,3.62h-.23a3,3,0,0,0-1.55.47,3.68,3.68,0,0,1-1.28.49h-.27a11.27,11.27,0,0,1-1.18-.11,4.35,4.35,0,0,0-1.44-.06,8.839,8.839,0,0,0-2.2,1.31,8.25,8.25,0,0,1-2.93,1.56c-.6.16-1.27.31-2,.46a18,18,0,0,0-4.58,1.35,11.65,11.65,0,0,0-4,4.41c-1.16,1.82-2.26,3.54-4.26,4.31a39.531,39.531,0,0,1-5.19,1.39c-3.72.83-7.57,1.69-9.81,4a13.832,13.832,0,0,0-1.89,2.64,9.9,9.9,0,0,1-2.51,3.12,19.3,19.3,0,0,1-3.88,2.26,22.78,22.78,0,0,0-2.7,1.43,9.778,9.778,0,0,1-1.15-.39,8.669,8.669,0,0,0-2.42-.66,1,1,0,0,0-.4.07,5,5,0,0,0-1.41,1.8,6.74,6.74,0,0,1-1.06,1.5,46,46,0,0,1-6.11,3.88,55,55,0,0,0-5.41,3.36,21.928,21.928,0,0,1-2.83,1.69,10.43,10.43,0,0,0-4.82,4.15,12.34,12.34,0,0,0-1.32,6.68l.07,4.66a8.25,8.25,0,0,1-1.34,4.53,7.29,7.29,0,0,0-1.29-.12c-2.8,0-4.68,1.81-6.5,3.56-.53.51-1.08,1-1.65,1.52a10.51,10.51,0,0,1-3,2,5.15,5.15,0,0,1-1,.31,3.86,3.86,0,0,0-1.48.6,3.79,3.79,0,0,0-1.13,3v3.14a1.33,1.33,0,0,0-.73.51,2.289,2.289,0,0,1-.27.27,2,2,0,0,1-1,.27,3,3,0,0,1-.42,0h-.29a1.07,1.07,0,0,0-1.14,1.12h0V116a.06.06,0,0,0,0,.06v.62a.07.07,0,0,0,0,.05v2.95h0v.57h0a.36.36,0,0,0,0,.21,1,1,0,0,0,.25.35,1.59,1.59,0,0,1,.18.22.85.85,0,0,1,.13.46v.1a1.29,1.29,0,0,0,.56,1.14.77.77,0,0,0,.4.1,1.77,1.77,0,0,0,.46-.08,1.28,1.28,0,0,1,.54-.07,1.65,1.65,0,0,1,.36.11h0v2.08a.67.67,0,0,0,.43.64.75.75,0,0,0,.58.06c-.12.2-.25.44-.37.68l-.15.27a3,3,0,0,0-.47,1.31v5.16a.11.11,0,0,0,0,.05v.66a.85.85,0,0,0,.41.75v2.17a.81.81,0,0,0,0,.31,2.55,2.55,0,0,0,.61.82.92.92,0,0,0-.29.26,14.86,14.86,0,0,0-1.24,2.38c-.06.13-.12.25-.17.37a2,2,0,0,1-.53.64,2.06,2.06,0,0,0-.64.87.72.72,0,0,0,0,.32v.52a.09.09,0,0,0,0,.05.06.06,0,0,0,0,.06v.62a.11.11,0,0,0,0,.05V145a.09.09,0,0,0,0,.05v.63a.11.11,0,0,0,0,.05h0v.29a14.08,14.08,0,0,0-.52,3.79l.08,5.73a16.76,16.76,0,0,0,.51,3.47,20.82,20.82,0,0,0,3.35,6.77c.48.74,1,1.5,1.46,2.3a9.43,9.43,0,0,1,1.32,4.52,11.93,11.93,0,0,0,.66,3.27,3,3,0,0,0,.36.67l-.25.37a4.83,4.83,0,0,0-1,2.92l.06,3.63-.16.07a1.54,1.54,0,0,1-.78.17h-.3a1.42,1.42,0,0,0-1.16.67.73.73,0,0,0-.15.43v.41a.07.07,0,0,0,0,.05v.05a.06.06,0,0,0,0,.06s0,0,0,.05v.63h0v.52a.07.07,0,0,0,0,.05h0c-.11.07-.23.12-.32.17l-.2.1-.33.15a1.21,1.21,0,0,0-.63.43,1.44,1.44,0,0,0-.37,1.06v1.24a.15.15,0,0,0,0,.06v1.34a.15.15,0,0,0,0,.06v2.12a.13.13,0,0,0,0,.05v.81a1.26,1.26,0,0,0,.08.43,4.151,4.151,0,0,0,.48.85h0v.88a.13.13,0,0,0,0,.06v.62a.11.11,0,0,0,0,.05s0,0,0,.05V198a.07.07,0,0,0,0,.05v1.3a.07.07,0,0,0,0,.05h0v.32a1,1,0,0,0,0,.3,1.53,1.53,0,0,0,.56.62.86.86,0,0,0,.41.12.81.81,0,0,0,.42-.14,1.278,1.278,0,0,1,.24-.11.769.769,0,0,1,.29-.05c1,0,1.49,2,1.8,3.26.08.32.15.59.21.79l.08.25c.29,1,.89,3,1.86,3h.18c.47-.13.51-.93.5-1.53V204.5a6.43,6.43,0,0,1,1-2.05l.24-.38a1.521,1.521,0,0,0,.11-.23c.07-.14.09-.19.37-.25h.2a3.138,3.138,0,0,1,.77.14l.44.1a3.25,3.25,0,0,0,.44,0,1.73,1.73,0,0,0,1.78-1.08c.1-.26.19-.54.28-.83a6.7,6.7,0,0,1,1.22-2.58,1.89,1.89,0,0,1,.81-.45,3,3,0,0,0,.58-.25.57.57,0,0,0,.32-.53v-.52a.11.11,0,0,0,0-.05h0V195a.09.09,0,0,0,0-.05h0v-.63a.11.11,0,0,0,0-.05s0,0,0-.05v-.39l.07.05c.27.17.51.32.65.39h.08v-.07a1.76,1.76,0,0,0,.27-1V193h0v-.21h0v-.25h0v-.25h0v-.21h0v-.25h0v-.16h0v-.06h0V191h0v-.3h0v-.21h0v-.25h0v-.35h0v-.25h0v-.25h0a2.79,2.79,0,0,1,1.51.63,5,5,0,0,0,.59.35h.11a.8.8,0,0,0,.16-.6l-.08-5.73v-.1h0a9,9,0,0,0,.46-1.18,7.47,7.47,0,0,1,.5-1.24,5.42,5.42,0,0,1,1.61-1.55h0a35.161,35.161,0,0,1,3.31-2c.69-.4,1.41-.81,2.12-1.25a10.89,10.89,0,0,0,3.58-3.67c.32-.47.66-1,1.07-1.51a16.422,16.422,0,0,1,2.23-2.32,1.52,1.52,0,0,0,.37-.74c.08-.26.16-.53.31-.62a.8.8,0,0,1,.44-.11,2.82,2.82,0,0,1,.9.22,2.86,2.86,0,0,0,.89.21h.21l.84-.21a8.891,8.891,0,0,1,2.2-.39,6.44,6.44,0,0,1,3.12,1h.05a6.621,6.621,0,0,1,2.89-.74c1.58,0,3,.71,4.79,1.61.59.3,1.21.6,1.89.92h.08v-.08c.53-.89,1-1.87,1.48-2.82a23,23,0,0,1,3.45-5.57,20.2,20.2,0,0,1,3.24-2.62,19.119,19.119,0,0,0,3.61-3c1.66-1.9,1.4-3.17,3.15-4.08.48-.25,2.46.14,3.07-.2a6.38,6.38,0,0,0,2.26-2.8c.73-1.37,1.42-2.65,3-2.65h.63v-.05h0v-.06h0v-.06h0v-.06h0v-.05h0v-.05h0v-.06h0v-.06h0v-.05h0V146h0v-.06h0v-.06h0v-.06h0v-.05h0v-.05h0v-.06h0v-.06h0v-.05h0v-.05h0v-.06h0v-.06h0v-.05h0v-.06h0v-.06h0v-.06h0v-.05h0v-.06h0v-.06h0v-.05h0v-.05h0v-.06h0v-.06h0v-.06h0v-.06h0v-.1a4.663,4.663,0,0,1,.59-.58c.23-.21.5-.45.79-.76l.23-.25a19.868,19.868,0,0,0,2.76-3.51c.69-1.15,1.3-2.31,1.89-3.43,1.66-3.15,3.22-6.12,6.32-8.15,1.14-.75,2.31-1.44,3.44-2.1,3.67-2.15,7.14-4.18,9.56-8.22.28-.47.53-.92.78-1.35a12.74,12.74,0,0,1,3.11-4.1,10.715,10.715,0,0,1,1-.68c.87-.57,1.69-1.11,1.68-1.88h0a.15.15,0,0,0,0-.06h0v-.57h0v-1.3a.131.131,0,0,0,0-.05v-1.29a.15.15,0,0,0,0-.06h0v-.1h0a6.92,6.92,0,0,1,.83-1.32c.9-1.06,1.13-1.07,1.7-1.11a5.86,5.86,0,0,0,1.72-.34c2-.69,2.89-2.25,3.76-3.77a10.739,10.739,0,0,1,2-2.68,5.38,5.38,0,0,1,4.23-1.55h.74a5.53,5.53,0,0,1,1.15.1,4.289,4.289,0,0,0,.7.08,2.2,2.2,0,0,0,1.53-.7,8.25,8.25,0,0,0,2.06-3.4c.67-1.72,1.24-3.2,4.08-3.48h.17v-.05h0v-.05h0v-.05h0v-.05h0v-.05h0v-.05h0v-.05h0v-.05h.05c.87-.16,1.88-.4,2.19-1.35a7,7,0,0,1,3-.57H355V82.3h0v-.2h0V82h0v-.06h0v-.05h0v-.06h0v-.05h0v-.06h0V81h0v-.06h0v-.06h0v-.05h0v-.06h0v-.05h0v-.05h0v-.06h0v-.05h0V79.4h0v-.05h0v-.06h0V79h0v-.06h0v-.05h0v-.06h0v-.05h0v-.06h0v-.05h0V78h0v-.05h0v-.06h0v-.05h0v-.06h0v-.05h0v-.06h0v-.06h0v-.05h0v-.11a7.67,7.67,0,0,0-1.94-3.59c-.31-.38-.62-.78-.9-1.18a26.722,26.722,0,0,1,1.79-2.86c.38-.57.74-1.11,1-1.58a3.5,3.5,0,0,0,.7.15,2.37,2.37,0,0,1,.86.25h.07l.05-.07c.95-1.29,2.79-2,4.56-2.68a20.2,20.2,0,0,0,2.74-1.2c.53-.29.92-.54,1.22-.73.54-.34.8-.51,1.13-.51a5.47,5.47,0,0,1,1.68.54l.47.19c.47.19.91.38,1.33.57a9.85,9.85,0,0,0,3.63,1.1h.12Z" fill="#d89252"/>
        <path id="Path_106794" data-name="Path 106794" d="M321.39,96.49c-1.5.38-2.06,1.69-2.81,3-.38.75.37,1.31.56,2.06.94,2.82-2.25,4.69-4.5,5.44-3.93,1.31-8.25,1.88-11.06,4.69-.75.56,1.69,3-.56,3.75-3.19.93-5.62,3.18-8.81,3.93-3.37.75-8.44,3.56-7.12,6.94.56,2.06,1.68,4.5.75,6.18-1.13,2.44-4.88,3.57-5.07,5.63a16.9,16.9,0,0,0,0,2.36c3.43,0,5.86-.32,9.3-.36.57-.12.79-1.77,1.6-2.5a10.611,10.611,0,0,0,.8-.76l.23-.25a19.5,19.5,0,0,0,2.75-3.51c.7-1.14,1.31-2.3,1.9-3.43,1.65-3.14,3.22-6.11,6.31-8.15,1.15-.75,2.32-1.43,3.45-2.09,3.67-2.16,7.14-4.19,9.56-8.23.28-.46.53-.91.77-1.35a12.91,12.91,0,0,1,3.12-4.1c.31-.24.65-.46,1-.68.83-.55,1.63-1.07,1.67-1.8a2.427,2.427,0,0,0-1-1.69q.17-.36.33-.75A11.61,11.61,0,0,1,326,98.09c.91-1.07,1.14-1.08,1.7-1.11a6,6,0,0,0,1.15-.17,5.751,5.751,0,0,0-.91-.75,23,23,0,0,0-6.55.43Z" fill="#ffe18d"/>
        <path id="Path_106795" data-name="Path 106795" d="M300.85,92c-1.78-.22-3.55-.88-5.55-1.33-5.76-1.55-12.19-7.09-17.29-2.21a8.37,8.37,0,0,1-4.21,2c.22.67-.67.89-.89,1.33-.22,1.55.45,4-.22,4.44-5.54,4.21-8.74,5.7-15.61,6.81-4.88.67-5.73,8.34-4.62,12.11.66,3.11,3.16,1.25,5.16,3.91.66.67.22,2.66-.89,3.55-.44.22-.44,1.55-.22,2.44.44,1.55,2.22,2.43,2.88,3.76,2,4.44-1.77,9.76,1.11,14.19,1.33,2.44,4.65,3.33,7.54,3.55,3.53.23,7.08.33,10.63.35-.06-.91,3.51-.31,3.58-1.26.22-2.44,1.58-3.65,2.91-6.53,1.1-2,6.6-5.43,5.94-7.87.95-1.31,2.63-5.65,4.77-7.69,2.79-2.69,3-5.15,6.75-6.26,2.66-.89,2.63-3.33,3.52-4,3.33-3.33,5.57-4.44,10.22-6,2.66-.89,6.43-3.1,5.33-6.43-.23-.89,1-1.23,1.46-2.12.89-1.55,2.13-1.68,3.9-2.13,2.62-.65,2.78-1.36,3.13-2.72-.4-.26-1.29-3.48-1.75-3.61C318.67,87.39,311,93.09,300.85,92Z" fill="#ffe18d"/>
        <path id="Path_106796" data-name="Path 106796" d="M356.63,59.19c-5.25-5.62-11.81-9-19.12-9.37-8.43-.57-17.06-.19-25.49-.19-.56,3,.19,6.75-2.81,7.87a51.38,51.38,0,0,0-14.44,7.88c-.56.37-.75,2.06-2.25,2.62-6.18,2.25-12.37,2.25-18.56,3.94-1.12.18,0,3.37-.75,4.5-6.18,7.87-15.93,10.68-23.61,17a5.81,5.81,0,0,0,.75,9.56,1.72,1.72,0,0,1,0,2.25c-3.75,3.94-8.44,6.38-12.38,10.13-7.31,7.12-18.56,14.81-14.81,25.87.94,2.62,4.32,3.37,6.75,5.24,3.75,2.82,6.94,6.19,5.63,11.06-.94,2.63-1.69,5.25-.94,7.88a48.311,48.311,0,0,0,3.47,8.35,35.4,35.4,0,0,1,3.12-1.92c.7-.39,1.42-.8,2.12-1.25A10.84,10.84,0,0,0,246.9,167c.32-.47.66-1,1.07-1.5a16.472,16.472,0,0,1,2.22-2.33,1.38,1.38,0,0,0,.38-.73c.08-.27.16-.54.31-.63a.86.86,0,0,1,.43-.11,2.81,2.81,0,0,1,.91.22,2.8,2.8,0,0,0,.89.21.75.75,0,0,0,.21,0l.84-.21a9.3,9.3,0,0,1,2.2-.39,6.5,6.5,0,0,1,3.12,1.05h.05a6.711,6.711,0,0,1,2.89-.73c1.58,0,3,.71,4.78,1.6.6.3,1.21.61,1.9.93h.08v-.07c.52-.9,1-1.88,1.48-2.83a23.141,23.141,0,0,1,3.45-5.56,19.669,19.669,0,0,1,3.24-2.62c1.25-.87.22-3.67,1.84-3.81,2.51-.21,4.59-1.69,6.34-2.59l1.65-.87a6.46,6.46,0,0,0,2.26-2.81,16.729,16.729,0,0,1,2.55-3.11s-11.9.48-18.29.06c-2.44-.19-5.25-.94-6.38-3-2.43-3.75.75-8.25-.93-12-.57-1.12-2.07-1.87-2.44-3.18-.19-.75-.19-1.88.19-2.06.93-.75,1.31-2.44.75-3-1.69-2.25-5.25-2.82-5.81-5.44-.94-3.19-1.5-8.06,2.62-8.62,5.81-.94,11.25-1.69,15.93-5.25.57-.38,0-2.44.19-3.75.19-.38.94-.56.75-1.13a6.93,6.93,0,0,0,3.56-1.68c4.31-4.13,9.75.56,14.62,1.87,1.69.38,3.19.94,4.69,1.13,8.62.93,17.06-.94,25.31,1.5a4.43,4.43,0,0,1,2,1.25l.57-.18c2-.69,2.9-2.25,3.77-3.76a10.55,10.55,0,0,1,2-2.69,5.33,5.33,0,0,1,4.23-1.54h.74a4.92,4.92,0,0,1,1.15.1,4.289,4.289,0,0,0,.7.08,2.19,2.19,0,0,0,1.53-.71,8.19,8.19,0,0,0,2.06-3.4c.67-1.71,1.24-3.19,4.08-3.48h.17l-.11-.13a4.71,4.71,0,0,1-.77-2.07.418.418,0,0,0-.05-.24l.55-.1c1.09-.2,2.21-.4,2.54-1.42a7.17,7.17,0,0,1,3-.57h.2v-.1a7.62,7.62,0,0,0-1.88-3.6c-1.14-1.43-2.22-2.78-1.88-4.75.26-1.47,1.55-3.39,2.69-5.09.38-.57.74-1.11,1-1.59a3.441,3.441,0,0,0,.69.16,2.17,2.17,0,0,1,.87.24h.07l.05-.07A4.89,4.89,0,0,1,358,60.75a16.2,16.2,0,0,1-1.37-1.56Z" fill="#ffe18d"/>
        <path id="Path_106797" data-name="Path 106797" d="M373.6,59a3.37,3.37,0,0,0-1.82-2.54,5.66,5.66,0,0,1-1.37-1.17c-1.12-1.42-.92-2.4-.64-3.76a10.66,10.66,0,0,0,.3-2.24l3.14-1.4-.17-.09a34.063,34.063,0,0,0-3.31-1.43c-3.42-1.35-7.67-3-8.39-5.43a1.64,1.64,0,0,1,.57-2c.47-.43,1-.89.32-2.12a3.15,3.15,0,0,0-1.34-1.11,3.54,3.54,0,0,1-1.15-.88,3.67,3.67,0,0,1-.44-1.19,4.16,4.16,0,0,0-.49-1.31,2.22,2.22,0,0,0-.25-2.19c-1.35-2.15-5.58-4-7.52-4-1.21,0-4,1-4.55,2.29-.43,1.06-3.89,1.81-4.92,1.81-.77,0-4.19.08-5.17-.36-.5-.23-1-.45-1.38-.65s-1-.56-1.55-.84a25.219,25.219,0,0,0-3.12-1.56h-.1v.1a3.521,3.521,0,0,1-.57,1.05,4.521,4.521,0,0,0-.55,1l-.39-.18a9.87,9.87,0,0,0-3.81-1.27c-1.39,0-2.37.9-3.09,2.81a6.26,6.26,0,0,0-3.14-.58h-.05c-1,1.69-2,3.31-3,4.88-.74,1.17-1.51,2.38-2.27,3.62h-.23a3,3,0,0,0-1.55.47,3.68,3.68,0,0,1-1.28.49,1.06,1.06,0,0,1-.27,0,9.09,9.09,0,0,1-1.18-.11,4.35,4.35,0,0,0-1.44-.06,9.149,9.149,0,0,0-2.2,1.31,8.42,8.42,0,0,1-2.93,1.57c-.6.16-1.27.3-2,.45a18,18,0,0,0-4.58,1.36,11.62,11.62,0,0,0-4,4.4c-1.16,1.82-2.26,3.54-4.26,4.31a38,38,0,0,1-5.19,1.4c-3.72.82-7.57,1.68-9.81,4a14.149,14.149,0,0,0-1.89,2.64,9.93,9.93,0,0,1-2.51,3.13,19.711,19.711,0,0,1-3.88,2.25,24.348,24.348,0,0,0-2.7,1.43,11.591,11.591,0,0,1-1.15-.38,8.4,8.4,0,0,0-2.42-.67,1,1,0,0,0-.4.07A5,5,0,0,0,256,68.15a6.88,6.88,0,0,1-1.06,1.49,47.079,47.079,0,0,1-6.11,3.89,54.865,54.865,0,0,0-5.41,3.35,21.93,21.93,0,0,1-2.83,1.69,10.43,10.43,0,0,0-4.82,4.15c-1.47,2.47-1.37,5.37-1.27,8.18s.19,5.56-1.32,7.69a7.29,7.29,0,0,0-1.29-.12c-2.8,0-4.68,1.81-6.5,3.56-.53.51-1.08,1-1.65,1.52a10.51,10.51,0,0,1-3,2,5.15,5.15,0,0,1-1,.31,3.86,3.86,0,0,0-1.48.6,4.36,4.36,0,0,0-.36,5.42l.13.17c.25.29.49.6.35.78h-.19a1.9,1.9,0,0,1-.37,0,.88.88,0,0,1-.2-.09.72.72,0,0,0-.43-.09,1.31,1.31,0,0,0-.75.51,1.72,1.72,0,0,1-.27.27,2,2,0,0,1-1,.27,2.939,2.939,0,0,1-.42,0h-.29a1.12,1.12,0,0,0-.55.12,1.15,1.15,0,0,0-.57,1.16,1.18,1.18,0,0,0,.26.35,1,1,0,0,1,.17.21.87.87,0,0,1,.14.46v.11a1.24,1.24,0,0,0,.55,1.13.84.84,0,0,0,.41.11,1.79,1.79,0,0,0,.46-.09,1.24,1.24,0,0,1,.54-.07,1,1,0,0,1,.88,1,2.521,2.521,0,0,1-.23.6c-.24.46-.52,1,.17,1.4a.85.85,0,0,0,1.16-.48c.12-.22.24-.43.35-.65l.17-.32a1.741,1.741,0,0,0,.1-.23c.1-.22.26-.59.41-.64h.05a3.11,3.11,0,0,1,1.54,1,2,2,0,0,1,.11,1.63.92.92,0,0,1-.8.66,1.21,1.21,0,0,0-1,.9,1.74,1.74,0,0,0,.2,1.15c-.33.68-.72,1.36-1.11,2-.29.49-.58,1-.85,1.51l-.15.27a3.09,3.09,0,0,0-.47,1.31c0,.63.36.82.8,1h0a4.88,4.88,0,0,0-.3,2.25,2.55,2.55,0,0,0,.61.82,3.56,3.56,0,0,1,.45.52c.81,1.28,1.69,3,1.22,4.47-.11.35-.49.45-.89.55a1.6,1.6,0,0,0-1,.52,15.291,15.291,0,0,0-1.24,2.38c-.06.13-.12.25-.17.38a2,2,0,0,1-.53.63,2.13,2.13,0,0,0-.64.87,1.26,1.26,0,0,0,.19,1,1.1,1.1,0,0,1,.19.78c-.94,3.62-1.29,5-.4,8.72A20.63,20.63,0,0,0,217.9,160c.48.74,1,1.51,1.46,2.3a9.66,9.66,0,0,1,1.32,4.52,11.93,11.93,0,0,0,.66,3.27,5.9,5.9,0,0,0,.85,1.37,4.25,4.25,0,0,1,1.09,2.24,4.42,4.42,0,0,1-1.19,2.44c-.2.27-.4.53-.56.79a4.9,4.9,0,0,0-1,2.79,1.11,1.11,0,0,0,1.49.89c0,1.31.37,2.62-.19,3.56-1.31,1.88-3,3.75-2.06,5.62,1.5,2.63,3.75-1.5,5.44-2.43v.37c1.5-1.12,1.31-3,1.87-4.31,1.35-3.11,4.36-4.15,7.57-4.21a2.53,2.53,0,0,1,.38-.88l.23-.44a7.438,7.438,0,0,0,.47-1.18,7.843,7.843,0,0,1,.5-1.24,5.27,5.27,0,0,1,1.61-1.54h0l.18-.12a48.311,48.311,0,0,1-3.47-8.35c-.75-2.63,0-5.25.94-7.88,1.31-4.87-1.88-8.25-5.63-11.06-2.43-1.87-5.81-2.62-6.75-5.25-3.75-11.06,7.5-18.74,14.81-25.87,3.94-3.74,8.63-6.18,12.38-10.12a1.72,1.72,0,0,0,0-2.25,5.81,5.81,0,0,1-.75-9.56c7.68-6.37,17.43-9.18,23.61-17.06.75-1.12-.37-4.31.75-4.5,6.19-1.68,12.38-1.68,18.56-3.93,1.5-.56,1.69-2.25,2.25-2.63a51.6,51.6,0,0,1,14.44-7.87c3-1.12,2.25-4.87,2.81-7.87,8.43,0,17.06-.38,25.49.18,7.31.38,13.87,3.75,19.12,9.38A17.491,17.491,0,0,0,358,60.7a17.811,17.811,0,0,1,3.29-1.53A20.189,20.189,0,0,0,364.05,58c.53-.3.91-.54,1.22-.74a2.21,2.21,0,0,1,1.13-.51,5.36,5.36,0,0,1,1.67.54l.48.19c.47.19.91.39,1.33.57a9.67,9.67,0,0,0,3.63,1.1h.11Z" fill="#ffc76c"/>
        <path id="Path_106798" data-name="Path 106798" d="M227.1,183.47c-.56,1.31-.37,3.19-1.87,4.31v-.37c-1.69.94-3.94,5.06-5.44,2.44-.94-1.88.75-3.75,2.06-5.63.56-.93.19-2.25.19-3.56a1.11,1.11,0,0,1-1.49-.88,5.506,5.506,0,0,0,0,.57,4.54,4.54,0,0,0,.36,1.12c.25.63.56,1.42.38,1.74a3.133,3.133,0,0,1-.6.28l-.26.11a1.55,1.55,0,0,1-.78.18h-.3a1.42,1.42,0,0,0-1.16.67.62.62,0,0,0,0,.77l.09.18a1.822,1.822,0,0,0,.1.19c.12.23.33.62.26.8a3,3,0,0,1-.86.52l-.2.1a1.608,1.608,0,0,1-.33.15,1.35,1.35,0,0,0-.63.43,1.4,1.4,0,0,0-.29,1.42,4.23,4.23,0,0,0,.48.86c.36.53.67,1,.34,1.63a2,2,0,0,0-.21,1.26,4.439,4.439,0,0,1,0,.55,1.621,1.621,0,0,1-.05.4,1.18,1.18,0,0,0,0,.62,1.35,1.35,0,0,0,.56.62.75.75,0,0,0,.4.13.77.77,0,0,0,.43-.15,1.751,1.751,0,0,1,.24-.11,1,1,0,0,1,.29-.05c1,0,1.48,2,1.8,3.27.08.31.14.59.21.79s0,.15.07.25c.29,1,.9,3,1.87,3a.55.55,0,0,0,.18,0c.61-.16.52-1.48.46-2.36v-.55a5.32,5.32,0,0,1,1-2.39l.24-.38a2.173,2.173,0,0,0,.11-.23c.07-.15.09-.19.36-.25a.68.68,0,0,1,.21,0,3.651,3.651,0,0,1,.77.13,4.5,4.5,0,0,0,.44.1,3.153,3.153,0,0,0,.44,0,1.75,1.75,0,0,0,1.78-1.07c.1-.27.18-.54.28-.84a6.7,6.7,0,0,1,1.22-2.58,1.88,1.88,0,0,1,.81-.44,3,3,0,0,0,.58-.25.62.62,0,0,0,.31-.39c.08-.35-.19-.76-.43-1.12a1.3,1.3,0,0,1-.1-.15,3.2,3.2,0,0,0-.26-.3c-.37-.4-1.06-1.14-1-1.58a.3.3,0,0,1,.13-.21h.09A5.06,5.06,0,0,1,232,188c.27.17.51.32.65.39h.07l.05-.06c.53-.84.17-1.92-.15-2.88-.11-.33-.22-.64-.28-.91a1,1,0,0,1,.51-1.14.51.51,0,0,1,.22,0,3.14,3.14,0,0,1,1.41.64,6.308,6.308,0,0,0,.6.36h.06l.05-.05c.31-.31.11-1,0-1.55a2.67,2.67,0,0,1-.09-.36l-.15-.76a13.346,13.346,0,0,1-.29-1.88,2.691,2.691,0,0,1,0-.6C231.46,179.32,228.45,180.36,227.1,183.47Z" fill="#ffe18d"/>
        <path id="Path_106799" data-name="Path 106799" d="M315.31,41.45a.59.59,0,0,1-.08-1.17l1-.13a.59.59,0,1,1,.13,1.17l-1,.13Z" fill="#ff382e"/>
        <path id="Path_106800" data-name="Path 106800" d="M220.92,187.33a.58.58,0,0,1-.45-.21.6.6,0,0,1,.07-.84l1.58-1.32a.6.6,0,0,1,.84.07.59.59,0,0,1-.08.83l-1.58,1.33a.59.59,0,0,1-.38.14Zm3.16-2.66a.6.6,0,0,1-.45-.21.59.59,0,0,1,.07-.83l1.59-1.33a.59.59,0,1,1,.76.9l-1.59,1.33A.54.54,0,0,1,224.08,184.67Zm3.17-2.66a.6.6,0,0,1-.46-.21.59.59,0,0,1,.08-.83l.25-.21a8.929,8.929,0,0,0,1.14-1.16.59.59,0,0,1,.91.75,8.879,8.879,0,0,1-1.29,1.31l-.25.21a.56.56,0,0,1-.38.13Zm2.59-3.17a.54.54,0,0,1-.27-.07.58.58,0,0,1-.26-.79,11,11,0,0,0,.73-1.82.59.59,0,1,1,1.13.34,11.642,11.642,0,0,1-.8,2,.61.61,0,0,1-.53.34Zm1.21-3.93H231a.6.6,0,0,1-.5-.67,15.647,15.647,0,0,0,.18-2,.58.58,0,0,1,.61-.57.59.59,0,0,1,.57.61,17.771,17.771,0,0,1-.19,2.12.58.58,0,0,1-.62.51Zm.15-4.12a.6.6,0,0,1-.59-.56,15.361,15.361,0,0,0-.19-2,.59.59,0,1,1,1.17-.15c.1.72.17,1.42.2,2.1a.58.58,0,0,1-.55.62Zm-.53-4.1a.61.61,0,0,1-.58-.48c-.12-.65-.27-1.32-.44-2a.59.59,0,0,1,.44-.71.58.58,0,0,1,.71.43c.17.69.33,1.38.46,2a.6.6,0,0,1-.47.7Zm-1-4a.59.59,0,0,1-.56-.43c-.19-.64-.4-1.29-.62-1.94a.59.59,0,0,1,.36-.75.6.6,0,0,1,.76.37c.22.66.44,1.33.63,2a.58.58,0,0,1-.4.73.47.47,0,0,1-.16.01Zm-1.33-3.92a.58.58,0,0,1-.55-.38c-.24-.62-.5-1.26-.77-1.89a.592.592,0,1,1,1.09-.46c.27.64.54,1.29.78,1.93a.59.59,0,0,1-.34.77.76.76,0,0,1-.2.02Zm-1.61-3.8a.6.6,0,0,1-.54-.34c-.29-.62-.59-1.24-.9-1.84a.595.595,0,1,1,1.06-.54c.31.62.62,1.25.91,1.88a.59.59,0,0,1-.28.78.61.61,0,0,1-.24.09Zm-1.88-3.68a.59.59,0,0,1-.52-.31c-.34-.61-.68-1.2-1-1.76a.59.59,0,0,1,.2-.81.58.58,0,0,1,.81.19c.35.57.71,1.18,1.06,1.81a.6.6,0,0,1-.52.88Zm-2.17-3.52a.59.59,0,0,1-.49-.26c-.37-.54-.74-1-1.09-1.48l-.12-.15a.59.59,0,1,1,.93-.72l.11.13c.37.46.76,1,1.15,1.55a.59.59,0,0,1-.15.82.62.62,0,0,1-.33.1Zm-2.32-3.42a.58.58,0,0,1-.53-.33,12.138,12.138,0,0,1-.74-2,.59.59,0,1,1,1.14-.3,10.552,10.552,0,0,0,.67,1.84.6.6,0,0,1-.28.79.58.58,0,0,1-.25-.01Zm-1.06-4a.59.59,0,0,1-.59-.53c-.06-.62-.1-1.3-.1-2v-.12a.6.6,0,0,1,.6-.59h0a.59.59,0,0,1,.59.59v.12a18.66,18.66,0,0,0,.09,1.88.59.59,0,0,1-.53.65Zm0-4.12h-.05a.58.58,0,0,1-.54-.63c.05-.65.12-1.33.22-2.09a.59.59,0,0,1,1.17.16c-.09.73-.16,1.4-.21,2a.6.6,0,0,1-.58.58Zm.51-4.1h-.09a.59.59,0,0,1-.49-.68c.09-.59.19-1.19.28-1.77v-.27a.59.59,0,1,1,1.16.19v.27c-.09.58-.19,1.18-.28,1.77a.6.6,0,0,1-.57.51Zm.65-4.08h-.09a.59.59,0,0,1-.49-.67c.11-.76.2-1.43.27-2a.594.594,0,1,1,1.18.14c-.08.62-.17,1.29-.28,2.06a.61.61,0,0,1-.58.49ZM221,124h0a.59.59,0,0,1-.56-.63q.06-.9.06-1.71v-.31a.6.6,0,0,1,.58-.6.59.59,0,0,1,.6.59c0,.1,0,.21,0,.32a15.911,15.911,0,0,1-.07,1.79A.59.59,0,0,1,221,124Zm-.09-4.12a.58.58,0,0,1-.58-.52l-.06-.38c-.09-.6-.15-1.18-.18-1.72a.59.59,0,0,1,.56-.62.61.61,0,0,1,.62.56,10.657,10.657,0,0,0,.17,1.59l.06.42a.59.59,0,0,1-.51.66Zm-.14-4.11h-.09a.59.59,0,0,1-.5-.67,7.72,7.72,0,0,1,.64-2.14.59.59,0,0,1,.79-.27.58.58,0,0,1,.28.78,6.4,6.4,0,0,0-.54,1.8.59.59,0,0,1-.63.46Zm1.75-3.66a.57.57,0,0,1-.4-.16.58.58,0,0,1,0-.83,10.769,10.769,0,0,1,1.64-1.43.607.607,0,1,1,.69,1,9.539,9.539,0,0,0-1.47,1.27.56.56,0,0,1-.51.11Zm3.29-2.47a.59.59,0,0,1-.51-.29.6.6,0,0,1,.21-.81c.51-.3,1.07-.61,1.83-1a.58.58,0,0,1,.8.24.6.6,0,0,1-.24.8c-.75.4-1.3.7-1.79,1a.54.54,0,0,1-.35.02Zm3.64-2a.594.594,0,0,1-.28-1.12l1.81-1a.6.6,0,0,1,.81.24.59.59,0,0,1-.24.8c-.67.37-1.3.7-1.83,1a.54.54,0,0,1-.32.08Zm3.62-2a.57.57,0,0,1-.51-.29.59.59,0,0,1,.21-.81l1.16-.69.6-.37a.59.59,0,0,1,.62,1l-.6.37c-.38.23-.78.47-1.19.7a.51.51,0,0,1-.36.1Zm3.51-2.17a.61.61,0,0,1-.5-.26.59.59,0,0,1,.17-.82c.66-.44,1.19-.82,1.64-1.17a.59.59,0,0,1,.83.09.6.6,0,0,1-.1.84,18.54,18.54,0,0,1-1.72,1.22.55.55,0,0,1-.37.11Zm3.16-2.62a.56.56,0,0,1-.37-.13.58.58,0,0,1-.09-.83,5,5,0,0,0,.86-1.62.59.59,0,0,1,.75-.37.58.58,0,0,1,.37.75,6.17,6.17,0,0,1-1.06,2,.58.58,0,0,1-.51.21Zm1.46-3.79h-.12a.58.58,0,0,1-.45-.7v-.18c.12-.54.25-1.15.42-1.84a.58.58,0,0,1,.71-.44.6.6,0,0,1,.44.71c-.17.68-.3,1.29-.41,1.82v.18a.59.59,0,0,1-.64.46Zm1-4a.44.44,0,0,1-.16,0,.59.59,0,0,1-.41-.73c.19-.65.4-1.32.63-2a.6.6,0,0,1,.75-.38.59.59,0,0,1,.37.75c-.22.66-.43,1.31-.61,2a.58.58,0,0,1-.64.36Zm1.32-3.91a.76.76,0,0,1-.21,0,.59.59,0,0,1-.34-.77c.26-.68.53-1.33.8-1.94a.593.593,0,0,1,1.08.49c-.27.58-.53,1.21-.78,1.87a.58.58,0,0,1-.62.35Zm1.71-3.75a.59.59,0,0,1-.29-.07.6.6,0,0,1-.23-.81,18,18,0,0,1,1.14-1.8.59.59,0,0,1,.82-.13.58.58,0,0,1,.14.82,15.822,15.822,0,0,0-1.06,1.69.6.6,0,0,1-.59.3Zm2.43-3.31a.56.56,0,0,1-.42-.18.6.6,0,0,1,0-.84,11.44,11.44,0,0,1,1.68-1.37.588.588,0,1,1,.65.98,10.759,10.759,0,0,0-1.5,1.23.55.55,0,0,1-.48.18Zm3.4-2.28a.57.57,0,0,1-.54-.36.58.58,0,0,1,.31-.77,15.528,15.528,0,0,1,2-.69.6.6,0,0,1,.73.42.58.58,0,0,1-.42.72,14.731,14.731,0,0,0-1.88.64.59.59,0,0,1-.26.04Zm4-1.11a.58.58,0,0,1-.58-.48.59.59,0,0,1,.47-.69l2-.35a.593.593,0,1,1,.19,1.17c-.61.1-1.33.21-2,.34ZM259,78a.59.59,0,0,1-.1-1.17l1.61-.27.39-.08a.59.59,0,1,1,.26,1.15l-.44.09-1.63.28Zm4-1a.59.59,0,0,1-.27-1.12,10.258,10.258,0,0,0,1.66-1,.58.58,0,0,1,.82.11.59.59,0,0,1-.11.83,10.751,10.751,0,0,1-1.84,1.15A.65.65,0,0,1,263,77Zm3.29-2.45a.63.63,0,0,1-.42-.17.59.59,0,0,1,0-.84c.44-.44.88-.93,1.35-1.49a.6.6,0,0,1,.84-.07.59.59,0,0,1,.07.83c-.5.59-1,1.1-1.43,1.57a.61.61,0,0,1-.4.15ZM269,71.39a.62.62,0,0,1-.36-.12.59.59,0,0,1-.11-.83c.43-.57.86-1.16,1.22-1.66a.61.61,0,1,1,1,.7c-.36.5-.8,1.09-1.24,1.67a.57.57,0,0,1-.51.24Zm2.44-3.34a.6.6,0,0,1-.48-.94c.49-.66.88-1.19,1.26-1.67a.59.59,0,0,1,.83-.1.6.6,0,0,1,.1.83c-.36.46-.75,1-1.23,1.64a.63.63,0,0,1-.5.24ZM274,64.8a.58.58,0,0,1-.39-.15.59.59,0,0,1-.06-.83c.51-.58,1-1.08,1.47-1.53a.59.59,0,0,1,.84,0,.6.6,0,0,1,0,.84,19.588,19.588,0,0,0-1.39,1.45A.6.6,0,0,1,274,64.8Zm3-2.8a.58.58,0,0,1-.48-.25.59.59,0,0,1,.14-.83,12,12,0,0,1,1.88-1.08.6.6,0,0,1,.79.3.59.59,0,0,1-.3.78,10.328,10.328,0,0,0-1.69,1A.6.6,0,0,1,277,62Zm3.74-1.66a.6.6,0,0,1-.58-.47.61.61,0,0,1,.47-.7h.24l1.77-.35a.6.6,0,0,1,.71.45.59.59,0,0,1-.45.7q-.88.2-1.83.36h-.21Zm4-.89a.59.59,0,0,1-.57-.44.61.61,0,0,1,.41-.73c.67-.18,1.32-.39,1.94-.6a.59.59,0,0,1,.39,1.11q-1,.35-2,.63a.41.41,0,0,1-.14.03Zm3.89-1.39a.6.6,0,0,1-.54-.35.59.59,0,0,1,.3-.78,19.921,19.921,0,0,0,1.79-.9.58.58,0,0,1,.81.22.59.59,0,0,1-.22.8c-.6.34-1.23.66-1.9,1a.52.52,0,0,1-.21.01ZM292.24,56a.591.591,0,0,1-.35-1.07,15.723,15.723,0,0,0,1.52-1.27.591.591,0,1,1,.82.85,15.736,15.736,0,0,1-1.64,1.38A.66.66,0,0,1,292.24,56Zm3-2.86a.6.6,0,0,1-.36-.12.59.59,0,0,1-.11-.83,12.072,12.072,0,0,0,1.09-1.65.61.61,0,0,1,.81-.23.6.6,0,0,1,.22.81,12.58,12.58,0,0,1-1.18,1.79.57.57,0,0,1-.51.24Zm2-3.59a.52.52,0,0,1-.21,0,.59.59,0,0,1-.35-.76c.06-.15.12-.3.17-.46a5.24,5.24,0,0,1,.85-1.52.591.591,0,0,1,.93.73,3.879,3.879,0,0,0-.66,1.18l-.18.49a.58.58,0,0,1-.58.35Zm2.43-3.23a.63.63,0,0,1-.48-.24.6.6,0,0,1,.13-.83,14.222,14.222,0,0,1,1.84-1.13.6.6,0,0,1,.8.26.58.58,0,0,1-.25.79,13,13,0,0,0-1.69,1,.59.59,0,0,1-.38.16Zm3.64-1.94a.61.61,0,0,1-.55-.37.6.6,0,0,1,.33-.77c.61-.25,1.28-.49,2-.72a.59.59,0,0,1,.75.37.6.6,0,0,1-.38.75c-.67.22-1.32.46-1.91.7a.54.54,0,0,1-.27.05Zm3.92-1.31a.59.59,0,0,1-.15-1.16c.64-.18,1.33-.35,2-.52a.6.6,0,0,1,.27,1.16c-.68.16-1.35.33-2,.5Zm4-.94a.6.6,0,0,1-.12-1.18c.68-.13,1.37-.26,2.06-.37a.59.59,0,0,1,.68.48.6.6,0,0,1-.49.69q-1,.16-2,.36Z" fill="#ff382e"/>
        <path id="Path_106801" data-name="Path 106801" d="M218.47,189.39a.58.58,0,0,1-.45-.21.6.6,0,0,1,.07-.84l.79-.66a.59.59,0,0,1,.83.07.6.6,0,0,1-.07.84l-.79.66a.59.59,0,0,1-.38.14Z" fill="#ff382e"/>
        <path id="Path_106802" data-name="Path 106802" d="M231.19,170.6a.6.6,0,0,1-.46-.21.61.61,0,0,1,.09-.84s.63-.51,1.63-1.29a.591.591,0,0,1,.73.93c-1,.77-1.61,1.28-1.61,1.28A.6.6,0,0,1,231.19,170.6Zm3.25-2.54a.6.6,0,0,1-.47-.23.59.59,0,0,1,.11-.83l1.65-1.25a.6.6,0,0,1,.83.12.59.59,0,0,1-.12.83l-1.64,1.24a.6.6,0,0,1-.36.12Zm3.31-2.46a.57.57,0,0,1-.48-.24.6.6,0,0,1,.13-.83c.58-.42,1.15-.82,1.69-1.19a.592.592,0,1,1,.68.97l-1.68,1.18A.53.53,0,0,1,237.75,165.6Zm3.39-2.33a.61.61,0,0,1-.5-.27.59.59,0,0,1,.17-.82c.63-.41,1.23-.78,1.77-1.11a.6.6,0,0,1,.81.21.59.59,0,0,1-.2.81c-.54.32-1.12.68-1.73,1.08a.55.55,0,0,1-.32.1Zm3.55-2.09a.59.59,0,0,1-.27-1.12,8.579,8.579,0,0,1,2.07-.78.58.58,0,0,1,.69.46.59.59,0,0,1-.46.7,8,8,0,0,0-1.77.68.65.65,0,0,1-.26.06Zm3.94-1.07a.58.58,0,0,1-.58-.5.6.6,0,0,1,.49-.68l2.05-.29a.59.59,0,0,1,.66.51.6.6,0,0,1-.51.67c-.68.08-1.34.18-2,.28Zm4.07-.53a.58.58,0,0,1-.58-.53.59.59,0,0,1,.52-.65l2.06-.19a.6.6,0,0,1,.64.54.59.59,0,0,1-.54.64l-2,.19Zm4.1-.33a.59.59,0,1,1,0-1.18l2.07-.11a.6.6,0,0,1,.05,1.19c-.69,0-1.38.06-2.05.1Zm4.1-.17a.59.59,0,1,1,0-1.18h2.06a.59.59,0,0,1,.59.59.6.6,0,0,1-.59.6h-2ZM265,159a.59.59,0,0,1-.58-.47.6.6,0,0,1,.47-.7,6.389,6.389,0,0,0,1.75-.66.61.61,0,0,1,.8.26.59.59,0,0,1-.25.8,8.13,8.13,0,0,1-2.07.76Zm3.67-1.78a.61.61,0,0,1-.49-.25.6.6,0,0,1,.15-.83c.51-.35,1.05-.76,1.61-1.21a.59.59,0,0,1,.83.08.6.6,0,0,1-.08.84c-.59.47-1.15.9-1.68,1.27a.61.61,0,0,1-.34.06Zm3.2-2.58a.59.59,0,0,1-.39-1.03c.48-.44,1-.9,1.48-1.4a.594.594,0,0,1,.83.85c-.52.5-1,1-1.52,1.42a.55.55,0,0,1-.4.12Zm3-2.87a.59.59,0,0,1-.42-1c.45-.47.93-1,1.41-1.49a.591.591,0,0,1,.86.81c-.48.52-1,1-1.42,1.5a.6.6,0,0,1-.47.14Zm2.81-3a.62.62,0,0,1-.4-.15.59.59,0,0,1,0-.83c.44-.49.89-1,1.35-1.54a.6.6,0,0,1,.84-.06.61.61,0,0,1,.06.84l-1.37,1.55a.59.59,0,0,1-.52.13Zm2.7-3.1a.59.59,0,0,1-.45-1c.43-.5.87-1,1.31-1.57a.59.59,0,0,1,.91.75l-1.32,1.59a.62.62,0,0,1-.49.17Zm2.62-3.18a.59.59,0,0,1-.46-1l1.28-1.61a.594.594,0,1,1,.93.74l-1.29,1.61a.58.58,0,0,1-.46.2Zm2.56-3.23a.58.58,0,0,1-.36-.12.59.59,0,0,1-.11-.83l1.26-1.63a.592.592,0,0,1,.94.72L286,139a.61.61,0,0,1-.48.2Zm2.51-3.27a.54.54,0,0,1-.36-.12.59.59,0,0,1-.12-.82l1.24-1.65a.593.593,0,0,1,.95.71l-1.24,1.65a.61.61,0,0,1-.54.17Zm2.46-3.3a.63.63,0,0,1-.35-.11.6.6,0,0,1-.13-.83l1.22-1.66a.59.59,0,0,1,.82-.13.58.58,0,0,1,.13.83c-.4.56-.81,1.12-1.21,1.66a.6.6,0,0,1-.52.18Zm2.42-3.33a.59.59,0,0,1-.48-.94l1.2-1.67a.6.6,0,0,1,1,.68l-1.21,1.68a.58.58,0,0,1-.55.19Zm2.4-3.36a.66.66,0,0,1-.35-.11.6.6,0,0,1-.14-.83l1.05-1.48.14-.21a.6.6,0,0,1,1,.68l-.14.2-1,1.5a.61.61,0,0,1-.6.19Zm2.69-3a.6.6,0,0,1-.55-.36.61.61,0,0,1,.32-.78c.64-.26,1.25-.55,1.81-.84a.59.59,0,1,1,.55,1c-.59.31-1.23.61-1.9.89a.62.62,0,0,1-.27.09Zm3.62-1.91a.59.59,0,0,1-.34-1.08,11.22,11.22,0,0,0,1.53-1.22.6.6,0,0,1,.84,0,.59.59,0,0,1,0,.83A14.191,14.191,0,0,1,302,121a.58.58,0,0,1-.38.05Zm2.95-2.81a.53.53,0,0,1-.34-.11.59.59,0,0,1-.14-.83,8.536,8.536,0,0,0,1-1.66.6.6,0,0,1,.79-.3.59.59,0,0,1,.29.78,10.3,10.3,0,0,1-1.08,1.88.57.57,0,0,1-.56.2Zm1.7-3.71a.39.39,0,0,1-.15,0,.58.58,0,0,1-.42-.72c.12-.46.22-.91.32-1.34l.15-.65a.58.58,0,0,1,.71-.43.59.59,0,0,1,.44.71q-.07.3-.15.63c-.1.44-.2.9-.33,1.38a.59.59,0,0,1-.61.38Zm1.15-3.93a.56.56,0,0,1-.3-.08.58.58,0,0,1-.21-.8,3.44,3.44,0,0,1,1.8-1.56.591.591,0,0,1,.43,1.1,2.26,2.26,0,0,0-1.21,1,.59.59,0,0,1-.55.3Zm4.42-1.64h-.9a.59.59,0,0,1,0-1.18h.93a9.469,9.469,0,0,0,1.07,0,.6.6,0,0,1,.66.52.59.59,0,0,1-.53.65,9.549,9.549,0,0,1-1.27.01Zm3.14-.49a.59.59,0,0,1-.56-.41.6.6,0,0,1,.38-.75,10.161,10.161,0,0,0,1.76-.78.59.59,0,1,1,.58,1,11.28,11.28,0,0,1-2,.88.57.57,0,0,1-.18.02Zm3.56-2a.6.6,0,0,1-.46-.21.59.59,0,0,1,.08-.83,16.515,16.515,0,0,0,1.42-1.37.595.595,0,0,1,.88.8,16.466,16.466,0,0,1-1.55,1.48.58.58,0,0,1-.41.08Zm2.77-3a.58.58,0,0,1-.35-.11.6.6,0,0,1-.13-.83c.38-.51.75-1.07,1.11-1.67a.6.6,0,0,1,.82-.2.61.61,0,0,1,.19.82c-.38.62-.77,1.21-1.16,1.75a.6.6,0,0,1-.52.17Zm2.15-3.5a.59.59,0,0,1-.52-.87c.37-.71.69-1.38.91-1.82a.59.59,0,1,1,1.06.51c-.21.45-.55,1.14-.93,1.86a.59.59,0,0,1-.56.25Zm1.8-3.7a.65.65,0,0,1-.26-.06.6.6,0,0,1-.27-.79l.3-.59a12.407,12.407,0,0,1,.81-1.26.607.607,0,0,1,1,.69,11.321,11.321,0,0,0-.72,1.13c-.09.16-.18.33-.28.55a.61.61,0,0,1-.62.26Zm2.3-3.4a.61.61,0,0,1-.36-.13.6.6,0,0,1-.1-.84c.41-.5.85-1,1.33-1.6a.58.58,0,0,1,.83-.06.59.59,0,0,1,.07.83c-.47.55-.91,1.08-1.3,1.57a.6.6,0,0,1-.51.16Zm2.67-3.14a.58.58,0,0,1-.39-.15.59.59,0,0,1,0-.84l1.39-1.53a.594.594,0,0,1,.87.81c-.47.5-.93,1-1.38,1.51a.6.6,0,0,1-.53.13Zm2.8-3a.62.62,0,0,1-.41-.17.6.6,0,0,1,0-.84c.48-.49,1-1,1.46-1.47a.59.59,0,0,1,.83.84c-.48.48-1,1-1.44,1.46a.6.6,0,0,1-.51.1ZM336,83.8a.61.61,0,0,1-.43-.19.6.6,0,0,1,0-.84c.51-.48,1-1,1.52-1.4a.6.6,0,0,1,.84,0,.59.59,0,0,1-.05.83q-.74.66-1.5,1.38a.6.6,0,0,1-.38.22Zm3-2.74a.59.59,0,0,1-.38-1c.57-.47,1.12-.9,1.64-1.29a.61.61,0,0,1,.7,1c-.5.37-1,.8-1.59,1.26A.58.58,0,0,1,339,81.06Zm3.3-2.45a.58.58,0,0,1-.5-.27.6.6,0,0,1,.19-.82,15.069,15.069,0,0,1,1.62-.89l.24-.11a.59.59,0,0,1,.79.26.61.61,0,0,1-.27.8l-.27.13a11.22,11.22,0,0,0-1.48.81.54.54,0,0,1-.28.09Zm3.49-2.13a.59.59,0,0,1-.42-1A5.279,5.279,0,0,0,346.49,74a.6.6,0,0,1,.8-.26.58.58,0,0,1,.26.79,6.67,6.67,0,0,1-1.31,1.81.62.62,0,0,1-.41.14Zm1.89-3.58h-.15a.59.59,0,0,1-.42-.72c.13-.52.25-1,.37-1.6a1.718,1.718,0,0,1,.08-.38.593.593,0,0,1,1.16.25l-.09.38c-.11.54-.23,1.11-.38,1.65a.6.6,0,0,1-.53.42Zm1-4a.47.47,0,0,1-.17,0,.58.58,0,0,1-.39-.74,11.12,11.12,0,0,1,.81-2,.593.593,0,1,1,1.05.55,9,9,0,0,0-.73,1.8A.6.6,0,0,1,348.68,68.9Zm1.94-3.58a.59.59,0,0,1-.44-1,5.224,5.224,0,0,1,.46-.48,3.91,3.91,0,0,0,.71-1,.593.593,0,1,1,1.06.53,4.75,4.75,0,0,1-1,1.31l-.4.42a.57.57,0,0,1-.39.22Zm2-3.52a.78.78,0,0,1-.21,0,.59.59,0,0,1-.34-.77,2.73,2.73,0,0,1,1.52-1.76h.12a.592.592,0,1,1,.44,1.1h-.13c-.37.14-.6.44-.85,1.09a.59.59,0,0,1-.56.34Zm3.2-2.28a.593.593,0,0,1-.25-1.13c.64-.29,1.25-.59,1.82-.89a.59.59,0,1,1,.55,1c-.59.31-1.22.61-1.88.91a.53.53,0,0,1-.25.11Zm3.62-1.93a.61.61,0,0,1-.5-.28.59.59,0,0,1,.19-.81c.59-.38,1.13-.77,1.61-1.15a.59.59,0,0,1,.84.09.6.6,0,0,1-.09.83,20.9,20.9,0,0,1-1.73,1.23.62.62,0,0,1-.33.09ZM362.6,55a.59.59,0,0,1-.44-1,8.088,8.088,0,0,0,1.1-1.56.6.6,0,0,1,1.05.56A9.213,9.213,0,0,1,363,54.8a.58.58,0,0,1-.4.2Zm1.83-3.61h-.09a.59.59,0,0,1-.5-.67,4.623,4.623,0,0,0,.06-.74,5.216,5.216,0,0,0-.12-1.1.59.59,0,0,1,.46-.7.6.6,0,0,1,.7.46,6.845,6.845,0,0,1,.14,1.34,5.488,5.488,0,0,1-.07.91.58.58,0,0,1-.58.49Zm-.78-4a.59.59,0,0,1-.52-.32,11.2,11.2,0,0,0-1.06-1.62.59.59,0,0,1,.1-.84.6.6,0,0,1,.83.1,12.191,12.191,0,0,1,1.18,1.82.58.58,0,0,1-.25.79.55.55,0,0,1-.28.1Zm-2.49-3.25a.61.61,0,0,1-.42-.16,18,18,0,0,0-1.5-1.33.6.6,0,0,1-.09-.83.59.59,0,0,1,.84-.09c.56.46,1.1.93,1.58,1.4a.6.6,0,0,1,0,.84.58.58,0,0,1-.41.2ZM358,41.59a.56.56,0,0,1-.33-.1c-.7-.47-1.17-.74-1.18-.74a.6.6,0,0,1-.22-.81.59.59,0,0,1,.8-.23s.52.29,1.26.8a.59.59,0,0,1,.16.82.58.58,0,0,1-.49.26Z" fill="#ff382e"/>
        <path id="Path_106803" data-name="Path 106803" d="M354.83,41c0,.27-1.05.49-2.34.49s-2.34-.22-2.34-.49,1.05-.49,2.34-.49S354.83,40.73,354.83,41Z" fill="#e2dbd9" style="mix-blend-mode: multiply;isolation: isolate"/>
        <path id="Path_106804" data-name="Path 106804" d="M356,34.88a3.68,3.68,0,0,1-.2,1.2c-.5,1.42-3.45,5.05-3.45,5.05H352a38.446,38.446,0,0,1-3.12-5.07,3.57,3.57,0,0,1-.2-1.18,3.65,3.65,0,1,1,7.3,0Z" fill="#d82416"/>
        <path id="Path_106805" data-name="Path 106805" d="M355.64,34.88a3.691,3.691,0,0,1-.21,1.2c-.49,1.42-3.44,5.05-3.44,5.05s-3-3.64-3.46-5.07a3.84,3.84,0,0,1-.19-1.18,3.65,3.65,0,1,1,7.3,0Z" fill="#ff3c22"/>
        <path id="Path_106806" data-name="Path 106806" d="M353.8,34.83a1.75,1.75,0,1,1-1.75-1.75,1.75,1.75,0,0,1,1.75,1.75Z" fill="#fff"/>
        <path id="Path_106807" data-name="Path 106807" d="M324.55,51c0,.27-1,.49-2.33.49s-2.34-.22-2.34-.49,1.05-.49,2.34-.49S324.55,50.7,324.55,51Z" fill="#e2dbd9" style="mix-blend-mode: multiply;isolation: isolate"/>
        <path id="Path_106808" data-name="Path 106808" d="M325.7,44.85a3.441,3.441,0,0,1-.21,1.2c-.49,1.42-3.44,5.05-3.44,5.05h-.34a40.3,40.3,0,0,1-3.12-5.1,3.84,3.84,0,0,1-.19-1.18,3.65,3.65,0,1,1,7.3,0Z" fill="#d82416"/>
        <path id="Path_106809" data-name="Path 106809" d="M325.36,44.85a3.68,3.68,0,0,1-.2,1.2c-.5,1.42-3.45,5.05-3.45,5.05s-3-3.64-3.45-5.07a3.571,3.571,0,0,1-.2-1.18,3.65,3.65,0,0,1,7.3,0Z" fill="#ff3c22"/>
        <path id="Path_106810" data-name="Path 106810" d="M323.52,44.8a1.75,1.75,0,1,1-.495-1.27,1.75,1.75,0,0,1,.495,1.27Z" fill="#fff"/>
        <path id="Path_106811" data-name="Path 106811" d="M270.75,88.68c0,.27-1,.49-2.33.49s-2.34-.22-2.34-.49,1-.48,2.34-.48S270.75,88.41,270.75,88.68Z" fill="#e2dbd9" style="mix-blend-mode: multiply;isolation: isolate"/>
        <path id="Path_106812" data-name="Path 106812" d="M271.9,82.56a3.641,3.641,0,0,1-.21,1.2c-.49,1.43-3.44,5.06-3.44,5.06h-.34a39.828,39.828,0,0,1-3.12-5.08,3.839,3.839,0,0,1-.19-1.18,3.65,3.65,0,1,1,7.3,0Z" fill="#d82416"/>
        <path id="Path_106813" data-name="Path 106813" d="M271.56,82.56a3.64,3.64,0,0,1-.2,1.2c-.5,1.43-3.45,5.06-3.45,5.06s-3-3.64-3.45-5.08a3.57,3.57,0,0,1-.2-1.18,3.65,3.65,0,1,1,7.3,0Z" fill="#ff3c22"/>
        <path id="Path_106814" data-name="Path 106814" d="M269.72,82.51A1.75,1.75,0,1,1,268,80.76,1.75,1.75,0,0,1,269.72,82.51Z" fill="#fff"/>
        <path id="Path_106815" data-name="Path 106815" d="M209.14,71h17.94l-.07,6s-5.18,2-5.18,12.15h-8s-.38-10.51-5.77-12l-.81-.24.68-2.07.39-1.41Z" fill="#fdb66a"/>
        <path id="Path_106816" data-name="Path 106816" d="M227.09,71.54H208.98l-.13.39h18.22Z" fill="#9d6927"/>
        <path id="Path_106817" data-name="Path 106817" d="M227.07,72.48H208.68l-.2.62h18.57Z" fill="#9d6927"/>
        <path id="Path_106818" data-name="Path 106818" d="M213.88,89.23l-1.41,16.67h11.54l-2.18-16.67Z" fill="#9d6927"/>
        <path id="Path_106819" data-name="Path 106819" d="M207.3,76.94l-2,1.64a12.52,12.52,0,0,1,6.65,10.48l2,.17S213.79,78,207.3,76.94Z"/>
        <path id="Path_106820" data-name="Path 106820" d="M211.92,89.06l-3.13,15.26,3.68,1.58,1.41-16.67Z"/>
        <rect id="Rectangle_10702" data-name="Rectangle 10702" width="2.32" height="0.79" transform="translate(223.05 74.85)" fill="#ce9355"/>
        <rect id="Rectangle_10703" data-name="Rectangle 10703" width="2.32" height="0.79" transform="translate(221.77 75.88)" fill="#ce9355"/>
        <rect id="Rectangle_10704" data-name="Rectangle 10704" width="2.32" height="0.79" transform="translate(223.04 77.01)" fill="#ce9355"/>
        <rect id="Rectangle_10705" data-name="Rectangle 10705" width="2.32" height="0.79" transform="translate(220.61 78.34)" fill="#ce9355"/>
        <rect id="Rectangle_10706" data-name="Rectangle 10706" width="2.32" height="0.79" transform="translate(220.93 79.9)" fill="#ce9355"/>
        <rect id="Rectangle_10707" data-name="Rectangle 10707" width="2.32" height="0.79" transform="translate(217.56 82.72)" fill="#ce9355"/>
        <rect id="Rectangle_10708" data-name="Rectangle 10708" width="2.32" height="0.79" transform="translate(219.05 84.13)" fill="#ce9355"/>
        <rect id="Rectangle_10709" data-name="Rectangle 10709" width="2.32" height="0.79" transform="translate(211.85 77.79)" fill="#ce9355"/>
        <rect id="Rectangle_10710" data-name="Rectangle 10710" width="2.32" height="0.79" transform="translate(214.28 76.62)" fill="#ce9355"/>
        <rect id="Rectangle_10711" data-name="Rectangle 10711" width="2.32" height="0.79" transform="translate(214.28 84.91)" fill="#ce9355"/>
        <rect id="Rectangle_10712" data-name="Rectangle 10712" width="2.32" height="0.79" transform="translate(218.11 86.79)" fill="#ce9355"/>
        <rect id="Rectangle_10713" data-name="Rectangle 10713" width="2.32" height="0.79" transform="translate(219.21 92.19)" fill="#79552e"/>
        <rect id="Rectangle_10714" data-name="Rectangle 10714" width="1.88" height="0.64" transform="translate(216.45 94.14)" fill="#79552e"/>
        <rect id="Rectangle_10715" data-name="Rectangle 10715" width="1.88" height="0.64" transform="translate(218.72 96.09)" fill="#79552e"/>
        <rect id="Rectangle_10716" data-name="Rectangle 10716" width="1.88" height="0.64" transform="translate(219.9 97.89)" fill="#79552e"/>
        <path id="Path_106821" data-name="Path 106821" d="M205.27,78.58l.94-1.41V76.7l.07-.55.16-1.48.39-.55-.08-.86,2.39-2.23-1.84,5.91Z"/>
        <path id="Path_106822" data-name="Path 106822" d="M185.67,71h18l1,5s-6.28,3.07-6.28,13.2h-8s-.38-10.51-5.76-12l-.82-.24.69-2.07.38-1.41Z" fill="#fdb66a"/>
        <path id="Path_106823" data-name="Path 106823" d="M203.72,71.54H185.51l-.12.39H203.8Z" fill="#9d6927"/>
        <path id="Path_106824" data-name="Path 106824" d="M203.91,72.48h-18.7l-.19.62h19.02Z" fill="#9d6927"/>
        <path id="Path_106825" data-name="Path 106825" d="M190.41,89.23,189,105.9h11.54l-2.18-16.67Z" fill="#9d6927"/>
        <path id="Path_106826" data-name="Path 106826" d="M183.83,76.94l-2,1.64a12.52,12.52,0,0,1,6.65,10.48l2,.17S190.33,78,183.83,76.94Z"/>
        <path id="Path_106827" data-name="Path 106827" d="M188.45,89.06l-3.13,15.26L189,105.9l1.41-16.67Z"/>
        <rect id="Rectangle_10717" data-name="Rectangle 10717" width="2.32" height="0.79" transform="translate(199.59 74.85)" fill="#ce9355"/>
        <rect id="Rectangle_10718" data-name="Rectangle 10718" width="2.32" height="0.79" transform="translate(198.31 75.88)" fill="#ce9355"/>
        <rect id="Rectangle_10719" data-name="Rectangle 10719" width="2.32" height="0.79" transform="translate(199.57 77.01)" fill="#ce9355"/>
        <rect id="Rectangle_10720" data-name="Rectangle 10720" width="2.32" height="0.79" transform="translate(197.15 78.34)" fill="#ce9355"/>
        <rect id="Rectangle_10721" data-name="Rectangle 10721" width="2.32" height="0.79" transform="translate(197.46 79.9)" fill="#ce9355"/>
        <rect id="Rectangle_10722" data-name="Rectangle 10722" width="2.32" height="0.79" transform="translate(194.1 82.72)" fill="#ce9355"/>
        <rect id="Rectangle_10723" data-name="Rectangle 10723" width="2.32" height="0.79" transform="translate(195.58 84.13)" fill="#ce9355"/>
        <rect id="Rectangle_10724" data-name="Rectangle 10724" width="2.32" height="0.79" transform="translate(188.38 77.79)" fill="#ce9355"/>
        <rect id="Rectangle_10725" data-name="Rectangle 10725" width="2.32" height="0.79" transform="translate(190.81 76.62)" fill="#ce9355"/>
        <rect id="Rectangle_10726" data-name="Rectangle 10726" width="2.32" height="0.79" transform="translate(190.81 84.91)" fill="#ce9355"/>
        <rect id="Rectangle_10727" data-name="Rectangle 10727" width="2.32" height="0.79" transform="translate(194.64 86.79)" fill="#ce9355"/>
        <rect id="Rectangle_10728" data-name="Rectangle 10728" width="2.32" height="0.79" transform="translate(195.74 92.19)" fill="#79552e"/>
        <rect id="Rectangle_10729" data-name="Rectangle 10729" width="1.88" height="0.64" transform="translate(192.99 94.14)" fill="#79552e"/>
        <rect id="Rectangle_10730" data-name="Rectangle 10730" width="1.88" height="0.64" transform="translate(195.25 96.09)" fill="#79552e"/>
        <rect id="Rectangle_10731" data-name="Rectangle 10731" width="1.88" height="0.64" transform="translate(196.43 97.89)" fill="#79552e"/>
        <path id="Path_106828" data-name="Path 106828" d="M181.8,78.58l.94-1.41V76.7l.08-.55.15-1.48.39-.55-.08-.86,2.39-2.23-1.84,5.91Z"/>
        <path id="Path_106829" data-name="Path 106829" d="M162.68,71h17.95l1,5s-6.28,3.07-6.28,13.2h-7.94s-.39-10.51-5.77-12l-.82-.24.69-2.07.38-1.41Z" fill="#fdb66a"/>
        <path id="Path_106830" data-name="Path 106830" d="M180.73,71.54H162.52l-.12.39h18.41Z" fill="#9d6927"/>
        <path id="Path_106831" data-name="Path 106831" d="M180.93,72.48H162.22l-.19.62h19.03Z" fill="#9d6927"/>
        <path id="Path_106832" data-name="Path 106832" d="M167.43,89.23l-1.41,16.67h11.53l-2.18-16.67Z" fill="#9d6927"/>
        <path id="Path_106833" data-name="Path 106833" d="M160.84,76.94l-2,1.64a12.52,12.52,0,0,1,6.65,10.48l2,.17S167.34,78,160.84,76.94Z"/>
        <path id="Path_106834" data-name="Path 106834" d="M165.46,89.06l-3.13,15.26,3.69,1.58,1.41-16.67Z"/>
        <rect id="Rectangle_10732" data-name="Rectangle 10732" width="2.32" height="0.79" transform="translate(176.6 74.85)" fill="#ce9355"/>
        <rect id="Rectangle_10733" data-name="Rectangle 10733" width="2.32" height="0.79" transform="translate(175.32 75.88)" fill="#ce9355"/>
        <rect id="Rectangle_10734" data-name="Rectangle 10734" width="2.32" height="0.79" transform="translate(176.58 77.01)" fill="#ce9355"/>
        <rect id="Rectangle_10735" data-name="Rectangle 10735" width="2.32" height="0.79" transform="translate(174.16 78.34)" fill="#ce9355"/>
        <rect id="Rectangle_10736" data-name="Rectangle 10736" width="2.32" height="0.79" transform="translate(174.47 79.9)" fill="#ce9355"/>
        <rect id="Rectangle_10737" data-name="Rectangle 10737" width="2.32" height="0.79" transform="translate(171.11 82.72)" fill="#ce9355"/>
        <rect id="Rectangle_10738" data-name="Rectangle 10738" width="2.32" height="0.79" transform="translate(172.59 84.13)" fill="#ce9355"/>
        <rect id="Rectangle_10739" data-name="Rectangle 10739" width="2.32" height="0.79" transform="translate(165.4 77.79)" fill="#ce9355"/>
        <rect id="Rectangle_10740" data-name="Rectangle 10740" width="2.32" height="0.79" transform="translate(167.82 76.62)" fill="#ce9355"/>
        <rect id="Rectangle_10741" data-name="Rectangle 10741" width="2.32" height="0.79" transform="translate(167.82 84.91)" fill="#ce9355"/>
        <rect id="Rectangle_10742" data-name="Rectangle 10742" width="2.32" height="0.79" transform="translate(171.66 86.79)" fill="#ce9355"/>
        <rect id="Rectangle_10743" data-name="Rectangle 10743" width="2.32" height="0.79" transform="translate(172.75 92.19)" fill="#79552e"/>
        <rect id="Rectangle_10744" data-name="Rectangle 10744" width="1.88" height="0.64" transform="translate(170 94.14)" fill="#79552e"/>
        <rect id="Rectangle_10745" data-name="Rectangle 10745" width="1.88" height="0.64" transform="translate(172.27 96.09)" fill="#79552e"/>
        <rect id="Rectangle_10746" data-name="Rectangle 10746" width="1.88" height="0.64" transform="translate(173.44 97.89)" fill="#79552e"/>
        <path id="Path_106835" data-name="Path 106835" d="M158.81,78.58l.94-1.41V76.7l.08-.55.15-1.48.4-.55-.08-.86,2.38-2.23-1.84,5.91Z"/>
        <path id="Path_106836" data-name="Path 106836" d="M113.77,107l-10.53.16a1.09,1.09,0,0,1-1.09-1.08v-.36a1.09,1.09,0,0,1,1.09-1.09h13c.6,0,.12.8.12,1.4l-.32.32C116,106.92,114.37,107,113.77,107Z" fill="#428921"/>
        <path id="Path_106837" data-name="Path 106837" d="M105.16,64.85l-.27-4.37,1-.2a14.09,14.09,0,0,1,5.82,0l.71.15L112,65.06Z" fill="#fff"/>
        <path id="Path_106838" data-name="Path 106838" d="M112.4,60.42l-2.75-.57a4.3,4.3,0,0,0-1.75,0l-1.33.28a14.65,14.65,0,0,1,4,4.88h1.4Z" fill="#c0c4d8"/>
        <path id="Path_106839" data-name="Path 106839" d="M101.77,67s1.48-2.71,6.7-2.71c0,0,6.25.15,7.53,3.12Z" fill="#fff"/>
        <path id="Path_106840" data-name="Path 106840" d="M101.77,67.55s1.48-2.72,6.7-2.72c0,0,6.25.16,7.53,3.13Z" fill="#c0c4d8"/>
        <path id="Path_106841" data-name="Path 106841" d="M104.89,60.48s4.84-.75,7.51-.06A6.34,6.34,0,0,0,104.89,60.48Z" fill="#a5aab9"/>
        <path id="Path_106842" data-name="Path 106842" d="M101.41,67l-.21-1.92s4.37-3.75,13.52-1l1.5.55.07,2.39-.58-.24V64.97s-8-3.38-14.13.3l.21,1.54Z" fill="#005b67"/>
        <rect id="Rectangle_10747" data-name="Rectangle 10747" width="0.41" height="2.15" transform="matrix(0.974, -0.224, 0.224, 0.974, 103.699, 64.14)" fill="#005b67"/>
        <rect id="Rectangle_10748" data-name="Rectangle 10748" width="0.41" height="2.15" transform="translate(105.964 63.631) rotate(-4.77)" fill="#005b67"/>
        <rect id="Rectangle_10749" data-name="Rectangle 10749" width="0.41" height="2.15" transform="translate(109.164 63.406) rotate(3.77)" fill="#005b67"/>
        <rect id="Rectangle_10750" data-name="Rectangle 10750" width="0.41" height="2.15" transform="translate(112.526 63.987) rotate(14.19)" fill="#005b67"/>
        <path id="Path_106843" data-name="Path 106843" d="M100,71.74s.16,2.39,8.69,2.39c0,0,8,.21,9-2.39l-5.55-3.61L101.27,70l-1.16.95Z" fill="#8c96a9"/>
        <path id="Path_106844" data-name="Path 106844" d="M102.5,105.42l2.41-33.61,8.51.21,3.14,33.65Z" fill="#fafff4"/>
        <path id="Path_106845" data-name="Path 106845" d="M113.39,71.74l-.81-.24a12.69,12.69,0,0,0-7.07-.06l-.6.17-.44,5.57c7.22,7,7.46,17.94,8.58,28.43l3.51.06Z" fill="#c0c4d8"/>
        <rect id="Rectangle_10751" data-name="Rectangle 10751" width="1.77" height="2.32" transform="translate(107.82 72.97)" fill="#005b67"/>
        <rect id="Rectangle_10752" data-name="Rectangle 10752" width="1.77" height="2.32" transform="translate(107.82 80.34)" fill="#005b67"/>
        <rect id="Rectangle_10753" data-name="Rectangle 10753" width="1.77" height="2.32" transform="translate(112.81 89.83)" fill="#005b67"/>
        <rect id="Rectangle_10754" data-name="Rectangle 10754" width="1.57" height="2.32" transform="translate(111 73.04)" fill="#005b67"/>
        <path id="Path_106846" data-name="Path 106846" d="M105.64,105.53l-.48-6.9,4.3-2.59,3.48,2.93v1.85h-6.96l.21,4.64Z" fill="#c0c4d8"/>
        <path id="Path_106847" data-name="Path 106847" d="M106.53,105.53l.06-6.22,4.99.07.48,6.21Z" fill="#a5aab9"/>
        <path id="Path_106848" data-name="Path 106848" d="M113.56,98.16l-1.1.47.59,6.98Z" fill="#a5aab9"/>
        <path id="Path_106849" data-name="Path 106849" d="M118.13,68a18,18,0,0,0-18.56,0l.45,3.78a22.31,22.31,0,0,1,17.65,0Z" fill="#fafff4"/>
        <path id="Path_106850" data-name="Path 106850" d="M103.51,71.49s1.58.36,2,2.86h.52s-.46-2.4-2.1-3.07Z" fill="#c0c4d8"/>
        <path id="Path_106851" data-name="Path 106851" d="M104,71.28l2.71-.1-.61,3.17S105.3,71.74,104,71.28Z" fill="#8c96a9"/>
        <path id="Path_106852" data-name="Path 106852" d="M115.62,71.49s-1.59.36-2.05,2.86h-.51s.46-2.4,2.1-3.07Z" fill="#c0c4d8"/>
        <path id="Path_106853" data-name="Path 106853" d="M115.16,71.28l-2.71-.1.61,3.17S113.83,71.74,115.16,71.28Z" fill="#8c96a9"/>
        <path id="Path_106854" data-name="Path 106854" d="M112.14,70.92s-1.15.36-1.49,2.87h-.37s.34-2.4,1.53-3.07Z" fill="#c0c4d8"/>
        <path id="Path_106855" data-name="Path 106855" d="M111.81,70.72l-2-.1.44,3.17S110.84,71.18,111.81,70.72Z" fill="#8c96a9"/>
        <path id="Path_106856" data-name="Path 106856" d="M148.74,96.38s-3.58-6.91-1.15-8.38c0,0,1-.45,2,1.4,0,0-3.58-9.78-1-10.87,0,0,1.35-.45,2.88,4,0,0,.58-6.27,2.88-5.63,0,0,4.35-.19.83,13.43,0,0,2.11-2.94,3.71-1.86,0,0,2.75.77-1.6,7.87Z" fill="#00a443"/>
        <path id="Path_106857" data-name="Path 106857" d="M154.24,96.38s4.1-3.46,4.67-7.94c0,0,1.82.64.31,4.35l-.8,1.63a2.635,2.635,0,0,1-.15.29l-1,1.6Z" fill="#008935"/>
        <path id="Path_106858" data-name="Path 106858" d="M155.2,90.3l-2,6.09-1-2.92s4.75-11.28,2.16-16.6c0,0,1.41-.1,2,2.33C156.35,79.2,157.37,82.91,155.2,90.3Z" fill="#008935"/>
        <path id="Path_106859" data-name="Path 106859" d="M149.57,89.4s-3.61-9.72-1-10.87C148.61,78.53,147.34,81.31,149.57,89.4Z" fill="#008935"/>
        <path id="Path_106860" data-name="Path 106860" d="M151.49,82.5l.51,3.67L151.91,80a15.4,15.4,0,0,0-.42,2.5Z" fill="#008935"/>
        <path id="Path_106861" data-name="Path 106861" d="M165.74,99.93s-.85-5.89-3.9-5.78c0,0-2.31.1-2.31,3.78,0,0-.73-3.36-3.05-3.15A3.66,3.66,0,0,0,153.85,98s.42-9.78-3.26-10c0,0-3.36-.74-2.2,13.77l17.45-.1Z" fill="#00a443"/>
        <path id="Path_106862" data-name="Path 106862" d="M150.38,88.05A16.25,16.25,0,0,0,153,101.79h-4.62C147.41,89.54,149.67,88.18,150.38,88.05Z" fill="#008935"/>
        <path id="Path_106863" data-name="Path 106863" d="M153.85,98s.25,2.8,1.67,3.74h1.63s-4.28-3.26-1.28-6.74A3.55,3.55,0,0,0,153.85,98Z" fill="#008935"/>
        <path id="Path_106864" data-name="Path 106864" d="M159.53,97.93a6.84,6.84,0,0,0,1.71,2.68s-1.6-3.23-1.16-5.26a5.35,5.35,0,0,0-.55,2.58Z" fill="#008935"/>
        <path id="Path_106865" data-name="Path 106865" d="M151.91,92.45h0a.28.28,0,1,1,0,.56h0a.28.28,0,1,1,0-.56Z" fill="#008935"/>
        <path id="Path_106866" data-name="Path 106866" d="M151.65,93.24h0a.28.28,0,1,1,0,.56h0a.28.28,0,1,1,0-.56Z" fill="#008935"/>
        <path id="Path_106867" data-name="Path 106867" d="M151.73,96h0a.28.28,0,1,1,0,.56h0a.28.28,0,0,1,0-.56Z" fill="#008935"/>
        <path id="Path_106868" data-name="Path 106868" d="M150.78,89.93h0a.28.28,0,0,1,0,.56h0a.28.28,0,1,1,0-.56Z" fill="#008935"/>
        <path id="Path_106869" data-name="Path 106869" d="M157.81,97.79a.41.41,0,1,1-.41.41.41.41,0,0,1,.41-.41Z" fill="#008935"/>
        <path id="Path_106870" data-name="Path 106870" d="M159.06,99.43a.41.41,0,1,1-.41.41.41.41,0,0,1,.41-.41Z" fill="#008935"/>
        <path id="Path_106871" data-name="Path 106871" d="M162.32,97.58a.14.14,0,1,1-.14.14A.14.14,0,0,1,162.32,97.58Z" fill="#008935"/>
        <path id="Path_106872" data-name="Path 106872" d="M156.72,96.57a.14.14,0,1,1-.14.14A.14.14,0,0,1,156.72,96.57Z" fill="#008935"/>
        <path id="Path_106873" data-name="Path 106873" d="M136.09,96.38s3.59-6.91,1.16-8.38c0,0-1-.45-2,1.4,0,0,3.58-9.78,1-10.87,0,0-1.34-.45-2.88,4,0,0-.57-6.27-2.87-5.63,0,0-4.35-.19-.84,13.43,0,0-2.11-2.94-3.71-1.86,0,0-2.75.77,1.6,7.87Z" fill="#00a443"/>
        <path id="Path_106874" data-name="Path 106874" d="M130.59,96.38s-4.09-3.46-4.67-7.94c0,0-1.81.64-.3,4.35l.79,1.63a2.69,2.69,0,0,0,.16.29l1,1.6Z" fill="#008935"/>
        <path id="Path_106875" data-name="Path 106875" d="M129.63,90.3l2,6.09,1-2.92s-4.74-11.28-2.15-16.6c0,0-1.41-.1-2,2.33C128.48,79.2,127.47,82.91,129.63,90.3Z" fill="#008935"/>
        <path id="Path_106876" data-name="Path 106876" d="M135.26,89.4s3.62-9.72,1-10.87C136.22,78.53,137.5,81.31,135.26,89.4Z" fill="#008935"/>
        <path id="Path_106877" data-name="Path 106877" d="M133.34,82.5l-.51,3.67.1-6.14a15.74,15.74,0,0,1,.41,2.47Z" fill="#008935"/>
        <path id="Path_106878" data-name="Path 106878" d="M119.1,99.93s.84-5.89,3.89-5.78c0,0,2.31.1,2.31,3.78,0,0,.74-3.36,3-3.15A3.65,3.65,0,0,1,131,98s-.42-9.78,3.26-10c0,0,3.37-.74,2.21,13.77l-17.45-.1Z" fill="#00a443"/>
        <path id="Path_106879" data-name="Path 106879" d="M134.45,88.05a16.24,16.24,0,0,1-2.62,13.74h4.62C137.43,89.54,135.17,88.18,134.45,88.05Z" fill="#008935"/>
        <path id="Path_106880" data-name="Path 106880" d="M131,98s-.24,2.8-1.66,3.74H127.7S132,98.5,129,95a3.53,3.53,0,0,1,2,3Z" fill="#008935"/>
        <path id="Path_106881" data-name="Path 106881" d="M125.3,97.93a6.9,6.9,0,0,1-1.7,2.68s1.6-3.23,1.15-5.26a5.35,5.35,0,0,1,.55,2.58Z" fill="#008935"/>
        <path id="Path_106882" data-name="Path 106882" d="M132.92,92.45h0a.28.28,0,1,0,0,.56h0a.28.28,0,0,0,0-.56Z" fill="#008935"/>
        <path id="Path_106883" data-name="Path 106883" d="M133.19,93.24h0a.28.28,0,0,0,0,.56h0a.28.28,0,0,0,0-.56Z" fill="#008935"/>
        <path id="Path_106884" data-name="Path 106884" d="M133.11,96h0a.28.28,0,1,0,0,.56h0a.28.28,0,0,0,0-.56Z" fill="#008935"/>
        <path id="Path_106885" data-name="Path 106885" d="M134.05,89.93h0a.28.28,0,1,0,0,.56h0a.28.28,0,0,0,0-.56Z" fill="#008935"/>
        <path id="Path_106886" data-name="Path 106886" d="M127,97.79a.41.41,0,1,0,.41.41.41.41,0,0,0-.41-.41Z" fill="#008935"/>
        <path id="Path_106887" data-name="Path 106887" d="M125.77,99.43a.41.41,0,1,0,.41.41.41.41,0,0,0-.41-.41Z" fill="#008935"/>
        <path id="Path_106888" data-name="Path 106888" d="M122.52,97.58a.14.14,0,1,0,.14.14A.14.14,0,0,0,122.52,97.58Z" fill="#008935"/>
        <path id="Path_106889" data-name="Path 106889" d="M128.12,96.57a.14.14,0,1,0,.14.14A.14.14,0,0,0,128.12,96.57Z" fill="#008935"/>
        <path id="Path_106890" data-name="Path 106890" d="M151.78,95.71h-4.13L141,95.64h-2l-6.65.07h-4.13s-4.13.18-2.87,4.67l1.19,1.44h26.94l1.2-1.44C155.91,95.89,151.78,95.71,151.78,95.71Z" fill="#cfcfd1"/>
        <path id="Path_106891" data-name="Path 106891" d="M146.7,93c0,1.17-2.74,2.11-6.13,2.11s-6.12-.94-6.12-2.11,2.74-2.11,6.12-2.11S146.7,91.84,146.7,93Z" fill="#6c7585"/>
        <path id="Path_106892" data-name="Path 106892" d="M144.87,80.93,146.8,82a5,5,0,0,1,2.58,4.28l.15,7.67a1.73,1.73,0,0,1-1.73,1.77h-3.68s-.18-2-2.93-2.57Z" fill="#cfcfd1"/>
        <path id="Path_106893" data-name="Path 106893" d="M145.23,82.59s1.7,10-1.71,10.5l1.62-.22S146.89,90.76,145.23,82.59Z" fill="#abb0c1"/>
        <path id="Path_106894" data-name="Path 106894" d="M146.26,83.84s1.93,5.12-.63,9.07h1.3a2,2,0,0,1,1.44-.36s-.32-2.38-.63-5.75a2.68,2.68,0,0,0,.45-2.83s.18,1.26-.49,1.67a2.22,2.22,0,0,0-.09-1.4,1.61,1.61,0,0,1-.27,1.13A4.8,4.8,0,0,0,146.26,83.84Z" fill="#abb0c1"/>
        <path id="Path_106895" data-name="Path 106895" d="M146.93,93s.14-5.79.41-7.27l.22,6.91Z" fill="#6c7585"/>
        <path id="Path_106896" data-name="Path 106896" d="M149.4,87a3,3,0,0,1-.85,2.06l.94-.18a4.66,4.66,0,0,1-.94,2.25l1,.22-1,1.17.94.63-1.12-.09,1.21,1.17-1.17-.5.86,1.21s.47-.53.27-2.64Z" fill="#abb0c1"/>
        <path id="Path_106897" data-name="Path 106897" d="M145.83,95.72a2.64,2.64,0,0,0-1.91-2.4,2.79,2.79,0,0,1,2.48,2.39Z" fill="#abb0c1"/>
        <path id="Path_106898" data-name="Path 106898" d="M146.89,95.71A2.64,2.64,0,0,0,145,93.32a2.79,2.79,0,0,1,2.48,2.39Z" fill="#abb0c1"/>
        <path id="Path_106899" data-name="Path 106899" d="M145,95.72l-.55-.76-.33.75Z" fill="#6c7585"/>
        <path id="Path_106900" data-name="Path 106900" d="M135.52,80.93,133.59,82A5,5,0,0,0,131,86.27l-.15,7.67a1.73,1.73,0,0,0,1.73,1.77h3.68s.18-2,2.94-2.57Z" fill="#cfcfd1"/>
        <path id="Path_106901" data-name="Path 106901" d="M143.16,78.59l-2.61-.13h-.84l-2.6.13a2.3,2.3,0,0,1-.24,1.8h6.53A2.3,2.3,0,0,1,143.16,78.59Z" fill="#cfcfd1"/>
        <path id="Path_106902" data-name="Path 106902" d="M143.16,78.59l-2.61-.13h-.84l-2.6.13v.08a14.74,14.74,0,0,0,6.12,1.72h.15a2.3,2.3,0,0,1-.22-1.8Z" fill="#abb0c1"/>
        <path id="Path_106903" data-name="Path 106903" d="M144.91,71.78a4.82,4.82,0,1,1-4.79-4.45A4.77,4.77,0,0,1,144.91,71.78Z" fill="#6c7585"/>
        <path id="Path_106904" data-name="Path 106904" d="M139.24,67.16a.33.33,0,0,1,.46,0,.323.323,0,1,1-.49.42A.33.33,0,0,1,139.24,67.16Z" fill="#cfcfd1"/>
        <path id="Path_106905" data-name="Path 106905" d="M139.13,67.37a.49.49,0,0,1,.63-.06.24.24,0,0,0-.06-.11.33.33,0,0,0-.46,0,.36.36,0,0,0-.11.17Z" fill="#abb0c1"/>
        <path id="Path_106906" data-name="Path 106906" d="M139.82,67.16a.33.33,0,0,1,.46,0,.32.32,0,0,1,0,.45.33.33,0,0,1-.46,0,.34.34,0,0,1,0-.45Z" fill="#cfcfd1"/>
        <path id="Path_106907" data-name="Path 106907" d="M139.72,67.37a.48.48,0,0,1,.62-.06.24.24,0,0,0-.06-.11.33.33,0,0,0-.46,0A.35.35,0,0,0,139.72,67.37Z" fill="#abb0c1"/>
        <path id="Path_106908" data-name="Path 106908" d="M140.32,67.16a.32.32,0,1,1-.1.23.32.32,0,0,1,.1-.23Z" fill="#cfcfd1"/>
        <path id="Path_106909" data-name="Path 106909" d="M140.21,67.37a.49.49,0,0,1,.63-.06.41.41,0,0,0-.07-.11.32.32,0,0,0-.45,0A.31.31,0,0,0,140.21,67.37Z" fill="#abb0c1"/>
        <path id="Path_106910" data-name="Path 106910" d="M140.72,67.16a.33.33,0,0,1,.46,0,.323.323,0,1,1-.49.42.33.33,0,0,1,.03-.42Z" fill="#cfcfd1"/>
        <path id="Path_106911" data-name="Path 106911" d="M140.62,67.37a.48.48,0,0,1,.62-.06.24.24,0,0,0-.06-.11.33.33,0,0,0-.46,0A.3.3,0,0,0,140.62,67.37Z" fill="#abb0c1"/>
        <path id="Path_106912" data-name="Path 106912" d="M139.31,67.65a.326.326,0,1,1-.3-.3A.32.32,0,0,1,139.31,67.65Z" fill="#cfcfd1"/>
        <path id="Path_106913" data-name="Path 106913" d="M139.23,67.43a.47.47,0,0,1-.39.49.28.28,0,0,0,.13,0,.32.32,0,0,0,.34-.3A.35.35,0,0,0,139.23,67.43Z" fill="#abb0c1"/>
        <path id="Path_106914" data-name="Path 106914" d="M138.7,67.76a.32.32,0,0,1-.34.31.33.33,0,0,1-.3-.35.32.32,0,1,1,.64,0Z" fill="#cfcfd1"/>
        <path id="Path_106915" data-name="Path 106915" d="M138.63,67.54a.49.49,0,0,1-.4.49h.13a.32.32,0,0,0,.34-.31A.29.29,0,0,0,138.63,67.54Z" fill="#abb0c1"/>
        <path id="Path_106916" data-name="Path 106916" d="M139.91,67.65a.32.32,0,0,1-.34.3.31.31,0,0,1-.3-.34.321.321,0,1,1,.64.04Z" fill="#cfcfd1"/>
        <path id="Path_106917" data-name="Path 106917" d="M139.83,67.43a.47.47,0,0,1-.39.49.28.28,0,0,0,.13,0,.32.32,0,0,0,.34-.3.35.35,0,0,0-.08-.19Z" fill="#abb0c1"/>
        <path id="Path_106918" data-name="Path 106918" d="M140.45,67.65a.33.33,0,1,1-.3-.34.32.32,0,0,1,.3.34Z" fill="#cfcfd1"/>
        <path id="Path_106919" data-name="Path 106919" d="M140.37,67.43a.47.47,0,0,1-.39.49.28.28,0,0,0,.13,0,.32.32,0,0,0,.34-.3A.35.35,0,0,0,140.37,67.43Z" fill="#abb0c1"/>
        <path id="Path_106920" data-name="Path 106920" d="M141,67.65a.32.32,0,1,1-.079-.232A.32.32,0,0,1,141,67.65Z" fill="#cfcfd1"/>
        <path id="Path_106921" data-name="Path 106921" d="M141,67.43a.49.49,0,0,1-.4.49.28.28,0,0,0,.13,0,.32.32,0,0,0,.34-.3A.29.29,0,0,0,141,67.43Z" fill="#abb0c1"/>
        <path id="Path_106922" data-name="Path 106922" d="M141.52,67.66a.31.31,0,1,1-.29-.329A.31.31,0,0,1,141.52,67.66Z" fill="#cfcfd1"/>
        <path id="Path_106923" data-name="Path 106923" d="M141.45,67.45a.47.47,0,0,1-.38.47.27.27,0,0,0,.12,0,.31.31,0,0,0,.33-.29.26.26,0,0,0-.07-.18Z" fill="#abb0c1"/>
        <path id="Path_106924" data-name="Path 106924" d="M142.08,67.68a.28.28,0,0,1-.3.27.335.335,0,1,1,.3-.3Z" fill="#cfcfd1"/>
        <path id="Path_106925" data-name="Path 106925" d="M142,67.48a.44.44,0,0,1-.36.44.27.27,0,0,0,.12,0,.28.28,0,0,0,.3-.27A.3.3,0,0,0,142,67.48Z" fill="#abb0c1"/>
        <path id="Path_106926" data-name="Path 106926" d="M136.89,68.86a.37.37,0,0,1-.4.35.38.38,0,0,1-.36-.4.39.39,0,0,1,.4-.36.4.4,0,0,1,.36.41Z" fill="#cfcfd1"/>
        <path id="Path_106927" data-name="Path 106927" d="M136.8,68.59a.57.57,0,0,1-.46.58.33.33,0,0,0,.15,0,.37.37,0,0,0,.4-.35.38.38,0,0,0-.09-.23Z" fill="#abb0c1"/>
        <path id="Path_106928" data-name="Path 106928" d="M144.05,68.86a.37.37,0,0,1-.4.35.38.38,0,0,1-.36-.4.4.4,0,0,1,.41-.36A.39.39,0,0,1,144.05,68.86Z" fill="#cfcfd1"/>
        <path id="Path_106929" data-name="Path 106929" d="M144,68.59a.57.57,0,0,1-.46.58.33.33,0,0,0,.15,0,.37.37,0,0,0,.4-.35.38.38,0,0,0-.09-.23Z" fill="#abb0c1"/>
        <path id="Path_106930" data-name="Path 106930" d="M137.6,68.51a.38.38,0,0,1-.47.26.37.37,0,0,1-.27-.46.39.39,0,0,1,.47-.27.4.4,0,0,1,.27.47Z" fill="#cfcfd1"/>
        <path id="Path_106931" data-name="Path 106931" d="M137.57,68.23a.58.58,0,0,1-.58.47.31.31,0,0,0,.14.07.38.38,0,0,0,.47-.26.45.45,0,0,0-.03-.28Z" fill="#abb0c1"/>
        <path id="Path_106932" data-name="Path 106932" d="M143.39,68.51a.38.38,0,0,1-.47.26.378.378,0,0,1,.2-.73A.39.39,0,0,1,143.39,68.51Z" fill="#cfcfd1"/>
        <path id="Path_106933" data-name="Path 106933" d="M143.36,68.23a.58.58,0,0,1-.58.47.37.37,0,0,0,.14.07.38.38,0,0,0,.47-.26A.45.45,0,0,0,143.36,68.23Z" fill="#abb0c1"/>
        <path id="Path_106934" data-name="Path 106934" d="M138.26,68.21a.38.38,0,1,1-.1-.275A.38.38,0,0,1,138.26,68.21Z" fill="#cfcfd1"/>
        <path id="Path_106935" data-name="Path 106935" d="M138.17,68a.58.58,0,0,1-.47.58.42.42,0,0,0,.16,0,.38.38,0,0,0,.4-.36A.35.35,0,0,0,138.17,68Z" fill="#abb0c1"/>
        <path id="Path_106936" data-name="Path 106936" d="M142.68,68.21a.38.38,0,0,1-.76,0,.4.4,0,0,1,.41-.36A.37.37,0,0,1,142.68,68.21Z" fill="#cfcfd1"/>
        <path id="Path_106937" data-name="Path 106937" d="M142.59,68a.57.57,0,0,1-.46.58.33.33,0,0,0,.15,0,.38.38,0,0,0,.4-.36.35.35,0,0,0-.09-.22Z" fill="#abb0c1"/>
        <path id="Path_106938" data-name="Path 106938" d="M138.93,68.23a.38.38,0,0,1-.49.22.382.382,0,1,1,.28-.71A.38.38,0,0,1,138.93,68.23Z" fill="#cfcfd1"/>
        <path id="Path_106939" data-name="Path 106939" d="M138.93,68a.58.58,0,0,1-.63.4.48.48,0,0,0,.14.09.38.38,0,0,0,.49-.22.36.36,0,0,0,0-.27Z" fill="#abb0c1"/>
        <path id="Path_106940" data-name="Path 106940" d="M139.69,68.23a.378.378,0,1,1-.21-.49.37.37,0,0,1,.21.49Z" fill="#cfcfd1"/>
        <path id="Path_106941" data-name="Path 106941" d="M139.69,68a.57.57,0,0,1-.62.4.43.43,0,0,0,.13.09.38.38,0,0,0,.49-.22A.32.32,0,0,0,139.69,68Z" fill="#abb0c1"/>
        <path id="Path_106942" data-name="Path 106942" d="M140.41,68.23a.377.377,0,1,1-.7-.28.37.37,0,0,1,.49-.21.38.38,0,0,1,.21.49Z" fill="#cfcfd1"/>
        <path id="Path_106943" data-name="Path 106943" d="M140.41,68a.57.57,0,0,1-.62.4.43.43,0,0,0,.13.09.38.38,0,0,0,.49-.22A.36.36,0,0,0,140.41,68Z" fill="#abb0c1"/>
        <path id="Path_106944" data-name="Path 106944" d="M141.11,68.23a.39.39,0,0,1-.5.22.38.38,0,1,1,.5-.22Z" fill="#cfcfd1"/>
        <path id="Path_106945" data-name="Path 106945" d="M141.11,68a.58.58,0,0,1-.63.4.6.6,0,0,0,.13.09.39.39,0,0,0,.5-.22.42.42,0,0,0,0-.27Z" fill="#abb0c1"/>
        <path id="Path_106946" data-name="Path 106946" d="M141.89,68.23a.378.378,0,1,1-.21-.49.37.37,0,0,1,.21.49Z" fill="#cfcfd1"/>
        <path id="Path_106947" data-name="Path 106947" d="M141.89,68a.57.57,0,0,1-.62.4.43.43,0,0,0,.13.09.38.38,0,0,0,.49-.22A.32.32,0,0,0,141.89,68Z" fill="#abb0c1"/>
        <path id="Path_106948" data-name="Path 106948" d="M135.64,72a1.08,1.08,0,0,0-1.37.15s-.69.39.89,2.87c0,0,.57.45-.35,3.23,0,0-.42.93.2,1.29,0,0,.72.42,1-1.2l.06-1.79Z" fill="#abb0c1"/>
        <path id="Path_106949" data-name="Path 106949" d="M144.53,72a1.09,1.09,0,0,1,1.38.15s.69.39-.9,2.87c0,0-.57.45.36,3.23,0,0,.42.93-.21,1.29,0,0-.72.42-1-1.2l-.06-1.79Z" fill="#696d7e"/>
        <path id="Path_106950" data-name="Path 106950" d="M144.76,72.92c0-3.91-3.06-3.59-3.06-3.59h-3.21s-3.06-.32-3.06,3.59l.41,4.09a1.58,1.58,0,0,0,1.73,1.72h5.05A1.58,1.58,0,0,0,144.35,77Z" fill="#cfcfd1"/>
        <path id="Path_106951" data-name="Path 106951" d="M144.76,72.92c0-3.1-1.93-3.54-2.72-3.59,1.59,3.14.93,6.56-.79,9.4h1.37A1.58,1.58,0,0,0,144.35,77Z" fill="#abb0c1"/>
        <path id="Path_106952" data-name="Path 106952" d="M136.09,78.08s.3.69,1.48.65h5.05a1.67,1.67,0,0,0,1.52-.8A13.55,13.55,0,0,0,136.09,78.08Z" fill="#6c7585"/>
        <path id="Path_106953" data-name="Path 106953" d="M140.1,70.9a.36.36,0,1,0,.36.36.36.36,0,0,0-.36-.36Z" fill="#696d7e"/>
        <path id="Path_106954" data-name="Path 106954" d="M136.53,72.34a1.76,1.76,0,0,1,2.43,0,3.3,3.3,0,0,0-2.43,0Z" fill="#696d7e"/>
        <path id="Path_106955" data-name="Path 106955" d="M136.65,73.41a5.08,5.08,0,0,0,2.35,0,1.85,1.85,0,0,1-2.35,0Z" fill="#696d7e"/>
        <path id="Path_106956" data-name="Path 106956" d="M143.92,72.34a1.76,1.76,0,0,0-2.43,0A3.3,3.3,0,0,1,143.92,72.34Z" fill="#696d7e"/>
        <path id="Path_106957" data-name="Path 106957" d="M143.81,73.41a5.12,5.12,0,0,1-2.36,0A1.87,1.87,0,0,0,143.81,73.41Z" fill="#696d7e"/>
        <path id="Path_106958" data-name="Path 106958" d="M140.93,72.13a5.37,5.37,0,0,0,0,2.41s.43.45.27.8h-.85V72.61A.88.88,0,0,1,140.93,72.13Z" fill="#abb0c1"/>
        <path id="Path_106959" data-name="Path 106959" d="M141.2,75.34h-1.75a1.33,1.33,0,0,1,1.75,0Z" fill="#6c7585"/>
        <path id="Path_106960" data-name="Path 106960" d="M141.2,75.34l1.44,1-.45.78a14.848,14.848,0,0,1-2.69.12,8.41,8.41,0,0,0,2.22-.32l-2.27-1.53Z" fill="#abb0c1"/>
        <path id="Path_106961" data-name="Path 106961" d="M138.62,76.53s1.15-.51,1.77-.11a2.18,2.18,0,0,1,1.8.14Z" fill="#696d7e"/>
        <path id="Path_106962" data-name="Path 106962" d="M139.05,76.69a9.5,9.5,0,0,0,2.53,0,3.54,3.54,0,0,1-2.53,0Z" fill="#696d7e"/>
        <circle id="Ellipse_62" data-name="Ellipse 62" cx="0.37" cy="0.37" r="0.37" transform="translate(134.93 71.41)" fill="#cfcfd1"/>
        <path id="Path_106963" data-name="Path 106963" d="M135.57,71.53a.56.56,0,0,1-.42.59.4.4,0,0,0,.15,0,.37.37,0,0,0,.37-.37.39.39,0,0,0-.1-.22Z" fill="#abb0c1"/>
        <circle id="Ellipse_63" data-name="Ellipse 63" cx="0.37" cy="0.37" r="0.37" transform="translate(144.63 71.41)" fill="#cfcfd1"/>
        <path id="Path_106964" data-name="Path 106964" d="M145.26,71.53a.55.55,0,0,1-.41.59.33.33,0,0,0,.15,0,.36.36,0,0,0,.36-.37.39.39,0,0,0-.1-.22Z" fill="#abb0c1"/>
        <path id="Path_106965" data-name="Path 106965" d="M135.84,71.12a.45.45,0,1,1-.45-.44.45.45,0,0,1,.45.44Z" fill="#cfcfd1"/>
        <path id="Path_106966" data-name="Path 106966" d="M135.72,70.82a.68.68,0,0,1-.51.71.34.34,0,0,0,.18,0,.45.45,0,0,0,.45-.45A.47.47,0,0,0,135.72,70.82Z" fill="#abb0c1"/>
        <path id="Path_106967" data-name="Path 106967" d="M145.31,71.12a.45.45,0,1,1-.45-.44.45.45,0,0,1,.45.44Z" fill="#cfcfd1"/>
        <path id="Path_106968" data-name="Path 106968" d="M145.19,70.82a.67.67,0,0,1-.51.71.39.39,0,0,0,.18,0,.45.45,0,0,0,.45-.45A.47.47,0,0,0,145.19,70.82Z" fill="#abb0c1"/>
        <path id="Path_106969" data-name="Path 106969" d="M136.24,70.35a.53.53,0,1,1-.53-.53A.53.53,0,0,1,136.24,70.35Z" fill="#cfcfd1"/>
        <path id="Path_106970" data-name="Path 106970" d="M136.1,70a.78.78,0,0,1-.6.84.54.54,0,0,0,.21,0,.53.53,0,0,0,.39-.89Z" fill="#abb0c1"/>
        <path id="Path_106971" data-name="Path 106971" d="M145,70.35a.53.53,0,1,1-.53-.53A.53.53,0,0,1,145,70.35Z" fill="#cfcfd1"/>
        <path id="Path_106972" data-name="Path 106972" d="M144.85,70a.78.78,0,0,1-.6.84.54.54,0,0,0,.22,0,.52.52,0,0,0,.38-.89Z" fill="#abb0c1"/>
        <path id="Path_106973" data-name="Path 106973" d="M136.87,69.63a.53.53,0,1,1-.53-.53.53.53,0,0,1,.53.53Z" fill="#cfcfd1"/>
        <path id="Path_106974" data-name="Path 106974" d="M136.73,69.27a.79.79,0,0,1-.6.84.5.5,0,0,0,.21,0,.53.53,0,0,0,.53-.53.57.57,0,0,0-.14-.31Z" fill="#abb0c1"/>
        <path id="Path_106975" data-name="Path 106975" d="M144.35,69.63a.53.53,0,1,1-.53-.53A.53.53,0,0,1,144.35,69.63Z" fill="#cfcfd1"/>
        <path id="Path_106976" data-name="Path 106976" d="M144.2,69.27a.78.78,0,0,1-.6.84.54.54,0,0,0,.22,0,.52.52,0,0,0,.38-.89Z" fill="#abb0c1"/>
        <path id="Path_106977" data-name="Path 106977" d="M137.66,69.36a.53.53,0,1,1-.22-.71.52.52,0,0,1,.22.71Z" fill="#cfcfd1"/>
        <path id="Path_106978" data-name="Path 106978" d="M137.7,69a.78.78,0,0,1-.92.47.55.55,0,0,0,.17.14.52.52,0,0,0,.71-.22A.49.49,0,0,0,137.7,69Z" fill="#abb0c1"/>
        <path id="Path_106979" data-name="Path 106979" d="M143.48,69.36a.52.52,0,0,1-.71.22.53.53,0,0,1-.23-.71.52.52,0,0,1,.71-.22.53.53,0,0,1,.23.71Z" fill="#cfcfd1"/>
        <path id="Path_106980" data-name="Path 106980" d="M143.51,69a.77.77,0,0,1-.91.47.39.39,0,0,0,.17.14.52.52,0,0,0,.71-.22.53.53,0,0,0,.03-.39Z" fill="#abb0c1"/>
        <path id="Path_106981" data-name="Path 106981" d="M138.63,69.11a.52.52,0,0,1-.68.29.51.51,0,0,1-.3-.68.527.527,0,1,1,.98.39Z" fill="#cfcfd1"/>
        <path id="Path_106982" data-name="Path 106982" d="M138.63,68.72a.8.8,0,0,1-.87.56.41.41,0,0,0,.19.12.52.52,0,0,0,.68-.29A.58.58,0,0,0,138.63,68.72Z" fill="#abb0c1"/>
        <path id="Path_106983" data-name="Path 106983" d="M139.59,69.15a.53.53,0,1,1-.24-.71.53.53,0,0,1,.24.71Z" fill="#cfcfd1"/>
        <path id="Path_106984" data-name="Path 106984" d="M139.62,68.76a.79.79,0,0,1-.91.49.79.79,0,0,0,.17.14.53.53,0,0,0,.71-.24A.59.59,0,0,0,139.62,68.76Z" fill="#abb0c1"/>
        <path id="Path_106985" data-name="Path 106985" d="M140.6,69.15a.53.53,0,1,1-.24-.71.53.53,0,0,1,.24.71Z" fill="#cfcfd1"/>
        <path id="Path_106986" data-name="Path 106986" d="M140.63,68.76a.79.79,0,0,1-.91.49.79.79,0,0,0,.17.14.53.53,0,0,0,.71-.24A.59.59,0,0,0,140.63,68.76Z" fill="#abb0c1"/>
        <path id="Path_106987" data-name="Path 106987" d="M141.56,69.15a.52.52,0,0,1-.7.24.577.577,0,1,1,.7-.24Z" fill="#cfcfd1"/>
        <path id="Path_106988" data-name="Path 106988" d="M141.59,68.76a.79.79,0,0,1-.9.49.61.61,0,0,0,.17.14.52.52,0,0,0,.7-.24A.49.49,0,0,0,141.59,68.76Z" fill="#abb0c1"/>
        <path id="Path_106989" data-name="Path 106989" d="M142.51,69.15a.53.53,0,1,1-.24-.71.53.53,0,0,1,.24.71Z" fill="#cfcfd1"/>
        <path id="Path_106990" data-name="Path 106990" d="M142.54,68.76a.79.79,0,0,1-.91.49.61.61,0,0,0,.17.14.53.53,0,0,0,.71-.24.59.59,0,0,0,.03-.39Z" fill="#abb0c1"/>
        <path id="Path_106991" data-name="Path 106991" d="M136.87,80.39l-1.35.54v6.28a5.94,5.94,0,0,0,5.93,5.93h.81V80.3Z" fill="#cfcfd1"/>
        <path id="Path_106992" data-name="Path 106992" d="M143.52,80.39l1.34.54v6.28a5.93,5.93,0,0,1-5.93,5.93h-.8V80.3Z" fill="#cfcfd1"/>
        <path id="Path_106993" data-name="Path 106993" d="M135.52,80.93s3.64,3,4.4,6.38c0,0-1.11,2-4.4,1.92Z" fill="url(#linear-gradient)"/>
        <path id="Path_106994" data-name="Path 106994" d="M135.52,89.23s3,.17,4.4-1.92C139.92,87.31,139.26,89.51,135.52,89.23Z" fill="#6c7585"/>
        <path id="Path_106995" data-name="Path 106995" d="M144.86,80.93s-3.86,3.63-4.42,6.39c0,0,1.12,2,4.42,1.93Z" fill="url(#linear-gradient-2)"/>
        <path id="Path_106996" data-name="Path 106996" d="M144.86,89.25s-3.05.17-4.42-1.93C140.44,87.32,141.11,89.53,144.86,89.25Z" fill="#6c7585"/>
        <path id="Path_106997" data-name="Path 106997" d="M136.3,91.94a13.1,13.1,0,0,1,7.63,0,25,25,0,0,0-7.63,0Z" fill="#6c7585"/>
        <path id="Path_106998" data-name="Path 106998" d="M140.28,88.53a27.851,27.851,0,0,0,0,4.61A38.429,38.429,0,0,0,140.28,88.53Z" fill="#6c7585"/>
        <path id="Path_106999" data-name="Path 106999" d="M135.16,82.59s-1.7,10,1.71,10.5l-1.62-.22S133.5,90.76,135.16,82.59Z" fill="#abb0c1"/>
        <path id="Path_107000" data-name="Path 107000" d="M134.13,83.84s-1.93,5.12.63,9.07h-1.3A2,2,0,0,0,132,92.6s.32-2.38.63-5.75A2.68,2.68,0,0,1,132.2,84s-.18,1.26.49,1.67a2.22,2.22,0,0,1,.09-1.4,1.61,1.61,0,0,0,.27,1.13,4.8,4.8,0,0,1,1.08-1.56Z" fill="#abb0c1"/>
        <path id="Path_107001" data-name="Path 107001" d="M133.46,93s-.14-5.79-.41-7.27l-.22,6.91Z" fill="#6c7585"/>
        <path id="Path_107002" data-name="Path 107002" d="M131,87a3,3,0,0,0,.85,2.06l-.94-.18a4.66,4.66,0,0,0,.94,2.25l-1,.22,1,1.17-.94.63,1.12-.09-1.21,1.17,1.17-.5-.86,1.21s-.47-.53-.27-2.64Z" fill="#abb0c1"/>
        <path id="Path_107003" data-name="Path 107003" d="M134.56,95.72a2.64,2.64,0,0,1,1.91-2.4A2.79,2.79,0,0,0,134,95.71Z" fill="#abb0c1"/>
        <path id="Path_107004" data-name="Path 107004" d="M133.5,95.71a2.64,2.64,0,0,1,1.91-2.39,2.79,2.79,0,0,0-2.48,2.39Z" fill="#abb0c1"/>
        <path id="Path_107005" data-name="Path 107005" d="M135.4,95.72l.54-.76.33.75Z" fill="#6c7585"/>
        <path id="Path_107006" data-name="Path 107006" d="M137.18,93.14a3.92,3.92,0,0,1,2-.21,2.73,2.73,0,0,0,1.16-.33s.87.12.24.63l-2.84.87a10.85,10.85,0,0,0,5.48.21s.74.71-3.27.74a15.35,15.35,0,0,1-3.65.66S135,94.72,137.18,93.14Z" fill="#abb0c1"/>
        <path id="Path_107007" data-name="Path 107007" d="M143.21,93.14a3.89,3.89,0,0,0-2-.21,2.76,2.76,0,0,1-1.17-.33s-.87.12-.24.63l2.84.87s1.25.51-5.3,1.22c0,0-1.2.45,3.2.3,1.62,0,2.26.1,3.54.09C144.12,95.71,145.35,94.72,143.21,93.14Z" fill="#abb0c1"/>
        <path id="Path_107008" data-name="Path 107008" d="M145.43,96.28s-2,1.2-8.05.54C137.38,96.82,145,98.2,145.43,96.28Z" fill="#abb0c1"/>
        <path id="Path_107009" data-name="Path 107009" d="M135.46,97.36s6,3,10.66,0C146.12,97.39,142,101.61,135.46,97.36Z" fill="#abb0c1"/>
        <path id="Path_107010" data-name="Path 107010" d="M135.31,98.68a7.85,7.85,0,0,0,6.14,1.31,6.5,6.5,0,0,1-6.14-1.31Z" fill="#abb0c1"/>
        <path id="Path_107011" data-name="Path 107011" d="M136.3,100.35S143,102,146.54,99C146.54,99,144.86,103.29,136.3,100.35Z" fill="#abb0c1"/>
        <path id="Path_107012" data-name="Path 107012" d="M141.81,101.82a6.66,6.66,0,0,0,6.9-5.73s.85,3.83-3.86,5.71Z" fill="#abb0c1"/>
        <path id="Path_107013" data-name="Path 107013" d="M128.68,96.63s0,3,5.12,3.5C133.8,100.13,128.59,100.35,128.68,96.63Z" fill="#abb0c1"/>
        <path id="Path_107014" data-name="Path 107014" d="M127.34,98.33s.31,3,4.85,2.52a11.43,11.43,0,0,1,3.63-.23,18.24,18.24,0,0,0-3.09.39,6.26,6.26,0,0,1-1.81.32C129.44,101.32,127.34,100.87,127.34,98.33Z" fill="#abb0c1"/>
        <path id="Path_107015" data-name="Path 107015" d="M126.44,98.74s-.42,2.45,3.8,3.08h-1.63a2.72,2.72,0,0,1-2.17-3.08Z" fill="#abb0c1"/>
        <path id="Path_107016" data-name="Path 107016" d="M126,100.41a2.37,2.37,0,0,0,1.81,1.41h-.71a1.94,1.94,0,0,1-1.1-1.41Z" fill="#abb0c1"/>
        <path id="Path_107017" data-name="Path 107017" d="M147.09,100l-.1.11c1.46-.12,4.31-.69,4.27-3.43C151.24,97,150.91,99.3,147.09,100Z" fill="#abb0c1"/>
        <path id="Path_107018" data-name="Path 107018" d="M147.77,100.85a15.6,15.6,0,0,0-1.59-.25,1.191,1.191,0,0,1-.15.18,7.769,7.769,0,0,1,1.2.23,6.2,6.2,0,0,0,1.8.32c1.48,0,3.58-.46,3.58-3C152.61,98.33,152.3,101.38,147.77,100.85Z" fill="#abb0c1"/>
        <path id="Path_107019" data-name="Path 107019" d="M153.51,98.74s.42,2.45-3.8,3.08h1.63a2.72,2.72,0,0,0,2.17-3.08Z" fill="#abb0c1"/>
        <path id="Path_107020" data-name="Path 107020" d="M153.92,100.41a2.39,2.39,0,0,1-1.81,1.41h.7a2,2,0,0,0,1.11-1.41Z" fill="#abb0c1"/>
        <path id="Path_107021" data-name="Path 107021" d="M60.53,88.16c-.92-1.33-3.58,1.17-5.7.87,0,0-.13-.74-.2-1.11.8-1.33,3.52-1.54,2.33-2.43s-3.91-.68-5.3,1.16c-.39-2.22-2.71-1.71-3.58-.75-.33.07.26,1.48.39,2.22-.72-.23-1.78-.38-1.72,0-.55,1.72,1.13,1.36,2,2a1.15,1.15,0,0,0,.08-.41,4.54,4.54,0,0,0,3.27.43,5.21,5.21,0,0,0,1-.34c0,.07,0,.13,0,.19.21,1.19,1.74,1.86,3.42,1.49a3.779,3.779,0,0,0,.6-.17,3.85,3.85,0,0,0,1.75,0,3.8,3.8,0,0,0,.51-.14,1.19,1.19,0,0,0,.22.33C60.75,90.39,61.27,89.23,60.53,88.16Z" fill="#80b715"/>
        <path id="Path_107022" data-name="Path 107022" d="M64.14,84.94a3,3,0,0,0-.55.18.92.92,0,0,0,0-.33c-.1-.57-.84-.89-1.65-.73a1.33,1.33,0,0,0,0-.28,2.37,2.37,0,0,0-1.69-1.84,1.55,1.55,0,0,0-.47-.69,1.56,1.56,0,0,0,.19-1c-.17-1-1.4-1.52-2.93-1.44a1.25,1.25,0,0,0,.1-.71c-.16-.88-1.36-1.37-2.69-1.08a3.35,3.35,0,0,0-1.58.81,2.51,2.51,0,0,0-.9,0,2.17,2.17,0,0,0-1.88,2.16,4.2,4.2,0,0,0-.8.63,3.43,3.43,0,0,0-3-.55,4.48,4.48,0,0,0-2,1,2.52,2.52,0,0,0-2.07,2.55,1.56,1.56,0,0,0,.17.47,3.42,3.42,0,0,0-.9.77,2.09,2.09,0,0,0-.7,0A2,2,0,0,0,39.05,87a1.77,1.77,0,0,0,2.27,1.19h.09a1.4,1.4,0,0,0,0,.5h0A1.3,1.3,0,0,0,40.55,90a1.21,1.21,0,0,0,1.36.83,2.12,2.12,0,0,0,2.2.66,3.5,3.5,0,0,0,.46-.14,3,3,0,0,0,4.23-1.28c-.92-.62-2.6-.26-2-2-.06-.37,1-.22,1.72,0-.13-.74-.72-2.15-.39-2.22.87-1,3.19-1.47,3.58.75,1.39-1.84,4.11-2.06,5.3-1.16s-1.53,1.1-2.33,2.43c.07.37.2,1.11.2,1.11,2.12.3,4.78-2.2,5.7-.87.74,1.07.22,2.23-.85,3.28a2.92,2.92,0,0,0,2.76.58c1.53-.33,2.63-1.41,2.45-2.41a1.6,1.6,0,0,0-1.23-1.17,1.41,1.41,0,0,0,.59-1l.31-.05c1.09-.24,1.88-1,1.77-1.65S65.23,84.7,64.14,84.94Z" fill="#8bc91f"/>
        <path id="Path_107023" data-name="Path 107023" d="M39.89,87.29a2,2,0,0,1,1.71-2.06,2.39,2.39,0,0,1,.7,0,3.27,3.27,0,0,1,.9-.77,1.47,1.47,0,0,1-.17-.47,2.53,2.53,0,0,1,2.07-2.55,4.66,4.66,0,0,1,3.67-1,3.88,3.88,0,0,0-2.51-.21,4.48,4.48,0,0,0-2,1,2.52,2.52,0,0,0-2.07,2.55,1.56,1.56,0,0,0,.17.47,3.42,3.42,0,0,0-.9.77,2.09,2.09,0,0,0-.7,0A2,2,0,0,0,39.05,87a1.61,1.61,0,0,0,1.55,1.24A1.45,1.45,0,0,1,39.89,87.29Z" fill="#b9f464"/>
        <path id="Path_107024" data-name="Path 107024" d="M54.44,77a3.35,3.35,0,0,0-1.58.81,2.51,2.51,0,0,0-.9,0,2.17,2.17,0,0,0-1.88,2.16,3.74,3.74,0,0,0-.63.48h0a.66.66,0,0,1,.19-.09c.19-.07,1-.34,1.26-.4a2.27,2.27,0,0,1,1.89-1.9,2.51,2.51,0,0,1,.9,0,3.51,3.51,0,0,1,2.73-.86,3,3,0,0,0-1.98-.2Z" fill="#b9f464"/>
        <path id="Path_107025" data-name="Path 107025" d="M41.86,89.25a1.17,1.17,0,0,1-.3-.72h-.17a1,1,0,0,0,0,.17h0a1.3,1.3,0,0,0-.84,1.3,1.15,1.15,0,0,0,1.22.83.85.85,0,0,1-.37-.57,1.12,1.12,0,0,1,.46-1.01Z" fill="#b9f464"/>
        <path id="Path_107026" data-name="Path 107026" d="M42.76,91.11A1.68,1.68,0,0,1,42,91a1.91,1.91,0,0,0,1.22.56,1.67,1.67,0,0,1-.46-.45Z" fill="#b9f464"/>
        <path id="Path_107027" data-name="Path 107027" d="M46.16,85.9c-.16-.94.93-2,2.46-2.35a3.47,3.47,0,0,0-1.15,0c-1.31.29-2.24,1.24-2.09,2.13a1.67,1.67,0,0,0,1.69,1.16,1.4,1.4,0,0,1-.91-.94Z" fill="#b9f464"/>
        <path id="Path_107028" data-name="Path 107028" d="M45,88.45c-.12-.7.6-1.45,1.63-1.71a2.23,2.23,0,0,0-.77,0c-.88.2-1.5.89-1.38,1.55a1.18,1.18,0,0,0,1.15.88,1.05,1.05,0,0,1-.63-.72Z" fill="#b9f464"/>
        <path id="Path_107029" data-name="Path 107029" d="M53,81.45a1.63,1.63,0,0,1,2.4-.29,1.73,1.73,0,0,0-.49-.62,1.41,1.41,0,0,0-2.12.33,1.82,1.82,0,0,0,0,1.83A1.75,1.75,0,0,1,53,81.45Z" fill="#b9f464"/>
        <path id="Path_107030" data-name="Path 107030" d="M56.11,80.56a1.45,1.45,0,0,1,1.85,1,1.64,1.64,0,0,0-.08-.69,1.24,1.24,0,0,0-1.66-.82,1.44,1.44,0,0,0-.82,1.28A1.38,1.38,0,0,1,56.11,80.56Z" fill="#b9f464"/>
        <path id="Path_107031" data-name="Path 107031" d="M58.2,85.48c1.2-.46,2.55.42,3.08,2a3,3,0,0,0-.1-1.22,2.19,2.19,0,0,0-2.78-1.65A2.42,2.42,0,0,0,57,86.75,2.25,2.25,0,0,1,58.2,85.48Z" fill="#b9f464"/>
        <path id="Path_107032" data-name="Path 107032" d="M59.53,89l-.1.14a5.89,5.89,0,0,1-1,1.12,4.92,4.92,0,0,1-1.28.63,4.56,4.56,0,0,1-1.36.27H55.7a1.66,1.66,0,0,0,.14-.13,2.32,2.32,0,0,0,.59-1.06,2.48,2.48,0,0,0,0-1.24,2.14,2.14,0,0,0-.25-.55,1.84,1.84,0,0,1-.21-.51,1,1,0,0,1,.24-.57,4.479,4.479,0,0,1,.36-.4h0a4.54,4.54,0,0,0-.38.38,1.09,1.09,0,0,0-.29.64h0c0,.44.34.74.41,1.1a2.19,2.19,0,0,1,0,1.11,2,2,0,0,1-.56.91,3.68,3.68,0,0,1-.88.47,2.78,2.78,0,0,0-.38.12,2.88,2.88,0,0,0-1.22,1,6.4,6.4,0,0,0-.63,1,5.85,5.85,0,0,1-.61.27c-.25.09-.37-.21-.44-.59a5,5,0,0,0,0-.67c.05-.53.11-1.07.2-1.6a10.77,10.77,0,0,1,.57-2.11c.14-.33.28-.65.43-1a.71.71,0,0,1-.1-.14c-.17.34-.33.68-.5,1a10.41,10.41,0,0,0-.66,2.14,3.221,3.221,0,0,1-.11.62c-.05-.22-.1-.45-.17-.67A13,13,0,0,1,50.53,88c0-.14,0-.29,0-.43a12,12,0,0,1,1-1.24,3.35,3.35,0,0,0,.45-.7,1.83,1.83,0,0,0,.15-.83,1.62,1.62,0,0,1-.23.79,2.63,2.63,0,0,1-.49.61c-.27.28-.57.52-.84.81a2.3,2.3,0,0,1,0-.37c0-.46.12-.92.15-1.39a9.21,9.21,0,0,0,0-1.39,2.34,2.34,0,0,0,0-.26h0a1.941,1.941,0,0,1,0,.24,8,8,0,0,1,0,1.38,11.09,11.09,0,0,1-.21,1.37c0,.22-.09,1.2-.08,1.41a10,10,0,0,0,.38,2.25,4,4,0,0,0-.35-.36,16,16,0,0,0-1.45-1.08,6.4,6.4,0,0,1-.71-.55,2.18,2.18,0,0,1-.5-.59q0,.055,0,.11a2.49,2.49,0,0,0,.47.59c.22.22.46.41.69.6a12.77,12.77,0,0,1,1.39,1.14,3.16,3.16,0,0,1,.72,1.07,5.85,5.85,0,0,1,.08,2.2c-.08.42-.21.89-.28,1.37a10,10,0,0,0-.09,1.44,5.38,5.38,0,0,0,.2,1.48A4.55,4.55,0,0,0,51.4,99a16.539,16.539,0,0,0,1.78,2l.1.11.09.12a10.78,10.78,0,0,1,.19,1.08h3.21a4.83,4.83,0,0,0-.65-1.1A5.16,5.16,0,0,0,55,100.17a6.13,6.13,0,0,1-2-2,4.05,4.05,0,0,1-.61-2.82,6.58,6.58,0,0,1,1.07-2.79,2.48,2.48,0,0,1,1.06-.88,4.32,4.32,0,0,1,1.36-.26,5.28,5.28,0,0,0,1.41-.34,4.94,4.94,0,0,0,1.3-.69,5.81,5.81,0,0,0,1-1.19l.12-.17Z" fill="#4d7776"/>
      </g>
    </g>
  </g>
</svg>
